<?xml version="1.0" encoding="UTF-8" standalone="no"?>
<!-- Created with Inkscape (http://www.inkscape.org/) -->

<svg
   xmlns:dc="http://purl.org/dc/elements/1.1/"
   xmlns:cc="http://creativecommons.org/ns#"
   xmlns:rdf="http://www.w3.org/1999/02/22-rdf-syntax-ns#"
   xmlns:svg="http://www.w3.org/2000/svg"
   xmlns="http://www.w3.org/2000/svg"
   xmlns:sodipodi="http://sodipodi.sourceforge.net/DTD/sodipodi-0.dtd"
   xmlns:inkscape="http://www.inkscape.org/namespaces/inkscape"
   width="1000"
   height="400"
   viewBox="0 0 264.58333 105.83334"
   version="1.1"
   id="svg3813"
   inkscape:version="0.92.4 (5da689c313, 2019-01-14)"
   sodipodi:docname="Fig3_6_tetrathionate.svg">
  <defs
     id="defs3807">
    <pattern
       y="0"
       x="0"
       height="6"
       width="6"
       patternUnits="userSpaceOnUse"
       id="EMFhbasepattern" />
    <pattern
       y="0"
       x="0"
       height="6"
       width="6"
       patternUnits="userSpaceOnUse"
       id="EMFhbasepattern-6" />
    <pattern
       y="0"
       x="0"
       height="6"
       width="6"
       patternUnits="userSpaceOnUse"
       id="EMFhbasepattern-5" />
    <pattern
       y="0"
       x="0"
       height="6"
       width="6"
       patternUnits="userSpaceOnUse"
       id="EMFhbasepattern-3" />
    <pattern
       y="0"
       x="0"
       height="6"
       width="6"
       patternUnits="userSpaceOnUse"
       id="EMFhbasepattern-7" />
    <pattern
       y="0"
       x="0"
       height="6"
       width="6"
       patternUnits="userSpaceOnUse"
       id="EMFhbasepattern-58" />
    <pattern
       y="0"
       x="0"
       height="6"
       width="6"
       patternUnits="userSpaceOnUse"
       id="EMFhbasepattern-65" />
  </defs>
  <sodipodi:namedview
     id="base"
     pagecolor="#ffffff"
     bordercolor="#666666"
     borderopacity="1.0"
     inkscape:pageopacity="0.0"
     inkscape:pageshadow="2"
     inkscape:zoom="1.4"
     inkscape:cx="454.77979"
     inkscape:cy="218.59632"
     inkscape:document-units="mm"
     inkscape:current-layer="layer1"
     showgrid="false"
     units="px"
     inkscape:window-width="2560"
     inkscape:window-height="1017"
     inkscape:window-x="-8"
     inkscape:window-y="-8"
     inkscape:window-maximized="1" />
  <metadata
     id="metadata3810">
    <rdf:RDF>
      <cc:Work
         rdf:about="">
        <dc:format>image/svg+xml</dc:format>
        <dc:type
           rdf:resource="http://purl.org/dc/dcmitype/StillImage" />
        <dc:title></dc:title>
      </cc:Work>
    </rdf:RDF>
  </metadata>
  <g
     inkscape:label="Layer 1"
     inkscape:groupmode="layer"
     id="layer1"
     transform="translate(0,-191.16665)">
    <text
       xml:space="preserve"
       style="font-style:normal;font-weight:normal;font-size:8.80191422px;line-height:1.25;font-family:sans-serif;letter-spacing:0px;word-spacing:0px;fill:#000000;fill-opacity:1;stroke:none;stroke-width:0.22004788"
       x="135.48936"
       y="239.81754"
       id="text4147"
       transform="scale(1.0295625,0.97128632)"><tspan
         sodipodi:role="line"
         id="tspan4145"
         x="135.48936"
         y="247.84779"
         style="stroke-width:0.22004788" /></text>
    <flowRoot
       xml:space="preserve"
       id="flowRoot5153"
       style="font-style:normal;font-weight:normal;font-size:40px;line-height:1.25;font-family:sans-serif;letter-spacing:0px;word-spacing:0px;fill:#000000;fill-opacity:1;stroke:none"
       transform="matrix(0.22655306,0,0,0.21372948,35.927655,189.72759)"><flowRegion
         id="flowRegion5155"><rect
           id="rect5157"
           width="941.42859"
           height="470"
           x="40.714287"
           y="-48.57143" /></flowRegion><flowPara
         id="flowPara5159"></flowPara></flowRoot>    <text
       id="text5168"
       y="255.92436"
       x="85.387161"
       style="font-style:normal;font-variant:normal;font-weight:400;font-size:7.49538136px;line-height:125%;font-family:Arial;text-align:start;letter-spacing:0px;word-spacing:0px;text-anchor:start;fill:#000000;fill-opacity:1;stroke:none;stroke-width:0.22004788"
       xml:space="preserve"
       transform="scale(1.0295625,0.97128632)"><tspan
         id="tspan5166"
         y="255.92436"
         x="85.387161"
         sodipodi:role="line"
         style="stroke-width:0.22004788"><tspan
           id="tspan5164"
           style="font-style:normal;font-variant:normal;font-weight:400;font-size:7.49538136px;font-family:Arial;fill:#000000;stroke-width:0.22004788"
           dy="0"
           dx="0">S</tspan></tspan></text>
    <text
       id="text5174"
       y="244.54407"
       x="105.30264"
       style="font-style:normal;font-variant:normal;font-weight:400;font-size:7.49538136px;line-height:125%;font-family:Arial;text-align:start;letter-spacing:0px;word-spacing:0px;text-anchor:start;fill:#000000;fill-opacity:1;stroke:none;stroke-width:0.22004788"
       xml:space="preserve"
       transform="scale(1.0295625,0.97128632)"><tspan
         id="tspan5172"
         y="244.54407"
         x="105.30264"
         sodipodi:role="line"
         style="stroke-width:0.22004788"><tspan
           id="tspan5170"
           style="font-style:normal;font-variant:normal;font-weight:400;font-size:7.49538136px;font-family:Arial;fill:#000000;stroke-width:0.22004788"
           dy="0"
           dx="0">S</tspan></tspan></text>
    <path
       id="path5176"
       d="M 107.00098,236.61166 94.036059,243.6143"
       style="fill:none;stroke:#000000;stroke-width:0.04849545px;stroke-linecap:butt;stroke-linejoin:miter;stroke-miterlimit:2;stroke-dasharray:none;stroke-opacity:1"
       inkscape:connector-curvature="0" />
    <path
       id="path5178"
       d="m 106.86784,236.23484 0.38279,0.62804 -13.081425,7.14394 -0.399434,-0.64374 z"
       style="fill:#000000;fill-opacity:1;fill-rule:evenodd;stroke:none;stroke-width:0.22004786"
       inkscape:connector-curvature="0" />
    <text
       id="text5184"
       y="255.92436"
       x="124.95946"
       style="font-style:normal;font-variant:normal;font-weight:400;font-size:7.49538136px;line-height:125%;font-family:Arial;text-align:start;letter-spacing:0px;word-spacing:0px;text-anchor:start;fill:#000000;fill-opacity:1;stroke:none;stroke-width:0.22004788"
       xml:space="preserve"
       transform="scale(1.0295625,0.97128632)"><tspan
         id="tspan5182"
         y="255.92436"
         x="124.95946"
         sodipodi:role="line"
         style="stroke-width:0.22004788"><tspan
           id="tspan5180"
           style="font-style:normal;font-variant:normal;font-weight:400;font-size:7.49538136px;font-family:Arial;fill:#000000;stroke-width:0.22004788"
           dy="0"
           dx="0">S</tspan></tspan></text>
    <path
       id="path5186"
       d="m 127.73821,243.59859 -12.89836,-6.97124"
       style="fill:none;stroke:#000000;stroke-width:0.04849545px;stroke-linecap:butt;stroke-linejoin:miter;stroke-miterlimit:2;stroke-dasharray:none;stroke-opacity:1"
       inkscape:connector-curvature="0" />
    <path
       id="path5188"
       d="m 127.98785,243.33168 -0.3828,0.64373 -13.01485,-7.09685 0.3828,-0.64372 z"
       style="fill:#000000;fill-opacity:1;fill-rule:evenodd;stroke:none;stroke-width:0.22004786"
       inkscape:connector-curvature="0" />
    <text
       id="text5194"
       y="244.54407"
       x="144.61627"
       style="font-style:normal;font-variant:normal;font-weight:400;font-size:7.49538136px;line-height:125%;font-family:Arial;text-align:start;letter-spacing:0px;word-spacing:0px;text-anchor:start;fill:#000000;fill-opacity:1;stroke:none;stroke-width:0.22004788"
       xml:space="preserve"
       transform="scale(1.0295625,0.97128632)"><tspan
         id="tspan5192"
         y="244.54407"
         x="144.61627"
         sodipodi:role="line"
         style="stroke-width:0.22004788"><tspan
           id="tspan5190"
           style="font-style:normal;font-variant:normal;font-weight:400;font-size:7.49538136px;font-family:Arial;fill:#000000;stroke-width:0.22004788"
           dy="0"
           dx="0">S</tspan></tspan></text>
    <path
       id="path5196"
       d="m 147.70985,236.61166 -12.96493,7.00264"
       style="fill:none;stroke:#000000;stroke-width:0.04849545px;stroke-linecap:butt;stroke-linejoin:miter;stroke-miterlimit:2;stroke-dasharray:none;stroke-opacity:1"
       inkscape:connector-curvature="0" />
    <path
       id="path5198"
       d="m 147.5767,236.23484 0.38278,0.62804 -13.08141,7.14394 -0.39944,-0.64374 z"
       style="fill:#000000;fill-opacity:1;fill-rule:evenodd;stroke:none;stroke-width:0.22004786"
       inkscape:connector-curvature="0" />
    <text
       id="text5204"
       y="278.68494"
       x="84.869881"
       style="font-style:normal;font-variant:normal;font-weight:400;font-size:7.49538136px;line-height:125%;font-family:Arial;text-align:start;letter-spacing:0px;word-spacing:0px;text-anchor:start;fill:#000000;fill-opacity:1;stroke:none;stroke-width:0.22004788"
       xml:space="preserve"
       transform="scale(1.0295625,0.97128632)"><tspan
         id="tspan5202"
         y="278.68494"
         x="84.869881"
         sodipodi:role="line"
         style="stroke-width:0.22004788"><tspan
           id="tspan5200"
           style="font-style:normal;font-variant:normal;font-weight:400;font-size:7.49538136px;font-family:Arial;fill:#000000;stroke-width:0.22004788"
           dy="0"
           dx="0">O</tspan></tspan></text>
    <path
       id="path5206"
       d="M 91.972325,263.83716 V 250.0517"
       style="fill:none;stroke:#000000;stroke-width:0.04849545px;stroke-linecap:butt;stroke-linejoin:miter;stroke-miterlimit:2;stroke-dasharray:none;stroke-opacity:1"
       inkscape:connector-curvature="0" />
    <path
       id="path5208"
       d="m 91.57289,249.98889 v 13.91108 h 0.782222 v -13.91108 z"
       style="fill:#000000;fill-opacity:1;fill-rule:evenodd;stroke:none;stroke-width:0.22004786"
       inkscape:connector-curvature="0" />
    <path
       id="path5210"
       d="M 89.143007,263.83716 V 250.0517"
       style="fill:none;stroke:#000000;stroke-width:0.04849545px;stroke-linecap:butt;stroke-linejoin:miter;stroke-miterlimit:2;stroke-dasharray:none;stroke-opacity:1"
       inkscape:connector-curvature="0" />
    <path
       id="path5212"
       d="m 88.760219,249.98889 v 13.91108 h 0.782221 v -13.91108 z"
       style="fill:#000000;fill-opacity:1;fill-rule:evenodd;stroke:none;stroke-width:0.22004786"
       inkscape:connector-curvature="0" />
    <text
       id="text5218"
       y="221.52492"
       x="144.35764"
       style="font-style:normal;font-variant:normal;font-weight:400;font-size:7.49538136px;line-height:125%;font-family:Arial;text-align:start;letter-spacing:0px;word-spacing:0px;text-anchor:start;fill:#000000;fill-opacity:1;stroke:none;stroke-width:0.22004788"
       xml:space="preserve"
       transform="scale(1.0295625,0.97128632)"><tspan
         id="tspan5216"
         y="221.52492"
         x="144.35764"
         sodipodi:role="line"
         style="stroke-width:0.22004788"><tspan
           id="tspan5214"
           style="font-style:normal;font-variant:normal;font-weight:400;font-size:7.49538136px;font-family:Arial;fill:#000000;stroke-width:0.22004788"
           dy="0"
           dx="0">O</tspan></tspan></text>
    <path
       id="path5220"
       d="m 150.2063,216.79701 v 13.78546"
       style="fill:none;stroke:#000000;stroke-width:0.04849545px;stroke-linecap:butt;stroke-linejoin:miter;stroke-miterlimit:2;stroke-dasharray:none;stroke-opacity:1"
       inkscape:connector-curvature="0" />
    <path
       id="path5222"
       d="m 149.80686,216.7342 v 13.91108 h 0.79886 V 216.7342 Z"
       style="fill:#000000;fill-opacity:1;fill-rule:evenodd;stroke:none;stroke-width:0.22004786"
       inkscape:connector-curvature="0" />
    <path
       id="path5224"
       d="m 153.01896,216.79701 v 13.78546"
       style="fill:none;stroke:#000000;stroke-width:0.04849545px;stroke-linecap:butt;stroke-linejoin:miter;stroke-miterlimit:2;stroke-dasharray:none;stroke-opacity:1"
       inkscape:connector-curvature="0" />
    <path
       id="path5226"
       d="m 152.63617,216.7342 v 13.91108 h 0.78223 V 216.7342 Z"
       style="fill:#000000;fill-opacity:1;fill-rule:evenodd;stroke:none;stroke-width:0.22004786"
       inkscape:connector-curvature="0" />
    <text
       id="text5232"
       y="239.62987"
       x="68.834045"
       style="font-style:normal;font-variant:normal;font-weight:400;font-size:7.49538136px;line-height:125%;font-family:Arial;text-align:start;letter-spacing:0px;word-spacing:0px;text-anchor:start;fill:#000000;fill-opacity:1;stroke:none;stroke-width:0.22004788"
       xml:space="preserve"
       transform="scale(1.0295625,0.97128632)"><tspan
         id="tspan5230"
         y="239.62987"
         x="68.834045"
         sodipodi:role="line"
         style="stroke-width:0.22004788"><tspan
           id="tspan5228"
           style="font-style:normal;font-variant:normal;font-weight:400;font-size:7.49538136px;font-family:Arial;fill:#000000;stroke-width:0.22004788"
           dy="0"
           dx="0">O</tspan></tspan></text>
    <path
       id="path5234"
       d="m 76.327872,233.98959 10.268751,9.6875"
       style="fill:none;stroke:#000000;stroke-width:0.04849545px;stroke-linecap:butt;stroke-linejoin:miter;stroke-miterlimit:2;stroke-dasharray:none;stroke-opacity:1"
       inkscape:connector-curvature="0" />
    <path
       id="path5236"
       d="m 75.978368,234.19371 0.54922,-0.53383 10.401896,9.8131 -0.549221,0.53384 z"
       style="fill:#000000;fill-opacity:1;fill-rule:evenodd;stroke:none;stroke-width:0.22004786"
       inkscape:connector-curvature="0" />
    <path
       id="path5238"
       d="m 78.308392,232.10547 10.285396,9.68751"
       style="fill:none;stroke:#000000;stroke-width:0.04849545px;stroke-linecap:butt;stroke-linejoin:miter;stroke-miterlimit:2;stroke-dasharray:none;stroke-opacity:1"
       inkscape:connector-curvature="0" />
    <path
       id="path5240"
       d="m 77.975531,232.30959 0.54922,-0.51813 10.401896,9.81312 -0.549219,0.51812 z"
       style="fill:#000000;fill-opacity:1;fill-rule:evenodd;stroke:none;stroke-width:0.22004786"
       inkscape:connector-curvature="0" />
    <text
       id="text5246"
       y="260.5799"
       x="160.39346"
       style="font-style:normal;font-variant:normal;font-weight:400;font-size:7.49538136px;line-height:125%;font-family:Arial;text-align:start;letter-spacing:0px;word-spacing:0px;text-anchor:start;fill:#000000;fill-opacity:1;stroke:none;stroke-width:0.22004788"
       xml:space="preserve"
       transform="scale(1.0295625,0.97128632)"><tspan
         id="tspan5244"
         y="260.5799"
         x="160.39346"
         sodipodi:role="line"
         style="stroke-width:0.22004788"><tspan
           id="tspan5242"
           style="font-style:normal;font-variant:normal;font-weight:400;font-size:7.49538136px;font-family:Arial;fill:#000000;stroke-width:0.22004788"
           dy="0"
           dx="0">O</tspan></tspan></text>
    <path
       id="path5248"
       d="m 166.26682,246.39337 -10.26875,-9.68751"
       style="fill:none;stroke:#000000;stroke-width:0.04849545px;stroke-linecap:butt;stroke-linejoin:miter;stroke-miterlimit:2;stroke-dasharray:none;stroke-opacity:1"
       inkscape:connector-curvature="0" />
    <path
       id="path5250"
       d="m 166.59968,246.18926 -0.54921,0.51813 -10.4019,-9.79741 0.56585,-0.53384 z"
       style="fill:#000000;fill-opacity:1;fill-rule:evenodd;stroke:none;stroke-width:0.22004786"
       inkscape:connector-curvature="0" />
    <path
       id="path5252"
       d="M 164.26966,248.26178 154.0009,238.58999"
       style="fill:none;stroke:#000000;stroke-width:0.04849545px;stroke-linecap:butt;stroke-linejoin:miter;stroke-miterlimit:2;stroke-dasharray:none;stroke-opacity:1"
       inkscape:connector-curvature="0" />
    <path
       id="path5254"
       d="m 164.60251,248.07337 -0.5492,0.51814 -10.38526,-9.81311 0.54921,-0.51814 z"
       style="fill:#000000;fill-opacity:1;fill-rule:evenodd;stroke:none;stroke-width:0.22004786"
       inkscape:connector-curvature="0" />
    <text
       id="text5262"
       y="238.59534"
       x="166.34225"
       style="font-style:normal;font-variant:normal;font-weight:400;font-size:7.49538136px;line-height:125%;font-family:Arial;text-align:start;letter-spacing:0px;word-spacing:0px;text-anchor:start;fill:#000000;fill-opacity:1;stroke:none;stroke-width:0.22004788"
       xml:space="preserve"
       transform="scale(1.0295625,0.97128632)"><tspan
         id="tspan5260"
         y="238.59534"
         x="166.34225"
         sodipodi:role="line"
         style="stroke-width:0.22004788"><tspan
           id="tspan5256"
           style="font-style:normal;font-variant:normal;font-weight:400;font-size:7.49538136px;font-family:Arial;fill:#000000;stroke-width:0.22004788"
           dy="0"
           dx="0">O</tspan><tspan
           id="tspan5258"
           style="font-style:normal;font-variant:normal;font-weight:400;font-size:5.69373894px;font-family:Arial;fill:#000000;stroke-width:0.22004788"
           dy="-3.103709"
           dx="0">-</tspan></tspan></text>
    <path
       id="path5264"
       d="m 170.04479,229.78172 -14.6958,3.75254"
       style="fill:none;stroke:#000000;stroke-width:0.04849545px;stroke-linecap:butt;stroke-linejoin:miter;stroke-miterlimit:2;stroke-dasharray:none;stroke-opacity:1"
       inkscape:connector-curvature="0" />
    <path
       id="path5266"
       d="m 169.99486,229.4206 0.21635,0.72225 -14.82893,3.73683 -0.19972,-0.70654 z"
       style="fill:#000000;fill-opacity:1;fill-rule:evenodd;stroke:none;stroke-width:0.22004786"
       inkscape:connector-curvature="0" />
    <text
       id="text5274"
       y="258.76941"
       x="61.074776"
       style="font-style:normal;font-variant:normal;font-weight:400;font-size:5.69373894px;line-height:125%;font-family:Arial;text-align:start;letter-spacing:0px;word-spacing:0px;text-anchor:start;fill:#000000;fill-opacity:1;stroke:none;stroke-width:0.22004788"
       xml:space="preserve"
       transform="scale(1.0295625,0.97128632)"><tspan
         id="tspan5272"
         y="258.76941"
         x="61.074776"
         sodipodi:role="line"
         style="stroke-width:0.22004788"><tspan
           id="tspan5268"
           style="font-style:normal;font-variant:normal;font-weight:400;font-size:5.69373894px;font-family:Arial;fill:#000000;stroke-width:0.22004788"
           dy="0"
           dx="0">-</tspan><tspan
           id="tspan5270"
           style="font-style:normal;font-variant:normal;font-weight:400;font-size:7.49538136px;font-family:Arial;fill:#000000;stroke-width:0.22004788"
           dy="3.103709"
           dx="0">O</tspan></tspan></text>
    <path
       id="path5276"
       d="m 71.967396,250.25582 14.512727,-3.70543"
       style="fill:none;stroke:#000000;stroke-width:0.04849545px;stroke-linecap:butt;stroke-linejoin:miter;stroke-miterlimit:2;stroke-dasharray:none;stroke-opacity:1"
       inkscape:connector-curvature="0" />
    <path
       id="path5278"
       d="m 72.000683,250.61694 -0.199717,-0.72225 14.629227,-3.68973 0.216358,0.70654 z"
       style="fill:#000000;fill-opacity:1;fill-rule:evenodd;stroke:none;stroke-width:0.22004786"
       inkscape:connector-curvature="0" />
    <text
       id="text5288"
       y="205.48909"
       x="63.402561"
       style="font-style:normal;font-variant:normal;font-weight:400;font-size:8.27930069px;line-height:125%;font-family:'Times New Roman';text-align:start;letter-spacing:0px;word-spacing:0px;text-anchor:start;fill:#000000;fill-opacity:1;stroke:none;stroke-width:0.22004788"
       xml:space="preserve"
       transform="scale(1.0295625,0.97128632)"><tspan
         id="tspan5286"
         y="205.48909"
         x="63.402561"
         sodipodi:role="line"
         style="stroke-width:0.22004788"><tspan
           id="tspan5280"
           style="font-style:normal;font-variant:normal;font-weight:400;font-size:8.27930069px;font-family:'Times New Roman';fill:#000000;stroke-width:0.22004788"
           dy="0"
           dx="0">Zero </tspan><tspan
           id="tspan5282"
           style="font-style:normal;font-variant:normal;font-weight:400;font-size:8.27930069px;font-family:'Times New Roman';fill:#000000;stroke-width:0.22004788"
           dy="0"
           dx="0">oxidation </tspan><tspan
           id="tspan5284"
           style="font-style:normal;font-variant:normal;font-weight:400;font-size:8.27930069px;font-family:'Times New Roman';fill:#000000;stroke-width:0.22004788"
           dy="0"
           dx="0">state</tspan></tspan></text>
    <path
       id="path5290"
       d="m 104.23824,223.29722 -0.68236,-1.11477 c -0.11651,-0.17272 -0.05,-0.39252 0.13314,-0.48673 0.18308,-0.10985 0.41608,-0.0471 0.53257,0.1256 l 0.68237,1.11476 c 0.0999,0.17272 0.0332,0.39254 -0.14979,0.48675 -0.18307,0.10986 -0.41608,0.0471 -0.51593,-0.12561 z m -2.13031,-3.48562 -0.68236,-1.11477 c -0.1165,-0.17271 -0.0499,-0.39252 0.13315,-0.48674 0.18306,-0.10985 0.41606,-0.0471 0.53256,0.12562 l 0.68238,1.11477 c 0.0999,0.17271 0.0332,0.39251 -0.1498,0.50243 -0.18307,0.0942 -0.41607,0.0314 -0.51593,-0.14131 z m -2.130312,-3.46992 -0.682361,-1.11476 c -0.116504,-0.17272 -0.04992,-0.39254 0.133146,-0.50244 0.183074,-0.0943 0.416075,-0.0315 0.532578,0.1413 l 0.682359,1.11478 c 0.0999,0.17271 0.0333,0.39253 -0.14978,0.48674 -0.18308,0.0942 -0.41608,0.0471 -0.515942,-0.12562 z m -2.130304,-3.48562 -0.682364,-1.11477 c -0.116504,-0.17272 -0.04992,-0.39251 0.133145,-0.50243 0.183073,-0.0943 0.416076,-0.0313 0.532576,0.14131 l 0.682364,1.11475 c 0.09986,0.17272 0.03328,0.39254 -0.149788,0.48674 -0.183072,0.10986 -0.416075,0.0471 -0.515933,-0.1256 z m -2.130308,-3.48562 -0.682364,-1.11477 c -0.116503,-0.17271 -0.04992,-0.39253 0.133143,-0.48674 0.183075,-0.10984 0.416076,-0.0471 0.532578,0.12562 l 0.682364,1.11477 c 0.09986,0.17272 0.03328,0.39252 -0.149787,0.50243 -0.183073,0.0942 -0.416077,0.0314 -0.515934,-0.14131 z m -2.130308,-3.48562 -0.599149,-0.95775 c -0.09986,-0.17272 -0.03328,-0.39254 0.149785,-0.48674 0.183077,-0.10986 0.416076,-0.0471 0.515934,0.1256 l 0.599152,0.95776 c 0.09986,0.17271 0.03328,0.40823 -0.149789,0.50245 -0.183072,0.0942 -0.416075,0.0314 -0.515933,-0.14132 z"
       style="fill:#000000;fill-opacity:1;fill-rule:nonzero;stroke:#000000;stroke-width:0.04849545px;stroke-linecap:butt;stroke-linejoin:bevel;stroke-miterlimit:10;stroke-dasharray:none;stroke-opacity:1"
       inkscape:connector-curvature="0" />
    <path
       id="path5292"
       d="m 107.96628,228.68265 c 0,0 -5.6087,-5.46393 -5.6087,-5.46393 0,0 1.44794,0.2669 2.18023,-0.14132 0.74894,-0.40822 1.21494,-1.72711 1.21494,-1.72711 0,0 2.21353,7.33236 2.21353,7.33236 0,0 0,0 0,0"
       style="fill:none;stroke:#000000;stroke-width:0.04849545px;stroke-linecap:round;stroke-linejoin:miter;stroke-miterlimit:2;stroke-dasharray:none;stroke-opacity:1"
       inkscape:connector-curvature="0" />
    <path
       id="path5294"
       d="m 107.96628,228.68265 c 0,0 -5.6087,-5.46393 -5.6087,-5.46393 0,0 1.44794,0.2669 2.18023,-0.14132 0.74894,-0.40822 1.21494,-1.72711 1.21494,-1.72711 0,0 2.21353,7.33236 2.21353,7.33236 0,0 0,0 0,0 z"
       style="fill:#000000;fill-opacity:1;fill-rule:nonzero;stroke:none;stroke-width:0.22004786"
       inkscape:connector-curvature="0" />
    <path
       id="path5296"
       d="m 128.85329,232.5294 -0.11651,-1.28748 c -0.0165,-0.20412 0.1498,-0.37682 0.34951,-0.39253 0.21637,-0.0156 0.39944,0.12561 0.41608,0.32972 l 0.11651,1.27178 c 0.0165,0.20412 -0.13315,0.37682 -0.3495,0.39253 -0.19973,0.0314 -0.3828,-0.1256 -0.41608,-0.31402 z m -0.36615,-4.01946 -0.1165,-1.27177 c -0.0165,-0.20412 0.13313,-0.37682 0.3495,-0.39252 0.19971,-0.0156 0.39942,0.1256 0.41608,0.32971 l 0.1165,1.27178 c 0.0165,0.20411 -0.13316,0.37683 -0.34951,0.39254 -0.21636,0.0313 -0.39944,-0.12562 -0.41608,-0.32974 z m -0.38279,-4.00375 -0.1165,-1.27179 c -0.0166,-0.20409 0.14978,-0.37681 0.3495,-0.39251 0.21635,-0.0156 0.39942,0.12561 0.41608,0.32971 l 0.1165,1.2718 c 0.0166,0.20411 -0.13316,0.37682 -0.34951,0.39251 -0.19972,0.0314 -0.38279,-0.12561 -0.41608,-0.32972 z m -0.36614,-4.00375 -0.11651,-1.27178 c -0.0165,-0.20411 0.13314,-0.37683 0.3495,-0.39252 0.19972,-0.0156 0.39944,0.1256 0.41608,0.32971 l 0.11651,1.27178 c 0.0165,0.20412 -0.13315,0.37682 -0.3495,0.39253 -0.21637,0.0314 -0.39945,-0.12562 -0.41608,-0.32972 z m -0.38279,-4.00375 -0.11651,-1.27177 c -0.0165,-0.20412 0.13314,-0.37683 0.3495,-0.39254 0.21637,-0.0156 0.39944,0.12561 0.41608,0.32972 l 0.11651,1.27178 c 0.0166,0.20411 -0.13315,0.37683 -0.3495,0.39253 -0.19973,0.0314 -0.3828,-0.12561 -0.41608,-0.32972 z m -0.36616,-4.00377 -0.1165,-1.27176 c -0.0166,-0.20412 0.13315,-0.37682 0.34951,-0.39253 0.19972,-0.0156 0.39943,0.12561 0.41607,0.32972 l 0.1165,1.27178 c 0.0165,0.20411 -0.13314,0.37682 -0.3495,0.39254 -0.21635,0.0314 -0.39943,-0.12561 -0.41608,-0.32975 z m -0.38279,-4.00374 -0.1165,-1.27178 c -0.0165,-0.20411 0.13315,-0.37682 0.34951,-0.39252 0.21636,-0.0156 0.39943,0.12562 0.41607,0.32973 l 0.1165,1.27177 c 0.0165,0.20412 -0.13314,0.37683 -0.34951,0.39252 -0.1997,0.0156 -0.38278,-0.12561 -0.41607,-0.32972 z"
       style="fill:#000000;fill-opacity:1;fill-rule:nonzero;stroke:#000000;stroke-width:0.04849545px;stroke-linecap:butt;stroke-linejoin:bevel;stroke-miterlimit:10;stroke-dasharray:none;stroke-opacity:1"
       inkscape:connector-curvature="0" />
    <path
       id="path5298"
       d="m 129.83523,238.8883 c 0,0 -2.64624,-7.19106 -2.64624,-7.19106 0,0 1.19829,0.83216 2.04709,0.75365 0.86543,-0.0785 1.88066,-1.08336 1.88066,-1.08336 0,0 -1.28151,7.52077 -1.28151,7.52077 0,0 0,0 0,0"
       style="fill:none;stroke:#000000;stroke-width:0.04849545px;stroke-linecap:round;stroke-linejoin:miter;stroke-miterlimit:2;stroke-dasharray:none;stroke-opacity:1"
       inkscape:connector-curvature="0" />
    <path
       id="path5300"
       d="m 129.83523,238.8883 c 0,0 -2.64624,-7.19106 -2.64624,-7.19106 0,0 1.19829,0.83216 2.04709,0.75365 0.86543,-0.0785 1.88066,-1.08336 1.88066,-1.08336 0,0 -1.28151,7.52077 -1.28151,7.52077 0,0 0,0 0,0 z"
       style="fill:#000000;fill-opacity:1;fill-rule:nonzero;stroke:none;stroke-width:0.22004786"
       inkscape:connector-curvature="0" />
    <text
       id="text5310"
       y="304.2905"
       x="89.008156"
       style="font-style:normal;font-variant:normal;font-weight:400;font-size:9.04946899px;line-height:125%;font-family:'Times New Roman';text-align:start;letter-spacing:0px;word-spacing:0px;text-anchor:start;fill:#000000;fill-opacity:1;stroke:none;stroke-width:0.22004788"
       xml:space="preserve"
       transform="scale(1.0295625,0.97128632)"><tspan
         id="tspan5308"
         y="304.2905"
         x="89.008156"
         sodipodi:role="line"
         style="stroke-width:0.22004788"><tspan
           id="tspan5302"
           style="font-style:normal;font-variant:normal;font-weight:400;font-size:9.04946899px;font-family:'Times New Roman';fill:#000000;stroke-width:0.22004788"
           dy="0"
           dx="0">+5 </tspan><tspan
           id="tspan5304"
           style="font-style:normal;font-variant:normal;font-weight:400;font-size:9.04946899px;font-family:'Times New Roman';fill:#000000;stroke-width:0.22004788"
           dy="0"
           dx="0">oxidation </tspan><tspan
           id="tspan5306"
           style="font-style:normal;font-variant:normal;font-weight:400;font-size:9.04946899px;font-family:'Times New Roman';fill:#000000;stroke-width:0.22004788"
           dy="0"
           dx="0">state</tspan></tspan></text>
    <path
       id="path5312"
       d="m 148.59193,249.03115 -0.24965,1.27177 c -0.0333,0.1884 -0.23301,0.32972 -0.44936,0.28262 -0.19973,-0.0314 -0.33286,-0.21982 -0.29958,-0.42393 l 0.24965,-1.25608 c 0.0334,-0.20411 0.233,-0.32972 0.44936,-0.29832 0.19971,0.0471 0.3495,0.23552 0.29958,0.42394 z m -0.78224,3.95663 -0.24963,1.25608 c -0.0499,0.20412 -0.24965,0.32973 -0.44937,0.29832 -0.21636,-0.0471 -0.34951,-0.23551 -0.31621,-0.42393 l 0.26629,-1.27176 c 0.0334,-0.18843 0.233,-0.31403 0.44936,-0.28263 0.19972,0.0315 0.33286,0.21981 0.29956,0.42392 z m -0.79885,3.94096 -0.24966,1.27178 c -0.0333,0.1884 -0.23299,0.32971 -0.44936,0.28262 -0.1997,-0.0313 -0.33285,-0.21983 -0.29957,-0.42394 l 0.24965,-1.25607 c 0.0499,-0.20412 0.24965,-0.32972 0.44936,-0.28261 0.21636,0.0314 0.34951,0.2198 0.29958,0.40822 z m -0.78223,3.95665 -0.24964,1.27177 c -0.0499,0.18841 -0.24965,0.31403 -0.44936,0.28261 -0.21637,-0.0313 -0.3495,-0.23551 -0.31622,-0.42391 l 0.2663,-1.27178 c 0.0333,-0.18842 0.23299,-0.31403 0.44934,-0.28262 0.19972,0.0315 0.33287,0.21981 0.29958,0.42393 z m -0.79887,3.95665 -0.24963,1.25607 c -0.0334,0.20411 -0.233,0.32972 -0.44938,0.28262 -0.1997,-0.0315 -0.33285,-0.21982 -0.29956,-0.40822 l 0.24964,-1.27178 c 0.0499,-0.18843 0.24964,-0.32973 0.44937,-0.28262 0.21635,0.0313 0.34951,0.2198 0.29956,0.42393 z m -0.78221,3.94094 -0.24965,1.27178 c -0.0499,0.18841 -0.24964,0.31403 -0.44936,0.28263 -0.21636,-0.0315 -0.34951,-0.21982 -0.29957,-0.42393 l 0.24963,-1.25609 c 0.0333,-0.20411 0.23301,-0.32972 0.44938,-0.29832 0.19971,0.0471 0.33285,0.23552 0.29957,0.42393 z m -0.78223,3.95665 -0.26629,1.25608 c -0.0333,0.20411 -0.233,0.32971 -0.44935,0.29832 -0.19973,-0.0471 -0.33286,-0.23551 -0.29958,-0.42392 l 0.24965,-1.27179 c 0.0499,-0.18841 0.24964,-0.32972 0.44936,-0.28261 0.21636,0.0313 0.34949,0.21982 0.31621,0.42392 z m -0.79886,3.94094 -0.24964,1.2718 c -0.0334,0.18841 -0.23301,0.31401 -0.44937,0.28261 -0.19972,-0.0315 -0.34951,-0.21982 -0.29958,-0.42393 l 0.24964,-1.25609 c 0.0334,-0.2041 0.23301,-0.32971 0.44937,-0.29832 0.19972,0.0472 0.33287,0.23552 0.29958,0.42393 z m -0.78223,3.95666 -0.26629,1.25608 c -0.0334,0.20411 -0.23301,0.32972 -0.43272,0.29832 -0.21635,-0.0471 -0.3495,-0.23551 -0.31622,-0.42393 l 0.24966,-1.27178 c 0.0499,-0.18841 0.24965,-0.31402 0.44935,-0.28262 0.21637,0.0313 0.3495,0.21982 0.31622,0.42393 z m -0.79885,3.94095 -0.18307,0.95777 c -0.0499,0.18841 -0.24966,0.31401 -0.44939,0.2826 -0.21635,-0.0314 -0.34948,-0.21981 -0.29956,-0.42392 l 0.18308,-0.94205 c 0.0333,-0.20411 0.23299,-0.32972 0.44936,-0.29833 0.19971,0.0471 0.3495,0.23551 0.29958,0.42393 z"
       style="fill:#000000;fill-opacity:1;fill-rule:nonzero;stroke:#000000;stroke-width:0.04849545px;stroke-linecap:butt;stroke-linejoin:bevel;stroke-miterlimit:10;stroke-dasharray:none;stroke-opacity:1"
       inkscape:connector-curvature="0" />
    <path
       id="path5314"
       d="m 149.49064,242.65654 c 0,0 0.46601,7.61499 0.46601,7.61499 0,0 -0.89872,-1.11478 -1.74751,-1.2561 -0.84879,-0.157 -2.11367,0.54954 -2.11367,0.54954 0,0 3.39517,-6.90843 3.39517,-6.90843 0,0 0,0 0,0"
       style="fill:none;stroke:#000000;stroke-width:0.04849545px;stroke-linecap:round;stroke-linejoin:miter;stroke-miterlimit:2;stroke-dasharray:none;stroke-opacity:1"
       inkscape:connector-curvature="0" />
    <path
       id="path5316"
       d="m 149.49064,242.65654 c 0,0 0.46601,7.61499 0.46601,7.61499 0,0 -0.89872,-1.11478 -1.74751,-1.2561 -0.84879,-0.157 -2.11367,0.54954 -2.11367,0.54954 0,0 3.39517,-6.90843 3.39517,-6.90843 0,0 0,0 0,0 z"
       style="fill:#000000;fill-opacity:1;fill-rule:nonzero;stroke:none;stroke-width:0.22004786"
       inkscape:connector-curvature="0" />
    <path
       id="path5318"
       d="m 98.945754,256.78742 0.665723,1.13048 c 0.09986,0.1727 0.03328,0.39252 -0.149789,0.48673 -0.183073,0.0942 -0.416077,0.0313 -0.532576,-0.14132 l -0.649079,-1.13046 c -0.09986,-0.17271 -0.03329,-0.39253 0.149788,-0.48673 0.183072,-0.0942 0.416075,-0.0315 0.515933,0.1413 z m 2.063736,3.51703 0.64908,1.13046 c 0.0999,0.17271 0.0333,0.39254 -0.14979,0.48674 -0.18307,0.10997 -0.41607,0.0313 -0.51594,-0.14131 l -0.66571,-1.11476 c -0.0999,-0.18842 -0.0333,-0.40824 0.14978,-0.50244 0.18308,-0.0942 0.41608,-0.0313 0.53258,0.14131 z m 2.0471,3.53271 0.64907,1.13049 c 0.0999,0.17271 0.0333,0.39251 -0.14978,0.48672 -0.18308,0.0943 -0.41608,0.0314 -0.51594,-0.14132 l -0.66572,-1.13046 c -0.0999,-0.17271 -0.0332,-0.39251 0.14979,-0.48673 0.19971,-0.10997 0.43271,-0.0313 0.53258,0.1413 z m 2.04708,3.51703 0.64908,1.13049 c 0.11651,0.17269 0.0332,0.39251 -0.14978,0.48671 -0.18307,0.0942 -0.41608,0.0314 -0.51593,-0.14131 l -0.64908,-1.13046 c -0.11651,-0.17272 -0.0333,-0.39254 0.14978,-0.48673 0.18308,-0.0942 0.41608,-0.0315 0.51593,0.1413 z m 2.0471,3.53273 0.66572,1.11476 c 0.0999,0.17271 0.0333,0.39253 -0.14979,0.50243 -0.19972,0.0943 -0.43272,0.0315 -0.53257,-0.1413 l -0.64909,-1.13048 c -0.0999,-0.1727 -0.0332,-0.39251 0.1498,-0.50243 0.18307,-0.0942 0.41608,-0.0313 0.51593,0.15702 z m 2.04709,3.51701 0.66572,1.13049 c 0.0999,0.17271 0.0332,0.39251 -0.14977,0.48672 -0.18309,0.0943 -0.41609,0.0313 -0.53259,-0.14132 l -0.64908,-1.13046 c -0.0999,-0.17272 -0.0332,-0.39251 0.14978,-0.48673 0.18308,-0.0942 0.41608,-0.0313 0.51594,0.1413 z m 2.06374,3.51702 0.64908,1.13048 c 0.0999,0.1727 0.0332,0.39252 -0.14979,0.48673 -0.18308,0.10986 -0.41608,0.0313 -0.51594,-0.14132 l -0.66571,-1.13046 c -0.0999,-0.17271 -0.0333,-0.39253 0.14979,-0.48674 0.19971,-0.0941 0.43272,-0.0313 0.53257,0.14131 z m 2.04708,3.53273 0.64909,1.13048 c 0.0999,0.17271 0.0333,0.39252 -0.14978,0.48673 -0.18308,0.0942 -0.41608,0.0315 -0.51594,-0.14131 l -0.66572,-1.13048 c -0.0999,-0.17272 -0.0332,-0.39252 0.16643,-0.48673 0.18307,-0.10986 0.41608,-0.0313 0.51592,0.14131 z"
       style="fill:#000000;fill-opacity:1;fill-rule:nonzero;stroke:#000000;stroke-width:0.04849545px;stroke-linecap:butt;stroke-linejoin:bevel;stroke-miterlimit:10;stroke-dasharray:none;stroke-opacity:1"
       inkscape:connector-curvature="0" />
    <path
       id="path5320"
       d="m 95.334216,251.32349 c 0,0 5.492194,5.58954 5.492194,5.58954 0,0 -1.431294,-0.31402 -2.196874,0.0785 -0.748935,0.39252 -1.248225,1.71141 -1.248225,1.71141 0,0 -2.047095,-7.37947 -2.047095,-7.37947 0,0 0,0 0,0"
       style="fill:none;stroke:#000000;stroke-width:0.04849545px;stroke-linecap:round;stroke-linejoin:miter;stroke-miterlimit:2;stroke-dasharray:none;stroke-opacity:1"
       inkscape:connector-curvature="0" />
    <path
       id="path5322"
       d="m 95.334216,251.32349 c 0,0 5.492194,5.58954 5.492194,5.58954 0,0 -1.431294,-0.31402 -2.196874,0.0785 -0.748935,0.39252 -1.248225,1.71141 -1.248225,1.71141 0,0 -2.047095,-7.37947 -2.047095,-7.37947 0,0 0,0 0,0 z"
       style="fill:#000000;fill-opacity:1;fill-rule:nonzero;stroke:none;stroke-width:0.22004786"
       inkscape:connector-curvature="0" />
  </g>
</svg>
