<?xml version="1.0" encoding="UTF-8" standalone="no"?>
<!-- Created with Inkscape (http://www.inkscape.org/) -->

<svg
   xmlns:dc="http://purl.org/dc/elements/1.1/"
   xmlns:cc="http://creativecommons.org/ns#"
   xmlns:rdf="http://www.w3.org/1999/02/22-rdf-syntax-ns#"
   xmlns:svg="http://www.w3.org/2000/svg"
   xmlns="http://www.w3.org/2000/svg"
   xmlns:sodipodi="http://sodipodi.sourceforge.net/DTD/sodipodi-0.dtd"
   xmlns:inkscape="http://www.inkscape.org/namespaces/inkscape"
   width="1000"
   height="600"
   viewBox="0 0 264.58333 158.75001"
   version="1.1"
   id="svg8"
   inkscape:version="0.92.4 (5da689c313, 2019-01-14)"
   sodipodi:docname="Fig3_7_carbondioxide.svg">
  <defs
     id="defs2">
    <pattern
       y="0"
       x="0"
       height="6"
       width="6"
       patternUnits="userSpaceOnUse"
       id="EMFhbasepattern" />
  </defs>
  <sodipodi:namedview
     id="base"
     pagecolor="#ffffff"
     bordercolor="#666666"
     borderopacity="1.0"
     inkscape:pageopacity="0.0"
     inkscape:pageshadow="2"
     inkscape:zoom="1.4"
     inkscape:cx="500.2352"
     inkscape:cy="301.6403"
     inkscape:document-units="mm"
     inkscape:current-layer="layer1"
     showgrid="false"
     units="px"
     inkscape:window-width="2560"
     inkscape:window-height="1017"
     inkscape:window-x="-8"
     inkscape:window-y="-8"
     inkscape:window-maximized="1" />
  <metadata
     id="metadata5">
    <rdf:RDF>
      <cc:Work
         rdf:about="">
        <dc:format>image/svg+xml</dc:format>
        <dc:type
           rdf:resource="http://purl.org/dc/dcmitype/StillImage" />
        <dc:title></dc:title>
      </cc:Work>
    </rdf:RDF>
  </metadata>
  <g
     inkscape:label="Layer 1"
     inkscape:groupmode="layer"
     id="layer1"
     transform="translate(0,-138.24998)">
    <text
       id="text17"
       y="225.34863"
       x="69.040047"
       style="font-style:normal;font-variant:normal;font-weight:400;font-size:15.54427052px;line-height:125%;font-family:Arial;text-align:start;letter-spacing:0px;word-spacing:0px;text-anchor:start;fill:#000000;fill-opacity:1;stroke:none;stroke-width:0.26458332"
       xml:space="preserve"><tspan
         id="tspan15"
         y="225.34863"
         x="69.040047"
         sodipodi:role="line"
         style="stroke-width:0.26458332"><tspan
           id="tspan13"
           style="font-style:normal;font-variant:normal;font-weight:400;font-size:15.54427052px;font-family:Arial;fill:#000000;stroke-width:0.26458332"
           dy="0"
           dx="0">O</tspan></tspan></text>
    <text
       id="text23"
       y="225.34863"
       x="116.31038"
       style="font-style:normal;font-variant:normal;font-weight:400;font-size:15.54427052px;line-height:125%;font-family:Arial;text-align:start;letter-spacing:0px;word-spacing:0px;text-anchor:start;fill:#000000;fill-opacity:1;stroke:none;stroke-width:0.26458332"
       xml:space="preserve"><tspan
         id="tspan21"
         y="225.34863"
         x="116.31038"
         sodipodi:role="line"
         style="stroke-width:0.26458332"><tspan
           id="tspan19"
           style="font-style:normal;font-variant:normal;font-weight:400;font-size:15.54427052px;font-family:Arial;fill:#ff0000;stroke-width:0.26458332"
           dy="0"
           dx="0">C</tspan></tspan></text>
    <path
       id="path25"
       d="M 114.0557,216.36881 H 83.656531"
       style="fill:none;stroke:#000000;stroke-width:0.05831044px;stroke-linecap:butt;stroke-linejoin:miter;stroke-miterlimit:2;stroke-dasharray:none;stroke-opacity:1"
       inkscape:connector-curvature="0" />
    <path
       id="path27"
       d="m 83.578783,215.59134 v 1.55494 h 30.535227 v -1.55494 z"
       style="fill:#000000;fill-opacity:1;fill-rule:evenodd;stroke:none;stroke-width:0.26458332"
       inkscape:connector-curvature="0" />
    <path
       id="path29"
       d="M 114.0557,222.02492 H 83.656531"
       style="fill:none;stroke:#000000;stroke-width:0.05831044px;stroke-linecap:butt;stroke-linejoin:miter;stroke-miterlimit:2;stroke-dasharray:none;stroke-opacity:1"
       inkscape:connector-curvature="0" />
    <path
       id="path31"
       d="m 83.578783,221.22801 v 1.57438 h 30.535227 v -1.57438 z"
       style="fill:#000000;fill-opacity:1;fill-rule:evenodd;stroke:none;stroke-width:0.26458332"
       inkscape:connector-curvature="0" />
    <text
       id="text37"
       y="225.34863"
       x="162.95872"
       style="font-style:normal;font-variant:normal;font-weight:400;font-size:15.54427052px;line-height:125%;font-family:Arial;text-align:start;letter-spacing:0px;word-spacing:0px;text-anchor:start;fill:#000000;fill-opacity:1;stroke:none;stroke-width:0.26458332"
       xml:space="preserve"><tspan
         id="tspan35"
         y="225.34863"
         x="162.95872"
         sodipodi:role="line"
         style="stroke-width:0.26458332"><tspan
           id="tspan33"
           style="font-style:normal;font-variant:normal;font-weight:400;font-size:15.54427052px;font-family:Arial;fill:#0000ff;stroke-width:0.26458332"
           dy="0"
           dx="0">O</tspan></tspan></text>
    <path
       id="path39"
       d="M 160.70405,216.36881 H 130.38262"
       style="fill:none;stroke:#000000;stroke-width:0.05831044px;stroke-linecap:butt;stroke-linejoin:miter;stroke-miterlimit:2;stroke-dasharray:none;stroke-opacity:1"
       inkscape:connector-curvature="0" />
    <path
       id="path41"
       d="m 130.30488,215.59134 v 1.55494 h 30.45748 v -1.55494 z"
       style="fill:#000000;fill-opacity:1;fill-rule:evenodd;stroke:none;stroke-width:0.26458332"
       inkscape:connector-curvature="0" />
    <path
       id="path43"
       d="M 160.70405,222.02492 H 130.38262"
       style="fill:none;stroke:#000000;stroke-width:0.05831044px;stroke-linecap:butt;stroke-linejoin:miter;stroke-miterlimit:2;stroke-dasharray:none;stroke-opacity:1"
       inkscape:connector-curvature="0" />
    <path
       id="path45"
       d="m 130.30488,221.22801 v 1.57438 h 30.45748 v -1.57438 z"
       style="fill:#000000;fill-opacity:1;fill-rule:evenodd;stroke:none;stroke-width:0.26458332"
       inkscape:connector-curvature="0" />
    <path
       id="path47"
       d="m 108.08861,211.50961 c 0,0.73859 -0.60255,1.3217 -1.32171,1.3217 -0.71916,0 -1.30227,-0.58311 -1.30227,-1.3217 0,-0.71917 0.58311,-1.30227 1.30227,-1.30227 0.71916,0 1.32171,0.5831 1.32171,1.30227 z"
       style="fill:#ff0000;fill-opacity:1;fill-rule:evenodd;stroke:none;stroke-width:0.26458332"
       inkscape:connector-curvature="0" />
    <path
       id="path49"
       d="m 108.08861,225.50411 c 0,0.7386 -0.60255,1.32171 -1.32171,1.32171 -0.71916,0 -1.30227,-0.58311 -1.30227,-1.32171 0,-0.71916 0.58311,-1.30227 1.30227,-1.30227 0.71916,0 1.32171,0.58311 1.32171,1.30227 z"
       style="fill:#ff0000;fill-opacity:1;fill-rule:evenodd;stroke:none;stroke-width:0.26458332"
       inkscape:connector-curvature="0" />
    <path
       id="path51"
       d="m 136.07761,211.8206 c 0,0.73859 -0.60254,1.3217 -1.3217,1.3217 -0.71916,0 -1.30227,-0.58311 -1.30227,-1.3217 0,-0.71917 0.58311,-1.30227 1.30227,-1.30227 0.71916,0 1.3217,0.5831 1.3217,1.30227 z"
       style="fill:#ff0000;fill-opacity:1;fill-rule:evenodd;stroke:none;stroke-width:0.26458332"
       inkscape:connector-curvature="0" />
    <path
       id="path53"
       d="m 136.07761,225.50411 c 0,0.7386 -0.60254,1.32171 -1.3217,1.32171 -0.71916,0 -1.30227,-0.58311 -1.30227,-1.32171 0,-0.71916 0.58311,-1.30227 1.30227,-1.30227 0.71916,0 1.3217,0.58311 1.3217,1.30227 z"
       style="fill:#ff0000;fill-opacity:1;fill-rule:evenodd;stroke:none;stroke-width:0.26458332"
       inkscape:connector-curvature="0" />
    <path
       id="path55"
       d="m 154.73695,212.13158 c 0,0.7386 -0.60254,1.32171 -1.3217,1.32171 -0.71916,0 -1.30227,-0.58311 -1.30227,-1.32171 0,-0.71916 0.58311,-1.30226 1.30227,-1.30226 0.71916,0 1.3217,0.5831 1.3217,1.30226 z"
       style="fill:#0000ff;fill-opacity:1;fill-rule:evenodd;stroke:none;stroke-width:0.26458332"
       inkscape:connector-curvature="0" />
    <path
       id="path57"
       d="m 155.04794,226.12609 c 0,0.7386 -0.60254,1.3217 -1.3217,1.3217 -0.71916,0 -1.30227,-0.5831 -1.30227,-1.3217 0,-0.71916 0.58311,-1.30227 1.30227,-1.30227 0.71916,0 1.3217,0.58311 1.3217,1.30227 z"
       style="fill:#0000ff;fill-opacity:1;fill-rule:evenodd;stroke:none;stroke-width:0.26458332"
       inkscape:connector-curvature="0" />
    <path
       id="path59"
       d="m 180.27692,212.67581 c 0,0.71917 -0.60254,1.30227 -1.3217,1.30227 -0.71916,0 -1.30227,-0.5831 -1.30227,-1.30227 0,-0.71916 0.58311,-1.30226 1.30227,-1.30226 0.71916,0 1.3217,0.5831 1.3217,1.30226 z"
       style="fill:#0000ff;fill-opacity:1;fill-rule:evenodd;stroke:none;stroke-width:0.26458332"
       inkscape:connector-curvature="0" />
    <path
       id="path61"
       d="m 175.86477,208.76902 c 0,0.71916 -0.58311,1.30226 -1.30227,1.30226 -0.71916,0 -1.30226,-0.5831 -1.30226,-1.30226 0,-0.7386 0.5831,-1.32171 1.30226,-1.32171 0.71916,0 1.30227,0.58311 1.30227,1.32171 z"
       style="fill:#0000ff;fill-opacity:1;fill-rule:evenodd;stroke:none;stroke-width:0.26458332"
       inkscape:connector-curvature="0" />
    <path
       id="path63"
       d="m 175.3011,229.87739 c 0,0.7386 -0.5831,1.32171 -1.30227,1.32171 -0.71916,0 -1.30226,-0.58311 -1.30226,-1.32171 0,-0.71916 0.5831,-1.30226 1.30226,-1.30226 0.71917,0 1.30227,0.5831 1.30227,1.30226 z"
       style="fill:#0000ff;fill-opacity:1;fill-rule:evenodd;stroke:none;stroke-width:0.26458332"
       inkscape:connector-curvature="0" />
    <path
       id="path65"
       d="m 179.90762,226.20384 c 0,0.7386 -0.5831,1.3217 -1.3217,1.3217 -0.71916,0 -1.30226,-0.5831 -1.30226,-1.3217 0,-0.71917 0.5831,-1.30227 1.30226,-1.30227 0.7386,0 1.3217,0.5831 1.3217,1.30227 z"
       style="fill:#0000ff;fill-opacity:1;fill-rule:evenodd;stroke:none;stroke-width:0.26458332"
       inkscape:connector-curvature="0" />
    <path
       id="path67"
       d="m 101.42178,216.38825 -0.0972,2.07973 v -0.0583 l 0.0972,2.07973 v -0.0972 0.0778 l -1.574384,0.23324 v -0.0972 l -0.116621,-2.17693 0.116621,-2.09918 z m 0.85522,8.04684 0.60254,1.63269 -0.0389,-0.0583 0.85522,1.76875 -0.0389,-0.0777 0.27211,0.44705 -1.36057,0.83578 -0.29156,-0.48592 -0.87465,-1.8465 -0.62198,-1.67156 z m 4.04285,6.99725 0.75804,0.83578 -0.0583,-0.0583 1.43833,1.32171 -0.0583,-0.0389 0.93297,0.68029 -0.95241,1.28283 -0.97184,-0.71916 -1.49663,-1.38002 -0.75804,-0.85522 z m 6.51134,4.80089 0.44705,0.23325 -0.0777,-0.0389 1.86592,0.68029 -0.0583,-0.0194 1.69101,0.42761 -0.40818,1.55495 -1.72987,-0.44705 -1.94368,-0.71916 -0.46648,-0.23324 z m 7.89134,1.72988 0.15549,0.0194 h -0.0583 l 2.07974,-0.0972 h -0.0972 l 1.96312,-0.31099 0.25268,1.57438 -2.00199,0.31099 -2.17693,0.0972 h -0.19436 z m 7.85247,-1.57438 1.61326,-0.77748 -0.0778,0.0194 1.691,-1.03015 -0.0583,0.0583 0.3693,-0.29155 0.9524,1.28283 -0.40817,0.29155 -1.74932,1.06902 -1.63269,0.79691 z m 6.58908,-4.70371 0.77747,-0.85522 -0.0389,0.0583 1.16621,-1.55495 -0.0583,0.0583 0.60254,-0.9524 1.36058,0.81635 -0.62198,0.99127 -1.20508,1.6327 -0.81635,0.87465 z m 4.15948,-6.93894 0.19437,-0.54424 -0.0194,0.0777 0.50535,-1.94368 -0.0194,0.0777 0.25268,-1.63269 1.57439,0.25267 -0.25268,1.67157 -0.5248,2.02143 -0.2138,0.56367 z m 0.97184,-8.02741 v -0.33042 0.0972 l -0.31099,-2.00199 0.0194,0.0778 -0.46648,-1.80763 1.5355,-0.40817 0.48592,1.8465 0.31099,2.07974 0.0194,0.38873 z m -2.31298,-7.63867 -0.95241,-1.57438 0.0389,0.0583 -1.16621,-1.55494 0.0389,0.0583 -0.29155,-0.33043 1.16621,-1.06902 0.33043,0.34986 1.20508,1.61326 0.99128,1.61325 z m -5.30625,-6.12259 -0.93297,-0.71916 0.0583,0.0389 -1.691,-1.03015 0.0778,0.0389 -0.97184,-0.46648 0.69972,-1.41889 0.99128,0.46648 1.74932,1.08847 0.97184,0.71916 z m -7.28881,-3.47919 -0.64141,-0.17493 0.0778,0.0194 -2.02143,-0.31098 h 0.0972 l -1.53551,-0.0583 0.0777,-1.59381 1.57439,0.0777 2.09917,0.31099 0.66085,0.17493 z m -8.06627,-0.23324 -0.44705,0.0777 0.0778,-0.0194 -1.94368,0.50535 0.0583,-0.0194 -1.65213,0.60254 -0.54423,-1.49663 1.691,-0.62198 2.02143,-0.5248 0.48592,-0.0777 z m -7.42486,3.05158 -1.49664,1.10789 0.0583,-0.0389 -1.43832,1.30227 0.0583,-0.0583 -0.27212,0.31099 -1.18564,-1.06903 0.29155,-0.33042 1.49663,-1.36058 1.55495,-1.14677 z m -5.5978,5.85048 -0.64142,1.03015 0.0389,-0.0777 -0.85522,1.78819 0.0389,-0.0777 -0.34986,0.97184 -1.49663,-0.54423 0.3693,-0.99128 0.87465,-1.86593 0.66086,-1.06903 z m -2.76003,7.58035 -0.11662,0.75804 -1.574384,-0.25268 0.116623,-0.75803 z"
       style="fill:#ff0000;fill-opacity:1;fill-rule:nonzero;stroke:#ff0000;stroke-width:0.05831044px;stroke-linecap:butt;stroke-linejoin:bevel;stroke-miterlimit:10;stroke-dasharray:none;stroke-opacity:1"
       inkscape:connector-curvature="0" />
    <path
       id="path69"
       d="m 147.44815,216.69923 -0.0972,2.07974 v -0.0583 l 0.0972,2.07974 v -0.0972 0.0778 l -1.57439,0.23324 v -0.0972 l -0.11662,-2.17692 0.11662,-2.09917 z m 0.85522,8.04685 0.60254,1.63269 -0.0389,-0.0583 0.85521,1.76875 -0.0389,-0.0777 0.27212,0.44705 -1.36058,0.83578 -0.29155,-0.48592 -0.87466,-1.8465 -0.62198,-1.67156 z m 4.04285,6.99725 0.75804,0.83578 -0.0583,-0.0583 1.43832,1.3217 -0.0583,-0.0389 0.93297,0.68029 -0.9524,1.28283 -0.97184,-0.71916 -1.49664,-1.38002 -0.75803,-0.85522 z m 6.51134,4.80089 0.44704,0.23324 -0.0777,-0.0389 1.86593,0.68029 -0.0583,-0.0194 1.691,0.42761 -0.40817,1.55495 -1.72988,-0.44705 -1.94368,-0.71916 -0.46648,-0.23324 z m 7.89134,1.72988 0.1555,0.0194 h -0.0583 l 2.07974,-0.0972 h -0.0972 l 1.96312,-0.31099 0.25268,1.57438 -2.00199,0.31099 -2.17693,0.0972 h -0.19436 z m 7.85247,-1.57438 1.61326,-0.77748 -0.0777,0.0194 1.69101,-1.03015 -0.0583,0.0583 0.36929,-0.29155 0.95241,1.28283 -0.40817,0.29155 -1.74932,1.06902 -1.63269,0.79691 z m 6.58908,-4.70371 0.77748,-0.85522 -0.0389,0.0583 1.16621,-1.55495 -0.0583,0.0583 0.60254,-0.9524 1.36058,0.81635 -0.62198,0.99127 -1.20508,1.63269 -0.81635,0.87466 z m 4.15948,-6.93895 0.19437,-0.54423 -0.0194,0.0777 0.50536,-1.94368 -0.0194,0.0777 0.25268,-1.63269 1.57439,0.25267 -0.25268,1.67157 -0.5248,2.02143 -0.2138,0.56366 z m 0.97184,-8.0274 v -0.33043 0.0972 l -0.31099,-2.00199 0.0194,0.0778 -0.46648,-1.80763 1.53551,-0.40817 0.48592,1.8465 0.31098,2.07973 0.0194,0.38874 z m -2.31298,-7.63867 -0.9524,-1.57438 0.0389,0.0583 -1.16621,-1.55494 0.0389,0.0583 -0.29156,-0.33043 1.16621,-1.06902 0.33043,0.34986 1.20508,1.61325 0.99128,1.61326 z m -5.30625,-6.12259 -0.93296,-0.71916 0.0583,0.0389 -1.69101,-1.03015 0.0777,0.0389 -0.97184,-0.46648 0.69973,-1.41889 0.99127,0.46648 1.74932,1.08847 0.97184,0.71916 z m -7.2888,-3.47919 -0.64142,-0.17493 0.0778,0.0194 -2.02143,-0.31099 h 0.0972 l -1.53551,-0.0583 0.0777,-1.59382 1.57439,0.0777 2.09917,0.31099 0.66085,0.17493 z m -8.06628,-0.23325 -0.44705,0.0778 0.0778,-0.0194 -1.94368,0.50535 0.0583,-0.0194 -1.65213,0.60254 -0.54423,-1.49664 1.691,-0.62198 2.02143,-0.52479 0.48592,-0.0777 z m -7.42486,3.05158 -1.49664,1.10791 0.0583,-0.0389 -1.43832,1.30227 0.0583,-0.0583 -0.27211,0.31099 -1.18565,-1.06903 0.29155,-0.33042 1.49664,-1.36058 1.55494,-1.14677 z m -5.59781,5.85049 -0.64141,1.03015 0.0389,-0.0777 -0.85521,1.78819 0.0389,-0.0777 -0.34987,0.97184 -1.49663,-0.54423 0.3693,-0.99128 0.87466,-1.86593 0.66085,-1.06903 z m -2.76002,7.58035 -0.11662,0.75804 -1.57439,-0.25268 0.11663,-0.75803 z"
       style="fill:#0000ff;fill-opacity:1;fill-rule:nonzero;stroke:#0000ff;stroke-width:0.05831044px;stroke-linecap:butt;stroke-linejoin:bevel;stroke-miterlimit:10;stroke-dasharray:none;stroke-opacity:1"
       inkscape:connector-curvature="0" />
    <text
       id="text125"
       y="151.33322"
       x="44.782906"
       style="font-style:normal;font-variant:normal;font-weight:400;font-size:9.95494747px;line-height:115.58667421%;font-family:'Times New Roman';text-align:start;letter-spacing:0px;word-spacing:0px;text-anchor:start;fill:#000000;fill-opacity:1;stroke:none;stroke-width:0.26458332"
       xml:space="preserve"><tspan
         id="tspan87"
         y="151.33322"
         x="44.782906"
         sodipodi:role="line"
         style="stroke-width:0.26458332"><tspan
           id="tspan71"
           style="font-style:normal;font-variant:normal;font-weight:400;font-size:9.95494747px;font-family:'Times New Roman';fill:#ff0000;stroke-width:0.26458332"
           dy="0"
           dx="0">Four </tspan><tspan
           id="tspan73"
           style="font-style:normal;font-variant:normal;font-weight:400;font-size:9.95494747px;font-family:'Times New Roman';fill:#ff0000;stroke-width:0.26458332"
           dy="0"
           dx="0">valence </tspan><tspan
           id="tspan75"
           style="font-style:normal;font-variant:normal;font-weight:400;font-size:9.95494747px;font-family:'Times New Roman';fill:#ff0000;stroke-width:0.26458332"
           dy="0"
           dx="0">electrons </tspan><tspan
           id="tspan77"
           style="font-style:normal;font-variant:normal;font-weight:400;font-size:9.95494747px;font-family:'Times New Roman';fill:#ff0000;stroke-width:0.26458332"
           dy="0"
           dx="0">around </tspan><tspan
           id="tspan79"
           style="font-style:normal;font-variant:normal;font-weight:400;font-size:9.95494747px;font-family:'Times New Roman';fill:#ff0000;stroke-width:0.26458332"
           dy="0"
           dx="0">C, </tspan><tspan
           id="tspan81"
           style="font-style:normal;font-variant:normal;font-weight:400;font-size:9.95494747px;font-family:'Times New Roman';fill:#ff0000;stroke-width:0.26458332"
           dy="0"
           dx="0">which </tspan><tspan
           id="tspan83"
           style="font-style:normal;font-variant:normal;font-weight:400;font-size:9.95494747px;font-family:'Times New Roman';fill:#ff0000;stroke-width:0.26458332"
           dy="0"
           dx="0">is </tspan><tspan
           id="tspan85"
           style="font-style:normal;font-variant:normal;font-weight:400;font-size:9.95494747px;font-family:'Times New Roman';fill:#ff0000;stroke-width:0.26458332"
           dy="0"
           dx="0">the </tspan></tspan><tspan
         id="tspan107"
         y="162.83981"
         x="44.782906"
         sodipodi:role="line"
         style="stroke-width:0.26458332"><tspan
           id="tspan89"
           style="font-style:normal;font-variant:normal;font-weight:400;font-size:9.95494747px;font-family:'Times New Roman';fill:#ff0000;stroke-width:0.26458332"
           dy="0"
           dx="0">same </tspan><tspan
           id="tspan91"
           style="font-style:normal;font-variant:normal;font-weight:400;font-size:9.95494747px;font-family:'Times New Roman';fill:#ff0000;stroke-width:0.26458332"
           dy="0"
           dx="0">as </tspan><tspan
           id="tspan93"
           style="font-style:normal;font-variant:normal;font-weight:400;font-size:9.95494747px;font-family:'Times New Roman';fill:#ff0000;stroke-width:0.26458332"
           dy="0"
           dx="0">the </tspan><tspan
           id="tspan95"
           style="font-style:normal;font-variant:normal;font-weight:400;font-size:9.95494747px;font-family:'Times New Roman';fill:#ff0000;stroke-width:0.26458332"
           dy="0"
           dx="0">number </tspan><tspan
           id="tspan97"
           style="font-style:normal;font-variant:normal;font-weight:400;font-size:9.95494747px;font-family:'Times New Roman';fill:#ff0000;stroke-width:0.26458332"
           dy="0"
           dx="0">found </tspan><tspan
           id="tspan99"
           style="font-style:normal;font-variant:normal;font-weight:400;font-size:9.95494747px;font-family:'Times New Roman';fill:#ff0000;stroke-width:0.26458332"
           dy="0"
           dx="0">around </tspan><tspan
           id="tspan101"
           style="font-style:normal;font-variant:normal;font-weight:400;font-size:9.95494747px;font-family:'Times New Roman';fill:#ff0000;stroke-width:0.26458332"
           dy="0"
           dx="0">a </tspan><tspan
           id="tspan103"
           style="font-style:normal;font-variant:normal;font-weight:400;font-size:9.95494747px;font-family:'Times New Roman';fill:#ff0000;stroke-width:0.26458332"
           dy="0"
           dx="0">neutral </tspan><tspan
           id="tspan105"
           style="font-style:normal;font-variant:normal;font-weight:400;font-size:9.95494747px;font-family:'Times New Roman';fill:#ff0000;stroke-width:0.26458332"
           dy="0"
           dx="0">C </tspan></tspan><tspan
         id="tspan123"
         y="174.34641"
         x="44.782906"
         sodipodi:role="line"
         style="stroke-width:0.26458332"><tspan
           id="tspan109"
           style="font-style:normal;font-variant:normal;font-weight:400;font-size:9.95494747px;font-family:'Times New Roman';fill:#ff0000;stroke-width:0.26458332"
           dy="0"
           dx="0">atom. </tspan><tspan
           id="tspan111"
           style="font-style:normal;font-variant:normal;font-weight:400;font-size:9.95494747px;font-family:'Times New Roman';fill:#ff0000;stroke-width:0.26458332"
           dy="0"
           dx="0">Hence, </tspan><tspan
           id="tspan113"
           style="font-style:normal;font-variant:normal;font-weight:400;font-size:9.95494747px;font-family:'Times New Roman';fill:#ff0000;stroke-width:0.26458332"
           dy="0"
           dx="0">the </tspan><tspan
           id="tspan115"
           style="font-style:normal;font-variant:normal;font-weight:400;font-size:9.95494747px;font-family:'Times New Roman';fill:#ff0000;stroke-width:0.26458332"
           dy="0"
           dx="0">formal </tspan><tspan
           id="tspan117"
           style="font-style:normal;font-variant:normal;font-weight:400;font-size:9.95494747px;font-family:'Times New Roman';fill:#ff0000;stroke-width:0.26458332"
           dy="0"
           dx="0">charge </tspan><tspan
           id="tspan119"
           style="font-style:normal;font-variant:normal;font-weight:400;font-size:9.95494747px;font-family:'Times New Roman';fill:#ff0000;stroke-width:0.26458332"
           dy="0"
           dx="0">is </tspan><tspan
           id="tspan121"
           style="font-style:normal;font-variant:normal;font-weight:400;font-size:9.95494747px;font-family:'Times New Roman';fill:#ff0000;stroke-width:0.26458332"
           dy="0"
           dx="0">zero</tspan></tspan></text>
    <text
       id="text177"
       y="264.53323"
       x="45.404884"
       style="font-style:normal;font-variant:normal;font-weight:400;font-size:9.95494747px;line-height:115.58667421%;font-family:'Times New Roman';text-align:start;letter-spacing:0px;word-spacing:0px;text-anchor:start;fill:#000000;fill-opacity:1;stroke:none;stroke-width:0.26458332"
       xml:space="preserve"><tspan
         id="tspan141"
         y="264.53323"
         x="45.404884"
         sodipodi:role="line"
         style="stroke-width:0.26458332"><tspan
           id="tspan127"
           style="font-style:normal;font-variant:normal;font-weight:400;font-size:9.95494747px;font-family:'Times New Roman';fill:#0000ff;stroke-width:0.26458332"
           dy="0"
           dx="0">Six </tspan><tspan
           id="tspan129"
           style="font-style:normal;font-variant:normal;font-weight:400;font-size:9.95494747px;font-family:'Times New Roman';fill:#0000ff;stroke-width:0.26458332"
           dy="0"
           dx="0">valence </tspan><tspan
           id="tspan131"
           style="font-style:normal;font-variant:normal;font-weight:400;font-size:9.95494747px;font-family:'Times New Roman';fill:#0000ff;stroke-width:0.26458332"
           dy="0"
           dx="0">electrons </tspan><tspan
           id="tspan133"
           style="font-style:normal;font-variant:normal;font-weight:400;font-size:9.95494747px;font-family:'Times New Roman';fill:#0000ff;stroke-width:0.26458332"
           dy="0"
           dx="0">around </tspan><tspan
           id="tspan135"
           style="font-style:normal;font-variant:normal;font-weight:400;font-size:9.95494747px;font-family:'Times New Roman';fill:#0000ff;stroke-width:0.26458332"
           dy="0"
           dx="0">O, </tspan><tspan
           id="tspan137"
           style="font-style:normal;font-variant:normal;font-weight:400;font-size:9.95494747px;font-family:'Times New Roman';fill:#0000ff;stroke-width:0.26458332"
           dy="0"
           dx="0">as </tspan><tspan
           id="tspan139"
           style="font-style:normal;font-variant:normal;font-weight:400;font-size:9.95494747px;font-family:'Times New Roman';fill:#0000ff;stroke-width:0.26458332"
           dy="0"
           dx="0">is </tspan></tspan><tspan
         id="tspan157"
         y="276.03983"
         x="45.404884"
         sodipodi:role="line"
         style="stroke-width:0.26458332"><tspan
           id="tspan143"
           style="font-style:normal;font-variant:normal;font-weight:400;font-size:9.95494747px;font-family:'Times New Roman';fill:#0000ff;stroke-width:0.26458332"
           dy="0"
           dx="0">found </tspan><tspan
           id="tspan145"
           style="font-style:normal;font-variant:normal;font-weight:400;font-size:9.95494747px;font-family:'Times New Roman';fill:#0000ff;stroke-width:0.26458332"
           dy="0"
           dx="0">around </tspan><tspan
           id="tspan147"
           style="font-style:normal;font-variant:normal;font-weight:400;font-size:9.95494747px;font-family:'Times New Roman';fill:#0000ff;stroke-width:0.26458332"
           dy="0"
           dx="0">a </tspan><tspan
           id="tspan149"
           style="font-style:normal;font-variant:normal;font-weight:400;font-size:9.95494747px;font-family:'Times New Roman';fill:#0000ff;stroke-width:0.26458332"
           dy="0"
           dx="0">neutral </tspan><tspan
           id="tspan151"
           style="font-style:normal;font-variant:normal;font-weight:400;font-size:9.95494747px;font-family:'Times New Roman';fill:#0000ff;stroke-width:0.26458332"
           dy="0"
           dx="0">O </tspan><tspan
           id="tspan153"
           style="font-style:normal;font-variant:normal;font-weight:400;font-size:9.95494747px;font-family:'Times New Roman';fill:#0000ff;stroke-width:0.26458332"
           dy="0"
           dx="0">atom. </tspan><tspan
           id="tspan155"
           style="font-style:normal;font-variant:normal;font-weight:400;font-size:9.95494747px;font-family:'Times New Roman';fill:#0000ff;stroke-width:0.26458332"
           dy="0"
           dx="0">Therefore, </tspan></tspan><tspan
         id="tspan175"
         y="287.54642"
         x="45.404884"
         sodipodi:role="line"
         style="stroke-width:0.26458332"><tspan
           id="tspan159"
           style="font-style:normal;font-variant:normal;font-weight:400;font-size:9.95494747px;font-family:'Times New Roman';fill:#0000ff;stroke-width:0.26458332"
           dy="0"
           dx="0">the </tspan><tspan
           id="tspan161"
           style="font-style:normal;font-variant:normal;font-weight:400;font-size:9.95494747px;font-family:'Times New Roman';fill:#0000ff;stroke-width:0.26458332"
           dy="0"
           dx="0">formal </tspan><tspan
           id="tspan163"
           style="font-style:normal;font-variant:normal;font-weight:400;font-size:9.95494747px;font-family:'Times New Roman';fill:#0000ff;stroke-width:0.26458332"
           dy="0"
           dx="0">charge </tspan><tspan
           id="tspan165"
           style="font-style:normal;font-variant:normal;font-weight:400;font-size:9.95494747px;font-family:'Times New Roman';fill:#0000ff;stroke-width:0.26458332"
           dy="0"
           dx="0">of </tspan><tspan
           id="tspan167"
           style="font-style:normal;font-variant:normal;font-weight:400;font-size:9.95494747px;font-family:'Times New Roman';fill:#0000ff;stroke-width:0.26458332"
           dy="0"
           dx="0">O </tspan><tspan
           id="tspan169"
           style="font-style:normal;font-variant:normal;font-weight:400;font-size:9.95494747px;font-family:'Times New Roman';fill:#0000ff;stroke-width:0.26458332"
           dy="0"
           dx="0">is </tspan><tspan
           id="tspan171"
           style="font-style:normal;font-variant:normal;font-weight:400;font-size:9.95494747px;font-family:'Times New Roman';fill:#0000ff;stroke-width:0.26458332"
           dy="0"
           dx="0">also </tspan><tspan
           id="tspan173"
           style="font-style:normal;font-variant:normal;font-weight:400;font-size:9.95494747px;font-family:'Times New Roman';fill:#0000ff;stroke-width:0.26458332"
           dy="0"
           dx="0">zero</tspan></tspan></text>
  </g>
</svg>
