<?xml version="1.0" encoding="UTF-8" standalone="no"?>
<!-- Created with Inkscape (http://www.inkscape.org/) -->

<svg
   xmlns:dc="http://purl.org/dc/elements/1.1/"
   xmlns:cc="http://creativecommons.org/ns#"
   xmlns:rdf="http://www.w3.org/1999/02/22-rdf-syntax-ns#"
   xmlns:svg="http://www.w3.org/2000/svg"
   xmlns="http://www.w3.org/2000/svg"
   xmlns:sodipodi="http://sodipodi.sourceforge.net/DTD/sodipodi-0.dtd"
   xmlns:inkscape="http://www.inkscape.org/namespaces/inkscape"
   width="1000"
   height="400"
   viewBox="0 0 264.58333 105.83334"
   version="1.1"
   id="svg308"
   inkscape:version="0.92.4 (5da689c313, 2019-01-14)"
   sodipodi:docname="Fig4_2_carbontet.svg">
  <defs
     id="defs302">
    <pattern
       y="0"
       x="0"
       height="6"
       width="6"
       patternUnits="userSpaceOnUse"
       id="EMFhbasepattern" />
  </defs>
  <sodipodi:namedview
     id="base"
     pagecolor="#ffffff"
     bordercolor="#666666"
     borderopacity="1.0"
     inkscape:pageopacity="0.0"
     inkscape:pageshadow="2"
     inkscape:zoom="1.4"
     inkscape:cx="565.82715"
     inkscape:cy="194.22923"
     inkscape:document-units="mm"
     inkscape:current-layer="layer1"
     showgrid="false"
     units="px"
     inkscape:window-width="2560"
     inkscape:window-height="1017"
     inkscape:window-x="-8"
     inkscape:window-y="-8"
     inkscape:window-maximized="1" />
  <metadata
     id="metadata305">
    <rdf:RDF>
      <cc:Work
         rdf:about="">
        <dc:format>image/svg+xml</dc:format>
        <dc:type
           rdf:resource="http://purl.org/dc/dcmitype/StillImage" />
        <dc:title></dc:title>
      </cc:Work>
    </rdf:RDF>
  </metadata>
  <g
     inkscape:label="Layer 1"
     inkscape:groupmode="layer"
     id="layer1"
     transform="translate(0,-191.16665)">
    <text
       id="text317"
       y="246.24062"
       x="124.03798"
       style="font-style:normal;font-variant:normal;font-weight:400;font-size:9.64075565px;line-height:125%;font-family:Arial;text-align:start;letter-spacing:0px;word-spacing:0px;text-anchor:start;fill:#000000;fill-opacity:1;stroke:none;stroke-width:0.26458332"
       xml:space="preserve"><tspan
         id="tspan315"
         y="246.24062"
         x="124.03798"
         sodipodi:role="line"
         style="stroke-width:0.26458332"><tspan
           id="tspan313"
           style="font-style:normal;font-variant:normal;font-weight:400;font-size:9.64075565px;font-family:Arial;fill:#000000;stroke-width:0.26458332"
           dy="0"
           dx="0">C</tspan></tspan></text>
    <text
       id="text323"
       y="217.62964"
       x="124.03798"
       style="font-style:normal;font-variant:normal;font-weight:400;font-size:9.64075565px;line-height:125%;font-family:Arial;text-align:start;letter-spacing:0px;word-spacing:0px;text-anchor:start;fill:#000000;fill-opacity:1;stroke:none;stroke-width:0.26458332"
       xml:space="preserve"><tspan
         id="tspan321"
         y="217.62964"
         x="124.03798"
         sodipodi:role="line"
         style="stroke-width:0.26458332"><tspan
           id="tspan319"
           style="font-style:normal;font-variant:normal;font-weight:400;font-size:9.64075565px;font-family:Arial;fill:#000000;stroke-width:0.26458332"
           dy="0"
           dx="0">Cl</tspan></tspan></text>
    <path
       id="path325"
       d="M 127.36167,219.55389 V 237.2997"
       style="fill:none;stroke:#000000;stroke-width:0.05831044px;stroke-linecap:butt;stroke-linejoin:miter;stroke-miterlimit:2;stroke-dasharray:none;stroke-opacity:1"
       inkscape:connector-curvature="0" />
    <path
       id="path327"
       d="m 126.89519,219.47614 v 17.9013 h 0.9524 v -17.9013 z"
       style="fill:#000000;fill-opacity:1;fill-rule:evenodd;stroke:none;stroke-width:0.26458332"
       inkscape:connector-curvature="0" />
    <text
       id="text333"
       y="246.24062"
       x="152.64896"
       style="font-style:normal;font-variant:normal;font-weight:400;font-size:9.64075565px;line-height:125%;font-family:Arial;text-align:start;letter-spacing:0px;word-spacing:0px;text-anchor:start;fill:#000000;fill-opacity:1;stroke:none;stroke-width:0.26458332"
       xml:space="preserve"><tspan
         id="tspan331"
         y="246.24062"
         x="152.64896"
         sodipodi:role="line"
         style="stroke-width:0.26458332"><tspan
           id="tspan329"
           style="font-style:normal;font-variant:normal;font-weight:400;font-size:9.64075565px;font-family:Arial;fill:#000000;stroke-width:0.26458332"
           dy="0"
           dx="0">Cl</tspan></tspan></text>
    <path
       id="path335"
       d="M 151.05514,242.31439 H 132.37637"
       style="fill:none;stroke:#000000;stroke-width:0.05831044px;stroke-linecap:butt;stroke-linejoin:miter;stroke-miterlimit:2;stroke-dasharray:none;stroke-opacity:1"
       inkscape:connector-curvature="0" />
    <path
       id="path337"
       d="m 132.29862,241.82847 v 0.95241 h 18.83427 v -0.95241 z"
       style="fill:#000000;fill-opacity:1;fill-rule:evenodd;stroke:none;stroke-width:0.26458332"
       inkscape:connector-curvature="0" />
    <text
       id="text343"
       y="246.24062"
       x="90.762146"
       style="font-style:normal;font-variant:normal;font-weight:400;font-size:9.64075565px;line-height:125%;font-family:Arial;text-align:start;letter-spacing:0px;word-spacing:0px;text-anchor:start;fill:#000000;fill-opacity:1;stroke:none;stroke-width:0.26458332"
       xml:space="preserve"><tspan
         id="tspan341"
         y="246.24062"
         x="90.762146"
         sodipodi:role="line"
         style="stroke-width:0.26458332"><tspan
           id="tspan339"
           style="font-style:normal;font-variant:normal;font-weight:400;font-size:9.64075565px;font-family:Arial;fill:#000000;stroke-width:0.26458332"
           dy="0"
           dx="0">Cl</tspan></tspan></text>
    <path
       id="path345"
       d="m 101.0831,242.31439 h 21.36106"
       style="fill:none;stroke:#000000;stroke-width:0.05831044px;stroke-linecap:butt;stroke-linejoin:miter;stroke-miterlimit:2;stroke-dasharray:none;stroke-opacity:1"
       inkscape:connector-curvature="0" />
    <path
       id="path347"
       d="m 101.00535,241.82847 v 0.95241 h 21.51655 v -0.95241 z"
       style="fill:#000000;fill-opacity:1;fill-rule:evenodd;stroke:none;stroke-width:0.26458332"
       inkscape:connector-curvature="0" />
    <text
       id="text353"
       y="274.85162"
       x="124.03798"
       style="font-style:normal;font-variant:normal;font-weight:400;font-size:9.64075565px;line-height:125%;font-family:Arial;text-align:start;letter-spacing:0px;word-spacing:0px;text-anchor:start;fill:#000000;fill-opacity:1;stroke:none;stroke-width:0.26458332"
       xml:space="preserve"><tspan
         id="tspan351"
         y="274.85162"
         x="124.03798"
         sodipodi:role="line"
         style="stroke-width:0.26458332"><tspan
           id="tspan349"
           style="font-style:normal;font-variant:normal;font-weight:400;font-size:9.64075565px;font-family:Arial;fill:#000000;stroke-width:0.26458332"
           dy="0"
           dx="0">Cl</tspan></tspan></text>
    <path
       id="path355"
       d="M 127.36167,265.91069 V 248.2815"
       style="fill:none;stroke:#000000;stroke-width:0.05831044px;stroke-linecap:butt;stroke-linejoin:miter;stroke-miterlimit:2;stroke-dasharray:none;stroke-opacity:1"
       inkscape:connector-curvature="0" />
    <path
       id="path357"
       d="m 126.89519,248.22319 v 17.76524 h 0.9524 v -17.76524 z"
       style="fill:#000000;fill-opacity:1;fill-rule:evenodd;stroke:none;stroke-width:0.26458332"
       inkscape:connector-curvature="0" />
    <path
       id="path359"
       d="m 135.95274,215.51103 c 0,0.44705 -0.3693,0.79691 -0.79691,0.79691 -0.44705,0 -0.79691,-0.34986 -0.79691,-0.79691 0,-0.42761 0.34986,-0.79691 0.79691,-0.79691 0.42761,0 0.79691,0.3693 0.79691,0.79691 z"
       style="fill:#000000;fill-opacity:1;fill-rule:evenodd;stroke:none;stroke-width:0.26458332"
       inkscape:connector-curvature="0" />
    <path
       id="path361"
       d="m 135.97218,211.93466 c 0,0.44704 -0.3693,0.79691 -0.79691,0.79691 -0.44705,0 -0.79691,-0.34987 -0.79691,-0.79691 0,-0.42761 0.34986,-0.79691 0.79691,-0.79691 0.42761,0 0.79691,0.3693 0.79691,0.79691 z"
       style="fill:#000000;fill-opacity:1;fill-rule:evenodd;stroke:none;stroke-width:0.26458332"
       inkscape:connector-curvature="0" />
    <path
       id="path363"
       d="m 131.30734,207.01714 c 0,0.44705 -0.34986,0.79691 -0.79691,0.79691 -0.44704,0 -0.79691,-0.34986 -0.79691,-0.79691 0,-0.44704 0.34987,-0.79691 0.79691,-0.79691 0.44705,0 0.79691,0.34987 0.79691,0.79691 z"
       style="fill:#000000;fill-opacity:1;fill-rule:evenodd;stroke:none;stroke-width:0.26458332"
       inkscape:connector-curvature="0" />
    <path
       id="path365"
       d="m 127.73097,206.86165 c 0,0.44704 -0.34986,0.79691 -0.79691,0.79691 -0.44705,0 -0.79691,-0.34987 -0.79691,-0.79691 0,-0.44705 0.34986,-0.79691 0.79691,-0.79691 0.44705,0 0.79691,0.34986 0.79691,0.79691 z"
       style="fill:#000000;fill-opacity:1;fill-rule:evenodd;stroke:none;stroke-width:0.26458332"
       inkscape:connector-curvature="0" />
    <path
       id="path367"
       d="m 122.54134,211.74029 c 0,0.42761 -0.34986,0.79691 -0.79691,0.79691 -0.42761,0 -0.79691,-0.3693 -0.79691,-0.79691 0,-0.44705 0.3693,-0.79691 0.79691,-0.79691 0.44705,0 0.79691,0.34986 0.79691,0.79691 z"
       style="fill:#000000;fill-opacity:1;fill-rule:evenodd;stroke:none;stroke-width:0.26458332"
       inkscape:connector-curvature="0" />
    <path
       id="path369"
       d="m 122.46359,215.31666 c 0,0.42761 -0.3693,0.79691 -0.79691,0.79691 -0.44705,0 -0.79691,-0.3693 -0.79691,-0.79691 0,-0.44704 0.34986,-0.79691 0.79691,-0.79691 0.42761,0 0.79691,0.34987 0.79691,0.79691 z"
       style="fill:#000000;fill-opacity:1;fill-rule:evenodd;stroke:none;stroke-width:0.26458332"
       inkscape:connector-curvature="0" />
    <path
       id="path371"
       d="m 97.837145,235.55039 c 0,0.44704 -0.34986,0.7969 -0.79691,0.7969 -0.42761,0 -0.79691,-0.34986 -0.79691,-0.7969 0,-0.42762 0.3693,-0.77748 0.79691,-0.77748 0.44705,0 0.79691,0.34986 0.79691,0.77748 z"
       style="fill:#000000;fill-opacity:1;fill-rule:evenodd;stroke:none;stroke-width:0.26458332"
       inkscape:connector-curvature="0" />
    <path
       id="path373"
       d="m 94.260771,235.58926 c 0,0.42761 -0.349862,0.77747 -0.796909,0.77747 -0.447047,0 -0.796909,-0.34986 -0.796909,-0.77747 0,-0.44705 0.349862,-0.79691 0.796909,-0.79691 0.447047,0 0.796909,0.34986 0.796909,0.79691 z"
       style="fill:#000000;fill-opacity:1;fill-rule:evenodd;stroke:none;stroke-width:0.26458332"
       inkscape:connector-curvature="0" />
    <path
       id="path375"
       d="m 89.323821,240.56508 c 0,0.42761 -0.3693,0.79691 -0.79691,0.79691 -0.447046,0 -0.796909,-0.3693 -0.796909,-0.79691 0,-0.44704 0.349863,-0.79691 0.796909,-0.79691 0.42761,0 0.79691,0.34987 0.79691,0.79691 z"
       style="fill:#000000;fill-opacity:1;fill-rule:evenodd;stroke:none;stroke-width:0.26458332"
       inkscape:connector-curvature="0" />
    <path
       id="path377"
       d="m 89.343258,244.14146 c 0,0.42761 -0.3693,0.79691 -0.79691,0.79691 -0.447046,0 -0.796909,-0.3693 -0.796909,-0.79691 0,-0.44705 0.349863,-0.79691 0.796909,-0.79691 0.42761,0 0.79691,0.34986 0.79691,0.79691 z"
       style="fill:#000000;fill-opacity:1;fill-rule:evenodd;stroke:none;stroke-width:0.26458332"
       inkscape:connector-curvature="0" />
    <path
       id="path379"
       d="m 94.260771,249.05897 c 0,0.44705 -0.369299,0.79691 -0.796909,0.79691 -0.447047,0 -0.796909,-0.34986 -0.796909,-0.79691 0,-0.42761 0.349862,-0.79691 0.796909,-0.79691 0.42761,0 0.796909,0.3693 0.796909,0.79691 z"
       style="fill:#000000;fill-opacity:1;fill-rule:evenodd;stroke:none;stroke-width:0.26458332"
       inkscape:connector-curvature="0" />
    <path
       id="path381"
       d="m 97.837145,249.09784 c 0,0.42761 -0.3693,0.77748 -0.79691,0.77748 -0.44705,0 -0.79691,-0.34987 -0.79691,-0.77748 0,-0.44704 0.34986,-0.79691 0.79691,-0.79691 0.42761,0 0.79691,0.34987 0.79691,0.79691 z"
       style="fill:#000000;fill-opacity:1;fill-rule:evenodd;stroke:none;stroke-width:0.26458332"
       inkscape:connector-curvature="0" />
    <path
       id="path383"
       d="m 122.48303,269.02058 c 0,0.44704 -0.34986,0.79691 -0.77747,0.79691 -0.44705,0 -0.79691,-0.34987 -0.79691,-0.79691 0,-0.42761 0.34986,-0.77748 0.79691,-0.77748 0.42761,0 0.77747,0.34987 0.77747,0.77748 z"
       style="fill:#000000;fill-opacity:1;fill-rule:evenodd;stroke:none;stroke-width:0.26458332"
       inkscape:connector-curvature="0" />
    <path
       id="path385"
       d="m 122.42472,272.61639 c 0,0.42761 -0.34986,0.77747 -0.79691,0.77747 -0.42761,0 -0.79691,-0.34986 -0.79691,-0.77747 0,-0.44705 0.3693,-0.79691 0.79691,-0.79691 0.44705,0 0.79691,0.34986 0.79691,0.79691 z"
       style="fill:#000000;fill-opacity:1;fill-rule:evenodd;stroke:none;stroke-width:0.26458332"
       inkscape:connector-curvature="0" />
    <path
       id="path387"
       d="m 126.68138,277.51446 c 0,0.42761 -0.3693,0.77748 -0.79691,0.77748 -0.44705,0 -0.79691,-0.34987 -0.79691,-0.77748 0,-0.44704 0.34986,-0.79691 0.79691,-0.79691 0.42761,0 0.79691,0.34987 0.79691,0.79691 z"
       style="fill:#000000;fill-opacity:1;fill-rule:evenodd;stroke:none;stroke-width:0.26458332"
       inkscape:connector-curvature="0" />
    <path
       id="path389"
       d="m 130.21888,277.92264 c 0,0.42761 -0.34986,0.77747 -0.79691,0.77747 -0.42761,0 -0.77747,-0.34986 -0.77747,-0.77747 0,-0.44705 0.34986,-0.79691 0.77747,-0.79691 0.44705,0 0.79691,0.34986 0.79691,0.79691 z"
       style="fill:#000000;fill-opacity:1;fill-rule:evenodd;stroke:none;stroke-width:0.26458332"
       inkscape:connector-curvature="0" />
    <path
       id="path391"
       d="m 136.01105,272.59695 c 0,0.42761 -0.3693,0.77747 -0.79691,0.77747 -0.44704,0 -0.79691,-0.34986 -0.79691,-0.77747 0,-0.44705 0.34987,-0.79691 0.79691,-0.79691 0.42761,0 0.79691,0.34986 0.79691,0.79691 z"
       style="fill:#000000;fill-opacity:1;fill-rule:evenodd;stroke:none;stroke-width:0.26458332"
       inkscape:connector-curvature="0" />
    <path
       id="path393"
       d="m 135.9333,269.00114 c 0,0.44705 -0.34986,0.79691 -0.7969,0.79691 -0.42762,0 -0.79692,-0.34986 -0.79692,-0.79691 0,-0.42761 0.3693,-0.77747 0.79692,-0.77747 0.44704,0 0.7969,0.34986 0.7969,0.77747 z"
       style="fill:#000000;fill-opacity:1;fill-rule:evenodd;stroke:none;stroke-width:0.26458332"
       inkscape:connector-curvature="0" />
    <path
       id="path395"
       d="m 159.21861,235.41433 c 0,0.44704 -0.34987,0.79691 -0.79691,0.79691 -0.44705,0 -0.79691,-0.34987 -0.79691,-0.79691 0,-0.42761 0.34986,-0.79691 0.79691,-0.79691 0.44704,0 0.79691,0.3693 0.79691,0.79691 z"
       style="fill:#000000;fill-opacity:1;fill-rule:evenodd;stroke:none;stroke-width:0.26458332"
       inkscape:connector-curvature="0" />
    <path
       id="path397"
       d="m 155.64223,235.64757 c 0,0.42761 -0.34986,0.79691 -0.79691,0.79691 -0.42761,0 -0.79691,-0.3693 -0.79691,-0.79691 0,-0.44705 0.3693,-0.79691 0.79691,-0.79691 0.44705,0 0.79691,0.34986 0.79691,0.79691 z"
       style="fill:#000000;fill-opacity:1;fill-rule:evenodd;stroke:none;stroke-width:0.26458332"
       inkscape:connector-curvature="0" />
    <path
       id="path399"
       d="m 164.54429,244.49132 c 0,0.44705 -0.34986,0.79691 -0.79691,0.79691 -0.44704,0 -0.79691,-0.34986 -0.79691,-0.79691 0,-0.42761 0.34987,-0.79691 0.79691,-0.79691 0.44705,0 0.79691,0.3693 0.79691,0.79691 z"
       style="fill:#000000;fill-opacity:1;fill-rule:evenodd;stroke:none;stroke-width:0.26458332"
       inkscape:connector-curvature="0" />
    <path
       id="path401"
       d="m 164.7581,240.91494 c 0,0.44705 -0.3693,0.79691 -0.79691,0.79691 -0.44705,0 -0.79691,-0.34986 -0.79691,-0.79691 0,-0.4276 0.34986,-0.77747 0.79691,-0.77747 0.42761,0 0.79691,0.34987 0.79691,0.77747 z"
       style="fill:#000000;fill-opacity:1;fill-rule:evenodd;stroke:none;stroke-width:0.26458332"
       inkscape:connector-curvature="0" />
    <path
       id="path403"
       d="m 155.66167,248.96179 c 0,0.44704 -0.3693,0.79691 -0.79691,0.79691 -0.44705,0 -0.79691,-0.34987 -0.79691,-0.79691 0,-0.42762 0.34986,-0.79691 0.79691,-0.79691 0.42761,0 0.79691,0.36929 0.79691,0.79691 z"
       style="fill:#000000;fill-opacity:1;fill-rule:evenodd;stroke:none;stroke-width:0.26458332"
       inkscape:connector-curvature="0" />
    <path
       id="path405"
       d="m 159.21861,249.17559 c 0,0.44705 -0.34987,0.79691 -0.79691,0.79691 -0.42761,0 -0.79691,-0.34986 -0.79691,-0.79691 0,-0.42761 0.3693,-0.79691 0.79691,-0.79691 0.44704,0 0.79691,0.3693 0.79691,0.79691 z"
       style="fill:#000000;fill-opacity:1;fill-rule:evenodd;stroke:none;stroke-width:0.26458332"
       inkscape:connector-curvature="0" />
  </g>
</svg>
