<?xml version="1.0" encoding="UTF-8" standalone="no"?>
<!-- Created with Inkscape (http://www.inkscape.org/) -->

<svg
   xmlns:dc="http://purl.org/dc/elements/1.1/"
   xmlns:cc="http://creativecommons.org/ns#"
   xmlns:rdf="http://www.w3.org/1999/02/22-rdf-syntax-ns#"
   xmlns:svg="http://www.w3.org/2000/svg"
   xmlns="http://www.w3.org/2000/svg"
   xmlns:sodipodi="http://sodipodi.sourceforge.net/DTD/sodipodi-0.dtd"
   xmlns:inkscape="http://www.inkscape.org/namespaces/inkscape"
   width="1000"
   height="500"
   viewBox="0 0 264.58333 132.29167"
   version="1.1"
   id="svg8"
   inkscape:version="0.92.4 (5da689c313, 2019-01-14)"
   sodipodi:docname="Fig7_2_RDF.svg">
  <defs
     id="defs2">
    <clipPath
       id="clipPath">
      <rect
         y="210.44344"
         x="19.654762"
         height="67.46875"
         width="96.95089"
         id="rect935"
         style="fill:none;fill-opacity:1;stroke:#040404;stroke-width:0.26499999;stroke-miterlimit:4;stroke-dasharray:none;stroke-dashoffset:0;stroke-opacity:1" />
    </clipPath>
    <clipPath
       id="clipPathb">
      <rect
         y="203.82886"
         x="36.85268"
         height="77.296127"
         width="100.54166"
         id="rect1313"
         style="fill:none;fill-opacity:1;stroke:#000000;stroke-width:0.26499999;stroke-miterlimit:4;stroke-dasharray:none;stroke-dashoffset:0;stroke-opacity:1" />
    </clipPath>
  </defs>
  <sodipodi:namedview
     id="base"
     pagecolor="#ffffff"
     bordercolor="#666666"
     borderopacity="1.0"
     inkscape:pageopacity="0.0"
     inkscape:pageshadow="2"
     inkscape:zoom="0.7"
     inkscape:cx="-205.54614"
     inkscape:cy="109.51475"
     inkscape:document-units="mm"
     inkscape:current-layer="layer1"
     showgrid="false"
     units="px"
     inkscape:window-width="2560"
     inkscape:window-height="1017"
     inkscape:window-x="-8"
     inkscape:window-y="-8"
     inkscape:window-maximized="1" />
  <metadata
     id="metadata5">
    <rdf:RDF>
      <cc:Work
         rdf:about="">
        <dc:format>image/svg+xml</dc:format>
        <dc:type
           rdf:resource="http://purl.org/dc/dcmitype/StillImage" />
        <dc:title />
      </cc:Work>
    </rdf:RDF>
  </metadata>
  <g
     inkscape:label="Layer 1"
     inkscape:groupmode="layer"
     id="layer1"
     transform="translate(0,-164.70832)">
    <path
       id="path1457"
       clip-path="url(#clipPathb)"
       title="x*x*exp(-x)*exp(-x)"
       d="m 36.85268,281.12499 h 100.54166 m -100.54166,0 v -77.29613 m 0,77.29613 c 0.084,-1.45294 0.167989,1.40478 0.251984,-0.0481 0.084,-1.45284 0.16799,1.31267 0.251984,-0.1399 0.084,-1.45256 0.16799,1.22658 0.251984,-0.22552 0.084,-1.4521 0.16799,1.14625 0.251984,-0.3052 0.084,-1.45146 0.16799,1.0714 0.251985,-0.37922 0.08399,-1.45063 0.167989,1.00179 0.251984,-0.44782 0.08399,-1.44961 0.167989,0.93716 0.251984,-0.51125 0.08399,-1.44841 0.167989,0.87726 0.251984,-0.56977 0.084,-1.44702 0.167989,0.82188 0.251984,-0.62358 0.084,-1.44546 0.167989,0.77078 0.251984,-0.67292 0.084,-1.44371 0.16799,0.72376 0.251984,-0.718 0.084,-1.44177 0.16799,0.68062 0.251984,-0.75903 0.084,-1.43965 0.16799,0.64116 0.251984,-0.79619 0.084,-1.43735 0.16799,0.60518 0.251985,-0.82968 0.08399,-1.43486 0.167989,0.5725 0.251984,-0.85969 0.08399,-1.43219 0.167989,0.54297 0.251984,-0.88637 0.08399,-1.42935 0.167989,0.51639 0.251984,-0.90992 0.084,-1.42631 0.167989,0.49262 0.251984,-0.93048 0.084,-1.42309 0.167989,0.47151 0.251984,-0.94819 0.084,-1.41971 0.16799,0.45288 0.251984,-0.96325 0.084,-1.41613 0.16799,0.43663 0.251984,-0.97575 0.084,-1.41237 0.16799,0.42259 0.251984,-0.98585 0.084,-1.40844 0.16799,0.41065 0.251985,-0.99368 0.08399,-1.40432 0.167989,0.40067 0.251984,-0.99936 0.08399,-1.40004 0.167989,0.39253 0.251984,-1.00303 0.08399,-1.39556 0.167989,0.38613 0.251984,-1.00478 0.084,-1.39092 0.167989,0.38135 0.251984,-1.00474 0.084,-1.38609 0.167989,0.37809 0.251984,-1.003 0.084,-1.38109 0.167989,0.37623 0.251984,-0.99968 0.084,-1.37591 0.16799,0.37569 0.251984,-0.99487 0.084,-1.37056 0.16799,0.37638 0.251984,-0.98865 0.084,-1.36504 0.16799,0.37819 0.251985,-0.98114 0.08399,-1.35934 0.167989,0.38106 0.251984,-0.9724 0.08399,-1.35346 0.167989,0.3849 0.251984,-0.96251 0.08399,-1.34742 0.167989,0.38962 0.251984,-0.95158 0.084,-1.3412 0.167989,0.39517 0.251984,-0.93965 0.084,-1.33481 0.167989,0.40146 0.251984,-0.9268 0.084,-1.32826 0.167989,0.40842 0.251984,-0.91311 0.084,-1.32154 0.16799,0.41599 0.251984,-0.89865 0.084,-1.31464 0.16799,0.42412 0.251984,-0.88345 0.084,-1.30758 0.16799,0.43274 0.251985,-0.86761 0.08399,-1.30035 0.167989,0.4418 0.251984,-0.85116 0.08399,-1.29295 0.167989,0.45125 0.251984,-0.83415 0.08399,-1.28541 0.167989,0.46101 0.251984,-0.81667 0.08399,-1.27768 0.167989,0.47108 0.251984,-0.79872 0.08399,-1.2698 0.167989,0.48138 0.251984,-0.78038 0.08399,-1.26175 0.167989,0.49187 0.251984,-0.76168 0.084,-1.25354 0.16799,0.50252 0.251984,-0.74266 0.084,-1.24518 0.16799,0.51328 0.251984,-0.72338 0.084,-1.23666 0.16799,0.52412 0.251985,-0.70386 0.08399,-1.22798 0.167989,0.535 0.251984,-0.68414 0.08399,-1.21914 0.167989,0.5459 0.251984,-0.66425 0.08399,-1.21015 0.167989,0.55677 0.251984,-0.64424 0.08399,-1.20101 0.167989,0.56759 0.251984,-0.62412 0.08399,-1.19171 0.167989,0.57833 0.251984,-0.60393 0.08399,-1.18226 0.167989,0.58897 0.251984,-0.58369 0.08399,-1.17266 0.16799,0.59946 0.251984,-0.56345 0.08399,-1.16291 0.16799,0.60982 0.251984,-0.5432 0.08399,-1.15301 0.16799,0.61999 0.251985,-0.52298 0.08399,-1.14297 0.167989,0.62996 0.251984,-0.50282 0.08399,-1.13278 0.167989,0.63971 0.251984,-0.48273 0.08399,-1.12245 0.167989,0.64923 0.251984,-0.46274 0.084,-1.11197 0.167989,0.65851 0.251984,-0.44284 0.08399,-1.10136 0.167989,0.6675 0.251984,-0.42309 0.08399,-1.09059 0.167989,0.67623 0.251984,-0.40347 0.08399,-1.0797 0.16799,0.68465 0.251984,-0.38401 0.08399,-1.06867 0.16799,0.69277 0.251984,-0.36473 0.08399,-1.05749 0.16799,0.70057 0.251984,-0.34562 0.08399,-1.04619 0.16799,0.70803 0.251985,-0.32672 0.08399,-1.03476 0.167989,0.71515 0.251984,-0.30803 0.08399,-1.02319 0.167989,0.72193 0.251984,-0.28956 0.084,-1.01148 0.167989,0.72835 0.251984,-0.2713 0.084,-0.99966 0.167989,0.7344 0.251984,-0.2533 0.084,-0.98771 0.167989,0.74008 0.251984,-0.23554 0.084,-0.97562 0.16799,0.74539 0.251984,-0.21803 0.084,-0.96342 0.16799,0.75032 0.251984,-0.20078 0.08399,-0.95109 0.16799,0.75485 0.251984,-0.18379 0.08399,-0.93864 0.16799,0.75899 0.251985,-0.16708 0.08399,-0.92608 0.167989,0.76274 0.251984,-0.15065 0.08399,-0.91339 0.167989,0.76609 0.251984,-0.1345 0.084,-0.90059 0.167989,0.76905 0.251984,-0.11862 0.084,-0.88767 0.167989,0.7716 0.251984,-0.10304 0.084,-0.87465 0.167989,0.77375 0.251984,-0.0878 0.084,-0.8615 0.16799,0.7755 0.251984,-0.0727 0.084,-0.84826 0.16799,0.77684 0.251984,-0.0581 0.084,-0.8349 0.16799,0.77778 0.251984,-0.0437 0.084,-0.82143 0.16799,0.77832 0.251985,-0.0296 0.08399,-0.80786 0.167989,0.77846 0.251984,-0.0157 0.08399,-0.79419 0.167989,0.77819 0.251984,-0.002 0.084,-0.78042 0.167989,0.77752 0.251984,0.011 0.084,-0.76655 0.167989,0.77646 0.251984,0.0239 0.084,-0.75258 0.167989,0.775 0.251984,0.0365 0.084,-0.73852 0.16799,0.77315 0.251984,0.0488 0.084,-0.72436 0.16799,0.77091 0.251984,0.0608 0.084,-0.7101 0.16799,0.76829 0.251984,0.0725 0.084,-0.69577 0.16799,0.76527 0.251985,0.0839 0.08399,-0.68134 0.167989,0.76187 0.251984,0.0951 0.08399,-0.66682 0.167989,0.75811 0.251984,0.10589 0.084,-0.65222 0.167989,0.75396 0.251984,0.11642 0.084,-0.63753 0.167989,0.74946 0.251984,0.12668 0.084,-0.62277 0.167989,0.74458 0.251984,0.13665 0.084,-0.60793 0.16799,0.73934 0.251984,0.14633 0.084,-0.593 0.16799,0.73375 0.251984,0.15574 0.084,-0.57801 0.16799,0.72781 0.251984,0.16487 0.084,-0.56294 0.16799,0.72151 0.251985,0.17371 0.08399,-0.54779 0.167989,0.71489 0.251984,0.1823 0.08399,-0.53258 0.167989,0.70792 0.251984,0.19061 0.084,-0.5173 0.167989,0.70062 0.251984,0.19866 0.084,-0.50196 0.167989,0.693 0.251984,0.20644 0.08399,-0.48655 0.167989,0.68505 0.251984,0.21397 0.084,-0.47108 0.16799,0.6768 0.251984,0.22125 0.08399,-0.45555 0.16799,0.66822 0.251984,0.22826 0.084,-0.43996 0.16799,0.65935 0.251984,0.23503 0.08399,-0.42431 0.16799,0.65018 0.251985,0.24157 0.08399,-0.40862 0.167989,0.64071 0.251984,0.24785 0.08399,-0.39287 0.167989,0.63096 0.251984,0.2539 0.08399,-0.37707 0.167989,0.62093 0.251984,0.25972 0.084,-0.36122 0.167989,0.61063 0.251984,0.2653 0.084,-0.34532 0.167989,0.60006 0.251984,0.27068 0.08399,-0.32939 0.16799,0.58921 0.251984,0.27581 0.084,-0.3134 0.16799,0.57812 0.251984,0.28074 0.08399,-0.29739 0.16799,0.56677 0.251984,0.28544 0.084,-0.28132 0.16799,0.55518 0.251985,0.28995 0.08399,-0.26523 0.167989,0.54335 0.251984,0.29424 0.08399,-0.2491 0.167989,0.53128 0.251984,0.29834 0.08399,-0.23294 0.167989,0.51899 0.251984,0.30223 0.084,-0.21676 0.167989,0.50647 0.251984,0.30593 0.084,-0.20054 0.167989,0.49374 0.251984,0.30944 0.084,-0.1843 0.16799,0.48079 0.251984,0.31276 0.084,-0.16803 0.16799,0.46765 0.251984,0.3159 0.084,-0.15174 0.16799,0.45431 0.251984,0.31887 0.08399,-0.13544 0.16799,0.44077 0.251985,0.32165 0.08399,-0.11911 0.167989,0.42704 0.251984,0.32427 0.08399,-0.10278 0.167989,0.41314 0.251984,0.32671 0.08399,-0.0864 0.167989,0.39906 0.251984,0.329 0.084,-0.0701 0.167989,0.38481 0.251984,0.33112 0.084,-0.0537 0.167989,0.37041 0.251984,0.33309 0.084,-0.0373 0.16799,0.35584 0.251984,0.33491 0.084,-0.0209 0.16799,0.34111 0.251984,0.33657 0.084,-0.005 0.16799,0.32625 0.251984,0.33809 0.084,0.0118 0.16799,0.31124 0.251985,0.33947 0.08399,0.0282 0.167989,0.2961 0.251984,0.34071 0.08399,0.0446 0.167989,0.28083 0.251984,0.34181 0.08399,0.061 0.167989,0.26544 0.251984,0.34279 0.084,0.0773 0.167989,0.24992 0.251984,0.34363 0.084,0.0937 0.167989,0.23429 0.251984,0.34435 0.084,0.11006 0.16799,0.21856 0.251984,0.34495 0.084,0.12639 0.16799,0.20272 0.251984,0.34543 0.084,0.1427 0.16799,0.18679 0.251984,0.34579 0.084,0.159 0.16799,0.17077 0.251985,0.34605 0.08399,0.17528 0.167989,0.15465 0.251984,0.34619 0.08399,0.19153 0.167989,0.13846 0.251984,0.34623 0.08399,0.20776 0.167989,0.12219 0.251984,0.34616 0.084,0.22397 0.167989,0.10585 0.251984,0.346 0.084,0.24015 0.167989,0.0894 0.251984,0.34574 0.084,0.25629 0.167989,0.073 0.251984,0.34538 0.084,0.2724 0.16799,0.0565 0.251984,0.34493 0.084,0.28849 0.16799,0.0399 0.251984,0.3444 0.084,0.30453 0.16799,0.0232 0.251985,0.34378 0.08399,0.32053 0.167989,0.007 0.251984,0.34308 0.08399,0.33649 0.167989,-0.0101 0.251984,0.34229 0.08399,0.35241 0.167989,-0.0268 0.251984,0.34143 0.084,0.36828 0.167989,-0.0436 0.251984,0.34049 0.084,0.38412 0.167989,-0.0604 0.251984,0.33949 0.084,0.39989 0.167989,-0.0772 0.251984,0.33841 0.084,0.41561 0.16799,-0.094 0.251984,0.33725 0.084,0.4313 0.16799,-0.11086 0.251984,0.33605 0.084,0.44691 0.16799,-0.1277 0.251985,0.33477 0.08399,0.46248 0.167989,-0.14454 0.251984,0.33344 0.08399,0.47798 0.167989,-0.16138 0.251984,0.33204 0.08399,0.49342 0.167989,-0.17821 0.251984,0.33059 0.084,0.50881 0.167989,-0.19503 0.251984,0.32909 0.084,0.52412 0.167989,-0.21185 0.251984,0.32753 0.084,0.53937 0.167989,-0.22863 0.251984,0.32592 0.084,0.55455 0.16799,-0.2454 0.251984,0.32426 0.084,0.56967 0.16799,-0.26213 0.251984,0.32257 0.084,0.5847 0.16799,-0.27884 0.251985,0.32082 0.08399,0.59967 0.167989,-0.29551 0.251984,0.31904 0.08399,0.61455 0.167989,-0.31215 0.251984,0.31721 0.08399,0.62935 0.167989,-0.32875 0.251984,0.31534 0.084,0.64409 0.167989,-0.3453 0.251984,0.31344 0.084,0.65873 0.167989,-0.3618 0.251984,0.3115 0.084,0.6733 0.167989,-0.37825 0.251984,0.30953 0.084,0.68777 0.16799,-0.39464 0.251984,0.30753 0.084,0.70216 0.16799,-0.41098 0.251984,0.30549 0.084,0.71647 0.16799,-0.42724 0.251985,0.30344 0.08399,0.73067 0.167989,-0.44345 0.251984,0.30134 0.08399,0.7448 0.167989,-0.45958 0.251984,0.29923 0.08399,0.75882 0.167989,-0.47564 0.251984,0.2971 0.084,0.77274 0.167989,-0.49164 0.251984,0.29493 0.084,0.78657 0.167989,-0.50754 0.251984,0.29275 0.084,0.8003 0.167989,-0.52337 0.251984,0.29055 0.084,0.81393 0.16799,-0.53911 0.251984,0.28833 0.084,0.82745 0.16799,-0.55476 0.251984,0.2861 0.084,0.84086 0.16799,-0.57033 0.251985,0.28384 0.08399,0.85417 0.167989,-0.5858 0.251984,0.28157 0.08399,0.86737 0.167989,-0.60117 0.251984,0.27929 0.08399,0.88046 0.167989,-0.61645 0.251984,0.27699 0.08399,0.89344 0.167989,-0.63161 0.251984,0.27469 0.084,0.90631 0.167989,-0.64668 0.251984,0.27238 0.08399,0.91905 0.167989,-0.66165 0.251984,0.27004 0.084,0.93169 0.16799,-0.67649 0.251984,0.26772 0.084,0.9442 0.16799,-0.69123 0.251984,0.26537 0.084,0.9566 0.16799,-0.70584 0.251984,0.26303 0.084,0.96887 0.16799,-0.72035 0.251985,0.26067 0.08399,0.98102 0.167989,-0.73473 0.251984,0.25832 0.08399,0.99304 0.167989,-0.74899 0.251984,0.25595 0.084,1.00495 0.167989,-0.76311 0.251984,0.2536 0.08399,1.01671 0.167989,-0.77713 0.251984,0.25123 0.084,1.02835 0.167989,-0.791 0.251984,0.24886 0.08399,1.03986 0.16799,-0.80474 0.251984,0.2465 0.084,1.05124 0.16799,-0.81836 0.251984,0.24413 0.08399,1.06249 0.16799,-0.83183 0.251984,0.24177 0.084,1.07359 0.16799,-0.84517 0.251985,0.2394 0.08399,1.08457 0.167989,-0.85835 0.251984,0.23705 0.08399,1.0954 0.167989,-0.87141 0.251984,0.23469 0.084,1.1061 0.167989,-0.88432 0.251984,0.23234 0.084,1.11665 0.167989,-0.89708 0.251984,0.22999 0.084,1.12706 0.167989,-0.90969 0.251984,0.22765 0.084,1.13733 0.16799,-0.92215 0.251984,0.22531 0.08399,1.14746 0.16799,-0.93446 0.251984,0.22298 0.084,1.15744 0.16799,-0.94662 0.251984,0.22065 0.08399,1.16727 0.16799,-0.95861 0.251985,0.21835 0.08399,1.17695 0.167989,-0.97046 0.251984,0.21603 0.08399,1.18648 0.167989,-0.98214 0.251984,0.21373 0.084,1.19587 0.167989,-0.99366 0.251984,0.21144 0.084,1.2051 0.167989,-1.00501 0.251984,0.20916 0.084,1.21418 0.167989,-1.01621 0.251984,0.20689 0.084,1.2231 0.16799,-1.02724 0.251984,0.20463 0.084,1.23186 0.16799,-1.0381 0.251984,0.20237 0.084,1.24048 0.16799,-1.04879 0.251984,0.20014 0.084,1.24893 0.16799,-1.05932 0.251985,0.1979 0.08399,1.25723 0.167989,-1.06966 0.251984,0.19569 0.08399,1.26536 0.167989,-1.07984 0.251984,0.19348 0.084,1.27333 0.167989,-1.08985 0.251984,0.19129 0.084,1.28114 0.167989,-1.09968 0.251984,0.18911 0.084,1.28879 0.167989,-1.10933 0.251984,0.18694 0.084,1.29627 0.16799,-1.11881 0.251984,0.18478 0.084,1.30359 0.16799,-1.1281 0.251984,0.18264 0.084,1.31075 0.16799,-1.13721 0.251984,0.18052 0.084,1.31773 0.16799,-1.14615 0.251985,0.1784 0.08399,1.32455 0.167989,-1.1549 0.251984,0.1763 0.08399,1.3312 0.167989,-1.16347 0.251984,0.17421 0.084,1.33768 0.167989,-1.17185 0.251984,0.17214 0.084,1.34399 0.167989,-1.18004 0.251984,0.17009 0.084,1.35013 0.167989,-1.18806 0.251984,0.16804 0.084,1.3561 0.16799,-1.19588 0.251984,0.16602 0.084,1.36189 0.16799,-1.20351 0.251984,0.164 0.084,1.36752 0.16799,-1.21095 0.251984,0.16201 0.084,1.37297 0.16799,-1.21821 0.251985,0.16003 0.08399,1.37824 0.167992,-1.22528 0.251982,0.15806 0.084,1.38334 0.16799,-1.23215 0.25199,0.15611 0.084,1.38826 0.16799,-1.23883 0.25198,0.15418 0.084,1.39301 0.16799,-1.24532 0.25198,0.15226 0.084,1.39758 0.16799,-1.25161 0.25199,0.15036 0.084,1.40197 0.16799,-1.25771 0.25198,0.14847 0.084,1.40618 0.16799,-1.26361 0.25199,0.1466 0.084,1.41022 0.16799,-1.26932 0.25198,0.14475 0.084,1.41407 0.16799,-1.27483 0.25198,0.14291 0.084,1.41775 0.16799,-1.28015 0.25199,0.14109 0.084,1.42124 0.16799,-1.28526 0.25198,0.13929 0.084,1.42455 0.16799,-1.29019 0.25199,0.1375 0.084,1.42768 0.16799,-1.29491 0.25198,0.13572 0.084,1.43064 0.16799,-1.29943 0.25199,0.13397 0.084,1.4334 0.16798,-1.30376 0.25198,0.13223 0.084,1.43599 0.16799,-1.30788 0.25198,0.13051 0.084,1.43839 0.16799,-1.31181 0.25199,0.1288 0.084,1.44062 0.16799,-1.31554 0.25198,0.12712 0.084,1.44265 0.16799,-1.31907 0.25199,0.12544 0.084,1.4445 0.16799,-1.3224 0.25198,0.12378 0.084,1.44618 0.16799,-1.32552 0.25198,0.12214 0.084,1.44767 0.16799,-1.32844 0.25199,0.12052 0.084,1.44897 0.16799,-1.33117 0.25198,0.11891 0.084,1.45009 0.16799,-1.33369 0.25199,0.11733 0.084,1.45102 0.16799,-1.33602 0.25198,0.11574 0.084,1.45177 0.16799,-1.33814 0.25198,0.11419 0.084,1.45234 0.16799,-1.34006 0.25199,0.11265 0.084,1.45271 0.16799,-1.34178 0.25198,0.11112 0.084,1.45291 0.16799,-1.3433 0.25199,0.10961 0.084,1.45292 0.16799,-1.34462 0.25198,0.10812 0.084,1.45274 0.16799,-1.34574 0.25198,0.10664 0.084,1.45239 0.16799,-1.34665 0.25199,0.10518 0.084,1.45184 0.16799,-1.34737 0.25198,0.10374 0.084,1.45111 0.16799,-1.34789 0.25199,0.1023 0.084,1.4502 0.16799,-1.3482 0.25198,0.1009 0.084,1.44909 0.16799,-1.34833 0.25199,0.0995 0.084,1.44781 0.16798,-1.34824 0.25198,0.0981 0.084,1.44635 0.16799,-1.34796 0.25198,0.0967 0.084,1.4447 0.16799,-1.34747 0.25199,0.0954 0.084,1.44286 0.16799,-1.34679 0.25198,0.094 0.084,1.44085 0.16799,-1.34591 0.25199,0.0927 0.084,1.43864 0.16799,-1.34483 0.25198,0.0914 0.084,1.43626 0.16799,-1.34356 0.25198,0.0901 0.084,1.43369 0.16799,-1.34208 0.25199,0.0889 0.084,1.43095 0.16799,-1.34041 0.25198,0.0876 0.084,1.42801 0.16799,-1.33855 0.25199,0.0864 0.084,1.42491 0.16799,-1.33648 0.25198,0.0851 0.084,1.42161 0.16799,-1.33422 0.25198,0.0839 0.084,1.41814 0.16799,-1.33176 0.25199,0.0827 0.084,1.41448 0.16799,-1.32912 0.25198,0.0815 0.084,1.41064 0.16799,-1.32628 0.25199,0.0803 0.084,1.40663 0.16799,-1.32325 0.25198,0.0792 0.084,1.40243 0.16799,-1.32002 0.25199,0.078 0.084,1.39807 0.16798,-1.31659 0.25198,0.0769 0.084,1.39352 0.16799,-1.31299 0.25198,0.0758 0.084,1.38879 0.16799,-1.30919 0.25199,0.0747 0.084,1.38388 0.16799,-1.3052 0.25198,0.0736 0.084,1.3788 0.16799,-1.30102 0.25199,0.0725 0.084,1.37355 0.16799,-1.29665 0.25198,0.0715 0.084,1.36812 0.16799,-1.2921 0.25198,0.0704 0.084,1.36252 0.16799,-1.28735 0.25199,0.0694 0.084,1.35674 0.16799,-1.28243 0.25198,0.0684 0.084,1.35079 0.16799,-1.27731 0.25199,0.0674 0.084,1.34467 0.16799,-1.27202 0.25198,0.0663 0.084,1.33838 0.16799,-1.26653 0.25198,0.0654 0.084,1.33191 0.16799,-1.26088 0.25199,0.0644 0.084,1.32529 0.16799,-1.25503 0.25198,0.0634 0.084,1.31848 0.16799,-1.24902 0.25199,0.0625 0.084,1.31151 0.16799,-1.24281 0.25198,0.0616 0.084,1.30438 0.16799,-1.23643 0.25199,0.0607 0.084,1.29708 0.16798,-1.22988 0.25198,0.0597 0.084,1.28961 0.16799,-1.22314 0.25198,0.0588 0.084,1.28198 0.16799,-1.21624 0.25199,0.058 0.084,1.27419 0.16799,-1.20915 0.25198,0.0571 0.084,1.26623 0.16799,-1.2019 0.25199,0.0562 0.084,1.25811 0.16799,-1.19448 0.25198,0.0554 0.084,1.24984 0.16799,-1.18688 0.25198,0.0545 0.084,1.2414 0.16799,-1.17912 0.25199,0.0537 0.084,1.23281 0.16799,-1.17118 0.25198,0.0529 0.084,1.22406 0.16799,-1.16308 0.25199,0.0521 0.084,1.21516 0.16799,-1.15481 0.25198,0.0513 0.084,1.2061 0.16799,-1.14638 0.25198,0.0505 0.084,1.19688 0.16799,-1.13779 0.25199,0.0497 0.084,1.18752 0.16799,-1.12904 0.25198,0.049 0.084,1.178 0.16799,-1.12012 0.25199,0.0482 0.084,1.16833 0.16799,-1.11105 0.25198,0.0475 0.084,1.15851 0.16799,-1.10183 0.25199,0.0467 0.084,1.14856 0.16798,-1.09243 0.25198,0.046 0.084,1.13845 0.16799,-1.08289 0.25198,0.0453 0.084,1.1282 0.16799,-1.07319 0.25199,0.0446 0.084,1.1178 0.16799,-1.06335 0.25198,0.0439 0.084,1.10726 0.16799,-1.05335 0.25199,0.0432 0.084,1.09658 0.16799,-1.0432 0.25198,0.0426 0.084,1.08575 0.16799,-1.03291 0.25198,0.0419 0.084,1.0748 0.16799,-1.02247 0.25199,0.0412 0.084,1.0637 0.16799,-1.01189 0.25198,0.0406 0.084,1.05248 0.16799,-1.00116 0.25199,0.0399 0.084,1.04112 0.16799,-0.99028 0.25198,0.0393 0.084,1.02962 0.16799,-0.97928 0.25198,0.0387 0.084,1.01799 0.16799,-0.96813 0.25199,0.0381 0.084,1.00623 0.16799,-0.95685 0.25198,0.0375 0.084,0.99435 0.16799,-0.94543 0.25199,0.0369 0.084,0.98234 0.16799,-0.93388 0.25198,0.0363 0.084,0.9702 0.16799,-0.92219 0.25199,0.0358 0.084,0.95794 0.16798,-0.91037 0.25198,0.0352 0.084,0.94556 0.16799,-0.89843 0.25198,0.0346 0.084,0.93306 0.16799,-0.88636 0.25199,0.0341 0.084,0.92043 0.16799,-0.87417 0.25198,0.0335 0.084,0.9077 0.16799,-0.86184 0.25199,0.033 0.084,0.89485 0.16798,-0.84941 0.25198,0.0325 0.084,0.88189 0.16799,-0.83684 0.25198,0.032 0.084,0.86881 0.16799,-0.82417 0.25199,0.0315 0.084,0.85562 0.16799,-0.81137 0.25198,0.0309 0.084,0.84232 0.16799,-0.79846 0.25199,0.0305 0.084,0.82892 0.16799,-0.78544 0.25198,0.03 0.084,0.8154 0.16799,-0.77231 0.25198,0.0295 0.084,0.80179 0.16799,-0.75907 0.25199,0.029 0.084,0.78807 0.16799,-0.74572 0.25198,0.0285 0.084,0.77426 0.16799,-0.73226 0.25199,0.0281 0.084,0.76034 0.16799,-0.71871 0.25198,0.0276 0.084,0.74633 0.16799,-0.70504 0.25198,0.0272 0.084,0.73222 0.16799,-0.69129 0.25199,0.0267 0.084,0.71802 0.16799,-0.67743 0.25198,0.0263 0.084,0.70373 0.16799,-0.66347 0.25199,0.0259 0.084,0.68935 0.16799,-0.64943 0.25198,0.0255 0.084,0.67489 0.16799,-0.63528 0.25199,0.025 0.084,0.66033 0.16798,-0.62106 0.25198,0.0246 0.084,0.64569 0.16799,-0.60674 0.25198,0.0242 0.084,0.63098 0.16799,-0.59233 0.25199,0.0238 0.084,0.61617 0.16799,-0.57784 0.25198,0.0235 0.084,0.60129 0.16799,-0.56327 0.25199,0.0231 0.084,0.58633 0.16799,-0.54862 0.25198,0.0227 0.084,0.57131 0.16799,-0.53389 0.25198,0.0223 0.084,0.5562 0.16799,-0.51908 0.25199,0.022 0.084,0.54103 0.16799,-0.5042 0.25198,0.0216 0.084,0.52579 0.16799,-0.48924 0.25199,0.0212 0.084,0.51048 0.16799,-0.47422 0.25198,0.0209 0.084,0.49511 0.16799,-0.45913 0.25198,0.0205 0.084,0.47967 0.16799,-0.44397 0.25199,0.0202 0.084,0.46417 0.16799,-0.42874 0.25198,0.0199 0.084,0.44861 0.16799,-0.41346 0.25199,0.0195 0.084,0.433 0.16799,-0.39812 0.25198,0.0192 0.084,0.41733 0.16799,-0.38271 0.25199,0.0189 0.084,0.40161 0.16798,-0.36725 0.25198,0.0186 0.084,0.38584 0.16799,-0.35174 0.25198,0.0183 0.084,0.37001 0.16799,-0.33618 0.25199,0.018 0.084,0.35414 0.16799,-0.32056 0.25198,0.0177 0.084,0.33823 0.16799,-0.3049 0.25199,0.0174 0.084,0.32227 0.16799,-0.28919 0.25198,0.0171"
       style="fill:none;fill-opacity:1;stroke:#000000;stroke-width:0.26499999;stroke-miterlimit:4;stroke-dasharray:none;stroke-dashoffset:0;stroke-opacity:1"
       inkscape:connector-curvature="0"
       transform="matrix(1.3685052,0,0,1.4188152,10.346076,-115.47409)" />
    <text
       xml:space="preserve"
       style="font-style:normal;font-variant:normal;font-weight:normal;font-stretch:normal;font-size:9.89189434px;line-height:1.25;font-family:sans-serif;-inkscape-font-specification:sans-serif;letter-spacing:0px;word-spacing:0px;fill:#000000;fill-opacity:1;stroke:none;stroke-width:0.24729733"
       x="48.756454"
       y="189.10687"
       id="text1466"
       transform="scale(1.0585476,0.94469063)"><tspan
         sodipodi:role="line"
         id="tspan1464"
         x="48.756454"
         y="189.10687"
         style="font-size:6.59459591px;stroke-width:0.24729733">P</tspan></text>
    <text
       xml:space="preserve"
       style="font-style:normal;font-variant:normal;font-weight:normal;font-stretch:normal;font-size:9.89189434px;line-height:1.25;font-family:sans-serif;-inkscape-font-specification:sans-serif;letter-spacing:0px;word-spacing:0px;fill:#000000;fill-opacity:1;stroke:none;stroke-width:0.24729733"
       x="188.29367"
       y="307.68979"
       id="text1470"
       transform="scale(1.0585476,0.94469063)"><tspan
         sodipodi:role="line"
         id="tspan1468"
         x="188.29367"
         y="307.68979"
         style="font-style:italic;font-size:6.59459591px;stroke-width:0.24729733">x</tspan></text>
    <text
       xml:space="preserve"
       style="font-style:normal;font-variant:normal;font-weight:normal;font-stretch:normal;font-size:9.89189434px;line-height:1.25;font-family:sans-serif;-inkscape-font-specification:sans-serif;letter-spacing:0px;word-spacing:0px;fill:#000000;fill-opacity:1;stroke:none;stroke-width:0.24729733"
       x="51.011868"
       y="307.23727"
       id="text1466-5"
       transform="scale(1.0585476,0.94469063)"><tspan
         sodipodi:role="line"
         id="tspan1464-6"
         x="51.011868"
         y="307.23727"
         style="font-size:6.59459591px;stroke-width:0.24729733">0</tspan></text>
    <path
       style="fill:none;stroke:#b74040;stroke-width:0.20910135;stroke-linecap:butt;stroke-linejoin:miter;stroke-miterlimit:4;stroke-dasharray:none;stroke-opacity:1"
       d="m 177.99329,283.2839 v -3.58565 l 10.17354,-16.41593"
       id="path1490"
       inkscape:connector-curvature="0"
       sodipodi:nodetypes="ccc" />
    <text
       xml:space="preserve"
       style="font-style:normal;font-variant:normal;font-weight:normal;font-stretch:normal;font-size:13.41205502px;line-height:1.25;font-family:sans-serif;-inkscape-font-specification:sans-serif;letter-spacing:0px;word-spacing:0px;fill:#000000;fill-opacity:1;stroke:none;stroke-width:0.33530137"
       x="162.63361"
       y="268.10162"
       id="text1494"
       transform="scale(1.0297727,0.97108808)"><tspan
         sodipodi:role="line"
         id="tspan1492"
         x="162.63361"
         y="268.10162"
         style="font-size:8.94137001px;stroke-width:0.33530137">threshold</tspan></text>
  </g>
</svg>
