<?xml version="1.0" encoding="UTF-8" standalone="no"?>
<!-- Created with Inkscape (http://www.inkscape.org/) -->

<svg
   xmlns:dc="http://purl.org/dc/elements/1.1/"
   xmlns:cc="http://creativecommons.org/ns#"
   xmlns:rdf="http://www.w3.org/1999/02/22-rdf-syntax-ns#"
   xmlns:svg="http://www.w3.org/2000/svg"
   xmlns="http://www.w3.org/2000/svg"
   xmlns:sodipodi="http://sodipodi.sourceforge.net/DTD/sodipodi-0.dtd"
   xmlns:inkscape="http://www.inkscape.org/namespaces/inkscape"
   width="1000"
   height="600"
   viewBox="0 0 264.58333 158.75001"
   version="1.1"
   id="svg6162"
   inkscape:version="0.92.4 (5da689c313, 2019-01-14)"
   sodipodi:docname="Fig8_4_1s4sAntiOverlap.svg">
  <defs
     id="defs6156">
    <clipPath
       id="clipPath-5">
      <rect
         ry="0"
         y="154.54532"
         x="14.699824"
         height="35.546848"
         width="47.841244"
         id="rect5407-2"
         style="opacity:0.73600003;fill:none;fill-opacity:1;stroke:#000000;stroke-width:0.5;stroke-miterlimit:4;stroke-dasharray:none;stroke-dashoffset:0;stroke-opacity:1" />
    </clipPath>
    <clipPath
       id="clipPath">
      <rect
         ry="0"
         y="154.54532"
         x="14.699824"
         height="35.546848"
         width="47.841244"
         id="rect5407"
         style="opacity:0.73600003;fill:none;fill-opacity:1;stroke:#000000;stroke-width:0.5;stroke-miterlimit:4;stroke-dasharray:none;stroke-dashoffset:0;stroke-opacity:1" />
    </clipPath>
    <clipPath
       id="clipPath8">
      <rect
         style="opacity:0.73600003;fill:none;fill-opacity:1;stroke:#000000;stroke-width:0.5;stroke-miterlimit:4;stroke-dasharray:none;stroke-dashoffset:0;stroke-opacity:1"
         id="rect5634-8"
         width="47.841251"
         height="35.546848"
         x="51.926865"
         y="169.61217"
         ry="0" />
    </clipPath>
  </defs>
  <sodipodi:namedview
     id="base"
     pagecolor="#ffffff"
     bordercolor="#666666"
     borderopacity="1.0"
     inkscape:pageopacity="0.0"
     inkscape:pageshadow="2"
     inkscape:zoom="1.4"
     inkscape:cx="337.06238"
     inkscape:cy="347.04009"
     inkscape:document-units="mm"
     inkscape:current-layer="layer1"
     showgrid="false"
     units="px"
     inkscape:window-width="2560"
     inkscape:window-height="1017"
     inkscape:window-x="-8"
     inkscape:window-y="-8"
     inkscape:window-maximized="1" />
  <metadata
     id="metadata6159">
    <rdf:RDF>
      <cc:Work
         rdf:about="">
        <dc:format>image/svg+xml</dc:format>
        <dc:type
           rdf:resource="http://purl.org/dc/dcmitype/StillImage" />
        <dc:title />
      </cc:Work>
    </rdf:RDF>
  </metadata>
  <g
     inkscape:label="Layer 1"
     inkscape:groupmode="layer"
     id="layer1"
     transform="translate(0,-138.24998)">
    <ellipse
       style="opacity:1;fill:#e90000;fill-opacity:1;stroke:#000000;stroke-width:0.2658819;stroke-miterlimit:4;stroke-dasharray:none;stroke-dashoffset:0;stroke-opacity:1"
       id="path5268"
       cx="22.151834"
       cy="258.72214"
       rx="16.391375"
       ry="13.691275" />
    <ellipse
       style="opacity:1;fill:#0002e9;fill-opacity:1;stroke:#000000;stroke-width:0.2658819;stroke-miterlimit:4;stroke-dasharray:none;stroke-dashoffset:0;stroke-opacity:1"
       id="path5268-0"
       cx="64.438339"
       cy="258.61835"
       rx="16.391375"
       ry="13.691275" />
    <ellipse
       style="opacity:1;fill:#e90000;fill-opacity:1;stroke:#000000;stroke-width:0.2658819;stroke-miterlimit:4;stroke-dasharray:none;stroke-dashoffset:0;stroke-opacity:1"
       id="path5268-3"
       cx="129.89101"
       cy="260.30008"
       rx="16.391375"
       ry="13.691275" />
    <ellipse
       style="opacity:0.73600003;fill:#0002e9;fill-opacity:1;stroke:#000000;stroke-width:0.2658819;stroke-miterlimit:4;stroke-dasharray:none;stroke-dashoffset:0;stroke-opacity:1"
       id="path5268-0-5"
       cx="153.79932"
       cy="259.97363"
       rx="16.391375"
       ry="13.691275" />
    <path
       style="fill:none;stroke:#000000;stroke-width:0.57839024;stroke-linecap:butt;stroke-linejoin:miter;stroke-miterlimit:4;stroke-dasharray:none;stroke-opacity:1"
       d="m 90.980493,260.03788 h 15.768937 l -3.74179,-4.7615 3.74179,4.7615 -3.74179,4.4814"
       id="path5738"
       inkscape:connector-curvature="0" />
    <path
       style="fill:none;stroke:#000000;stroke-width:0.56500006;stroke-linecap:butt;stroke-linejoin:miter;stroke-miterlimit:4;stroke-dasharray:none;stroke-opacity:1"
       d="m 176.31963,260.54045 h 15.76891 l -3.74177,-4.54358 3.74177,4.54358 -3.74177,4.27631"
       id="path5738-0"
       inkscape:connector-curvature="0" />
    <text
       xml:space="preserve"
       style="font-style:normal;font-variant:normal;font-weight:normal;font-stretch:normal;font-size:10.58333302px;line-height:1.25;font-family:sans-serif;-inkscape-font-specification:sans-serif;letter-spacing:0px;word-spacing:0px;fill:#000000;fill-opacity:1;stroke:none;stroke-width:0.26458332"
       x="12.996881"
       y="285.56015"
       id="text5778"><tspan
         sodipodi:role="line"
         id="tspan5776"
         x="12.996881"
         y="285.56015"
         style="font-size:7.05555534px;stroke-width:0.26458332">Atomic s-orbitals</tspan></text>
    <text
       xml:space="preserve"
       style="font-style:normal;font-variant:normal;font-weight:normal;font-stretch:normal;font-size:10.58333302px;line-height:1.25;font-family:sans-serif;-inkscape-font-specification:sans-serif;letter-spacing:0px;word-spacing:0px;fill:#000000;fill-opacity:1;stroke:none;stroke-width:0.26458332"
       x="200.10585"
       y="287.02139"
       id="text5778-8"><tspan
         sodipodi:role="line"
         id="tspan5776-2"
         x="200.10585"
         y="287.02139"
         style="font-size:7.05555534px;stroke-width:0.26458332">Molecular orbital</tspan></text>
    <ellipse
       style="opacity:0.73600003;fill:#000000;fill-opacity:1;stroke:none;stroke-width:0.47090182;stroke-miterlimit:4;stroke-dasharray:none;stroke-dashoffset:0;stroke-opacity:1"
       id="path5798"
       cx="22.484949"
       cy="258.69873"
       rx="0.66817379"
       ry="0.70021987" />
    <ellipse
       style="opacity:0.73600003;fill:#000000;fill-opacity:1;stroke:none;stroke-width:0.47090182;stroke-miterlimit:4;stroke-dasharray:none;stroke-dashoffset:0;stroke-opacity:1"
       id="path5798-1"
       cx="65.381706"
       cy="258.83878"
       rx="0.66817379"
       ry="0.70021987" />
    <ellipse
       style="opacity:0.73600003;fill:#000000;fill-opacity:1;stroke:none;stroke-width:0.47090182;stroke-miterlimit:4;stroke-dasharray:none;stroke-dashoffset:0;stroke-opacity:1"
       id="path5798-5"
       cx="129.2269"
       cy="260.20822"
       rx="0.66817379"
       ry="0.70021987" />
    <ellipse
       style="opacity:0.73600003;fill:#000000;fill-opacity:1;stroke:none;stroke-width:0.47090182;stroke-miterlimit:4;stroke-dasharray:none;stroke-dashoffset:0;stroke-opacity:1"
       id="path5798-0"
       cx="155.41925"
       cy="259.95911"
       rx="0.66817379"
       ry="0.70021987" />
    <text
       xml:space="preserve"
       style="font-style:normal;font-variant:normal;font-weight:normal;font-stretch:normal;font-size:10.58333302px;line-height:1.25;font-family:sans-serif;-inkscape-font-specification:sans-serif;letter-spacing:0px;word-spacing:0px;fill:#000000;fill-opacity:1;stroke:none;stroke-width:0.26458332"
       x="237.43916"
       y="-139.73059"
       id="text5859"
       transform="rotate(90)"
       inkscape:transform-center-x="43.030394"
       inkscape:transform-center-y="-11.22532"><tspan
         sodipodi:role="line"
         id="tspan5857"
         x="237.43916"
         y="-139.73059"
         style="stroke-width:0.26458332">{</tspan></text>
    <text
       xml:space="preserve"
       style="font-style:normal;font-variant:normal;font-weight:normal;font-stretch:normal;font-size:10.58333302px;line-height:1.25;font-family:sans-serif;-inkscape-font-specification:sans-serif;letter-spacing:0px;word-spacing:0px;fill:#000000;fill-opacity:1;stroke:none;stroke-width:0.26458332"
       x="111.0848"
       y="233.6133"
       id="text5863"><tspan
         sodipodi:role="line"
         id="tspan5861"
         x="111.0848"
         y="233.6133"
         style="font-size:7.05555534px;stroke-width:0.26458332">Overlapping region</tspan></text>
    <text
       xml:space="preserve"
       style="font-style:normal;font-variant:normal;font-weight:normal;font-stretch:normal;font-size:10.58333302px;line-height:1.25;font-family:sans-serif;-inkscape-font-specification:sans-serif;letter-spacing:0px;word-spacing:0px;fill:#000000;fill-opacity:1;stroke:none;stroke-width:0.26458332"
       x="180.30759"
       y="258.20209"
       id="text5891"><tspan
         sodipodi:role="line"
         id="tspan5889"
         x="180.30759"
         y="258.20209"
         style="stroke-width:0.26458332">*</tspan></text>
    <rect
       ry="0"
       y="147.01175"
       x="27.172211"
       height="35.546848"
       width="47.841248"
       id="rect5634"
       style="opacity:0.73600003;fill:none;fill-opacity:1;stroke:#000000;stroke-width:0.5;stroke-miterlimit:4;stroke-dasharray:none;stroke-dashoffset:0;stroke-opacity:1" />
    <path
       id="path5636"
       clip-path="url(#clipPath)"
       title="sin(x)"
       d="m 14.699824,190.09217 v -35.54685 m 0,17.77342 c 0.05334,0 0.106669,0.33803 0.160004,0.34042 0.05334,0.002 0.10667,0.33549 0.160004,0.34027 0.05334,0.005 0.10667,0.3328 0.160004,0.33997 0.05334,0.007 0.10667,0.32995 0.160005,0.33951 0.05333,0.01 0.106669,0.32696 0.160004,0.33892 0.05333,0.0119 0.106669,0.3238 0.160004,0.33815 0.05334,0.0144 0.106669,0.32051 0.160004,0.33725 0.05334,0.0167 0.10667,0.31707 0.160004,0.3362 0.05333,0.0191 0.10667,0.31347 0.160004,0.33499 0.05334,0.0215 0.10667,0.30973 0.160005,0.33365 0.05333,0.0239 0.106669,0.30584 0.160004,0.33214 0.05333,0.0263 0.106669,0.3018 0.160004,0.33049 0.05334,0.0287 0.106669,0.29762 0.160004,0.3287 0.05334,0.0311 0.10667,0.29329 0.160004,0.32676 0.05334,0.0335 0.10667,0.28881 0.160004,0.32467 0.05333,0.0359 0.10667,0.28419 0.160005,0.32245 0.05333,0.0383 0.106669,0.27942 0.160004,0.32007 0.05333,0.0406 0.106669,0.27452 0.160004,0.31756 0.05334,0.043 0.106669,0.26947 0.160004,0.3149 0.05333,0.0454 0.106669,0.26428 0.160004,0.31211 0.05334,0.0478 0.10667,0.25895 0.160004,0.30917 0.05334,0.0502 0.10667,0.25349 0.160005,0.3061 0.05333,0.0526 0.106669,0.2479 0.160004,0.30289 0.05333,0.055 0.106669,0.24217 0.160004,0.29955 0.05334,0.0574 0.106669,0.2363 0.160004,0.29608 0.05334,0.0598 0.106669,0.2303 0.160004,0.29247 0.05334,0.0622 0.10667,0.22418 0.160004,0.28874 0.05333,0.0645 0.10667,0.21792 0.160004,0.28487 0.05334,0.0669 0.10667,0.21153 0.160005,0.28088 0.05333,0.0693 0.106669,0.20503 0.160004,0.27676 0.05334,0.0717 0.106669,0.1984 0.160004,0.27253 0.05333,0.0741 0.106669,0.19165 0.160004,0.26817 0.05334,0.0765 0.10667,0.18478 0.160004,0.26369 0.05334,0.0789 0.10667,0.17779 0.160004,0.25909 0.05334,0.0813 0.10667,0.1707 0.160005,0.25438 0.05333,0.0837 0.106669,0.16349 0.160004,0.24956 0.05333,0.0861 0.106669,0.15616 0.160004,0.24463 0.05334,0.0885 0.106669,0.14872 0.160004,0.23959 0.05334,0.0909 0.10667,0.14118 0.160004,0.23443 0.05334,0.0933 0.10667,0.13354 0.160004,0.22918 0.05334,0.0956 0.10667,0.1258 0.160005,0.22383 0.05333,0.098 0.106669,0.11795 0.160004,0.21837 0.05333,0.10043 0.106669,0.11001 0.160004,0.21283 0.05333,0.10281 0.106669,0.10197 0.160004,0.20717 0.05334,0.10521 0.10667,0.0938 0.160004,0.20144 0.05334,0.1076 0.10667,0.0856 0.160004,0.19562 0.05334,0.10999 0.10667,0.0773 0.160005,0.18969 0.05333,0.11239 0.106669,0.0689 0.160004,0.1837 0.05333,0.11478 0.106669,0.0605 0.160004,0.17763 0.05334,0.11716 0.106669,0.0519 0.160004,0.17146 0.05334,0.11955 0.106669,0.0433 0.160004,0.16523 0.05334,0.12194 0.10667,0.0346 0.160004,0.15892 0.05333,0.12433 0.10667,0.0258 0.160005,0.15254 0.05333,0.12673 0.106669,0.017 0.160004,0.14609 0.05333,0.12912 0.106669,0.008 0.160004,0.13959 0.05334,0.13151 0.106669,-8.9e-4 0.160004,0.13301 0.05334,0.1339 0.106669,-0.01 0.160004,0.12638 0.05334,0.13629 0.10667,-0.019 0.160004,0.11969 0.05334,0.13868 0.10667,-0.0281 0.160004,0.11295 0.05334,0.14108 0.10667,-0.0373 0.160005,0.10616 0.05333,0.14347 0.106669,-0.0465 0.160004,0.0993 0.05334,0.14586 0.106669,-0.0558 0.160004,0.0924 0.05334,0.14825 0.106669,-0.0651 0.160004,0.0855 0.05334,0.15064 0.10667,-0.0745 0.160004,0.0786 0.05333,0.15303 0.10667,-0.0839 0.160004,0.0716 0.05334,0.15542 0.10667,-0.0933 0.160005,0.0645 0.05333,0.15781 0.106669,-0.10273 0.160004,0.0575 0.05333,0.1602 0.106669,-0.11221 0.160004,0.0504 0.05333,0.16259 0.106669,-0.1217 0.160004,0.0433 0.05334,0.16499 0.10667,-0.13122 0.160004,0.0362 0.05334,0.16738 0.10667,-0.14075 0.160004,0.029 0.05334,0.16977 0.10667,-0.15029 0.160005,0.0219 0.05333,0.17215 0.106669,-0.15985 0.160004,0.0147 0.05333,0.17455 0.106669,-0.16941 0.160004,0.008 0.05334,0.17695 0.106669,-0.17896 0.160004,3.7e-4 0.05334,0.17933 0.106669,-0.18854 0.160004,-0.007 0.05333,0.18172 0.10667,-0.1981 0.160004,-0.014 0.05334,0.18411 0.10667,-0.20765 0.160005,-0.0212 0.05333,0.18651 0.106669,-0.21719 0.160004,-0.0283 0.05333,0.18889 0.106669,-0.22673 0.160004,-0.0354 0.05333,0.19128 0.106669,-0.23625 0.160004,-0.0426 0.05334,0.19368 0.106669,-0.24574 0.160004,-0.0497 0.05334,0.19607 0.10667,-0.25522 0.160004,-0.0568 0.05334,0.19846 0.10667,-0.26467 0.160004,-0.0638 0.05334,0.20085 0.10667,-0.27409 0.160005,-0.0708 0.05333,0.20324 0.106669,-0.28348 0.160004,-0.0779 0.05334,0.20563 0.106669,-0.29284 0.160004,-0.0848 0.05334,0.20802 0.106669,-0.30216 0.160004,-0.0917 0.05334,0.21041 0.10667,-0.31144 0.160004,-0.0986 0.05333,0.21281 0.10667,-0.32067 0.160004,-0.10547 0.05334,0.2152 0.10667,-0.32986 0.160005,-0.11227 0.05333,0.21759 0.106669,-0.33899 0.160004,-0.11901 0.05333,0.21998 0.106669,-0.34808 0.160004,-0.12571 0.05334,0.22238 0.106669,-0.3571 0.160004,-0.13234 0.05334,0.22476 0.10667,-0.36608 0.160004,-0.13892 0.05334,0.22715 0.10667,-0.37499 0.160004,-0.14545 0.05334,0.22955 0.10667,-0.38382 0.160005,-0.15189 0.05333,0.23194 0.106669,-0.39261 0.160004,-0.15828 0.05333,0.23433 0.106669,-0.40131 0.160004,-0.16459 0.05334,0.23671 0.106669,-0.40995 0.160004,-0.17084 0.05334,0.23911 0.106669,-0.4185 0.160004,-0.177 0.05333,0.2415 0.10667,-0.42698 0.160004,-0.18309 0.05334,0.24389 0.10667,-0.43538 0.160005,-0.1891 0.05333,0.24628 0.106669,-0.44369 0.160004,-0.19502 0.05333,0.24868 0.106669,-0.45192 0.160004,-0.20085 0.05334,0.25106 0.106669,-0.46006 0.160004,-0.2066 0.05334,0.25345 0.106669,-0.46811 0.160004,-0.21226 0.05334,0.25585 0.10667,-0.47606 0.160004,-0.21782 0.05334,0.25824 0.10667,-0.48391 0.160004,-0.22328 0.05334,0.26063 0.10667,-0.49167 0.160005,-0.22865 0.05333,0.26302 0.106669,-0.49932 0.160004,-0.23391 0.05333,0.26542 0.106669,-0.50687 0.160004,-0.23906 0.05334,0.2678 0.106669,-0.51432 0.160004,-0.24413 0.05334,0.2702 0.10667,-0.52165 0.160004,-0.24906 0.05334,0.27258 0.10667,-0.52888 0.160004,-0.25391 0.05334,0.27498 0.10667,-0.53599 0.160005,-0.25862 0.05333,0.27737 0.106669,-0.54299 0.160004,-0.26323 0.05334,0.27976 0.106669,-0.54987 0.160004,-0.26772 0.05334,0.28215 0.106669,-0.55663 0.160004,-0.27209 0.05333,0.28454 0.10667,-0.56328 0.160004,-0.27635 0.05333,0.28693 0.10667,-0.56979 0.160004,-0.28047 0.05333,0.28932 0.10667,-0.57618 0.160005,-0.28447 0.05333,0.29171 0.106669,-0.58246 0.160004,-0.28835 0.05333,0.2941 0.106669,-0.5886 0.160004,-0.2921 0.05333,0.29649 0.106669,-0.59461 0.160004,-0.29572 0.05333,0.29889 0.10667,-0.60048 0.160004,-0.29921 0.05333,0.30128 0.10667,-0.60623 0.160004,-0.30256 0.05333,0.30367 0.10667,-0.61184 0.160005,-0.30578 0.05333,0.30606 0.106669,-0.61732 0.160004,-0.30887 0.05333,0.30845 0.106669,-0.62266 0.160004,-0.31181 0.05333,0.31084 0.106669,-0.62786 0.160004,-0.31463 0.05333,0.31323 0.106669,-0.63292 0.160004,-0.3173 0.05334,0.31563 0.10667,-0.63783 0.160004,-0.31982 0.05334,0.31802 0.10667,-0.64262 0.160005,-0.32221 0.05333,0.3204 0.106669,-0.64725 0.160004,-0.32446 0.05333,0.3228 0.106669,-0.65174 0.160004,-0.32655 0.05334,0.32519 0.106669,-0.65609 0.160004,-0.32851 0.05334,0.32758 0.106669,-0.66029 0.160004,-0.33032 0.05334,0.32997 0.10667,-0.66435 0.160004,-0.33198 0.05334,0.33236 0.10667,-0.66825 0.160004,-0.3335 0.05333,0.33475 0.10667,-0.67201 0.160005,-0.33487 0.05333,0.33715 0.106669,-0.67561 0.160004,-0.33608 0.05334,0.33954 0.106669,-0.67908 0.160004,-0.33715 0.05334,0.34193 0.106669,-0.68239 0.160004,-0.33807 0.05333,0.34432 0.10667,-0.68555 0.160004,-0.33884 0.05333,0.34671 0.10667,-0.68856 0.160004,-0.33946 0.05333,0.3491 0.10667,-0.69142 0.160005,-0.33993 0.05333,0.35149 0.106669,-0.69413 0.160004,-0.34025 0.05333,0.35389 0.106669,-0.69668 0.160004,-0.34041 0.05333,0.35627 0.106669,-0.69909 0.160004,-0.34043 0.05333,0.35867 0.10667,-0.70134 0.160004,-0.34029 0.05333,0.36106 0.10667,-0.70345 0.160004,-0.34 0.05333,0.36344 0.10667,-0.7054 0.160005,-0.33957 0.05333,0.36584 0.106669,-0.7072 0.160004,-0.33898 0.05333,0.36823 0.106669,-0.70885 0.160004,-0.33823 0.05333,0.37061 0.106669,-0.71036 0.160004,-0.33735 0.05333,0.37301 0.106669,-0.71172 0.160004,-0.33631 0.05334,0.3754 0.10667,-0.71292 0.160004,-0.33513 0.05334,0.3778 0.10667,-0.71397 0.160005,-0.33378 0.05333,0.38018 0.106669,-0.71488 0.160004,-0.3323 0.05333,0.38257 0.106669,-0.71563 0.160004,-0.33067 0.05334,0.38497 0.106669,-0.71624 0.160004,-0.32889 0.05334,0.38736 0.106669,-0.71671 0.160004,-0.32696 0.05334,0.38975 0.10667,-0.71703 0.160004,-0.32489 0.05334,0.39214 0.10667,-0.71721 0.160004,-0.32268 0.05333,0.39453 0.10667,-0.71723 0.160005,-0.32031 0.05333,0.39692 0.106669,-0.71713 0.160004,-0.31782 0.05334,0.39931 0.106669,-0.71688 0.160004,-0.31518 0.05333,0.40171 0.106669,-0.71649 0.160004,-0.31239 0.05333,0.40409 0.10667,-0.71596 0.160004,-0.30948 0.05333,0.40649 0.10667,-0.71529 0.160004,-0.30641 0.05333,0.40887 0.10667,-0.71449 0.160005,-0.30323 0.05333,0.41127 0.106669,-0.71355 0.160004,-0.29989 0.05333,0.41366 0.106669,-0.71248 0.160004,-0.29644 0.05333,0.41605 0.106669,-0.71128 0.160004,-0.29284 0.05333,0.41844 0.10667,-0.70995 0.160004,-0.28911 0.05333,0.42083 0.10667,-0.70849 0.160004,-0.28527 0.05333,0.42322 0.10667,-0.7069 0.160005,-0.28129 0.05333,0.42561 0.106669,-0.70519 0.160004,-0.27719 0.05333,0.42801 0.106669,-0.70335 0.160004,-0.27296 0.05333,0.4304 0.106669,-0.7014 0.160004,-0.26861 0.05333,0.43279 0.106669,-0.69933 0.160004,-0.26415 0.05334,0.43518 0.10667,-0.69713 0.160004,-0.25956 0.05334,0.43757 0.10667,-0.69483 0.160005,-0.25487 0.05333,0.43997 0.106669,-0.6924 0.160004,-0.25005 0.05333,0.44235 0.106669,-0.68987 0.160004,-0.24513 0.05334,0.44474 0.106669,-0.68723 0.160004,-0.2401 0.05334,0.44714 0.106669,-0.68448 0.160004,-0.23496 0.05334,0.44953 0.10667,-0.68163 0.160004,-0.22971 0.05333,0.45191 0.10667,-0.67868 0.160005,-0.22438 0.05333,0.45431 0.106669,-0.67562 0.160004,-0.21893 0.05333,0.4567 0.106669,-0.67247 0.160004,-0.21338 0.05334,0.45909 0.106669,-0.66923 0.160004,-0.20775 0.05333,0.46148 0.106669,-0.6659 0.160004,-0.20203 0.05333,0.46387 0.10667,-0.66246 0.160004,-0.1962 0.05333,0.46626 0.10667,-0.65895 0.160004,-0.1903 0.05333,0.46865 0.10667,-0.65536 0.160005,-0.18431 0.05333,0.47104 0.106669,-0.65168 0.160004,-0.17824 0.05333,0.47344 0.106669,-0.64791 0.160004,-0.17209 0.05333,0.47583 0.106669,-0.64408 0.160004,-0.16586 0.05333,0.47822 0.10667,-0.64017 0.160004,-0.15956 0.05333,0.48061 0.10667,-0.63619 0.160004,-0.15319 0.05334,0.483 0.10667,-0.63214 0.160005,-0.14675 0.05333,0.48539 0.106669,-0.62802 0.160004,-0.14024 0.05333,0.48778 0.106669,-0.62385 0.160004,-0.13368 0.05333,0.49017 0.106669,-0.61962 0.160004,-0.12705 0.05334,0.49256 0.10667,-0.61533 0.160004,-0.12037 0.05334,0.49495 0.10667,-0.61098 0.160004,-0.11364 0.05334,0.49735 0.10667,-0.60658 0.160005,-0.10684 0.05333,0.49974 0.106669,-0.60214 0.160004,-0.10001 0.05333,0.50212 0.106669,-0.59766 0.160004,-0.0931 0.05334,0.50452 0.106669,-0.59313 0.160004,-0.0862 0.05334,0.50691 0.106669,-0.58856 0.160004,-0.0793 0.05334,0.5093 0.10667,-0.58396 0.160004,-0.0723 0.05333,0.5117 0.10667,-0.57932 0.160005,-0.0652 0.05333,0.51408 0.106669,-0.57466 0.160004,-0.0582 0.05333,0.51648 0.106669,-0.56997 0.160004,-0.0511 0.05334,0.51886 0.106669,-0.56526 0.160004,-0.044 0.05333,0.52126 0.106669,-0.56052 0.160004,-0.0369 0.05333,0.52364 0.10667,-0.55579 0.160004,-0.0298 0.05333,0.52604 0.10667,-0.55102 0.160004,-0.0226 0.05333,0.52844 0.10667,-0.54624 0.160005,-0.0154 0.05333,0.53082 0.106669,-0.54147 0.160004,-0.008 0.05333,0.53321 0.106669,-0.53669 0.160004,-0.001 0.05333,0.53561 0.106669,-0.53191 0.160004,0.006 0.05333,0.53799 0.10667,-0.52713 0.160004,0.0132 0.05333,0.54039 0.10667,-0.52235 0.160004,0.0204 0.05334,0.54277 0.10667,-0.5176 0.160005,0.0276 0.05333,0.54517 0.106669,-0.51284 0.160004,0.0347 0.05333,0.54756 0.106669,-0.5081 0.160004,0.0419 0.05333,0.54995 0.106669,-0.50339 0.160004,0.0489 0.05334,0.55234 0.10667,-0.49869 0.160004,0.056 0.05334,0.55474 0.10667,-0.49402 0.160004,0.0631 0.05334,0.55712 0.10667,-0.48938 0.160005,0.0701 0.05333,0.55951 0.106669,-0.48477 0.160004,0.0771 0.05333,0.56191 0.106669,-0.48019 0.160004,0.0841 0.05334,0.5643 0.106669,-0.47565 0.160004,0.091 0.05334,0.56669 0.106669,-0.47114 0.160004,0.0979 0.05333,0.56908 0.10667,-0.46669 0.160004,0.10478 0.05333,0.57147 0.10667,-0.46228 0.160005,0.11158 0.05333,0.57386 0.106669,-0.45792 0.160004,0.11833 0.05333,0.57626 0.106669,-0.45361 0.160004,0.12504 0.05333,0.57864 0.106669,-0.44936 0.160004,0.13167 0.05333,0.58104 0.106669,-0.44516 0.160004,0.13827 0.05333,0.58342 0.10667,-0.44103 0.160004,0.14478 0.05333,0.58582 0.10667,-0.43696 0.160004,0.15125 0.05333,0.58821 0.10667,-0.43296 0.160005,0.15764 0.05333,0.59059 0.106669,-0.42903 0.160004,0.16396 0.05333,0.59299 0.106669,-0.42518 0.160004,0.17021 0.05333,0.59538 0.106669,-0.42139 0.160004,0.17638 0.05333,0.59777 0.10667,-0.41769 0.160004,0.18248 0.05333,0.60016 0.10667,-0.41406 0.160004,0.18849 0.05334,0.60256 0.10667,-0.41052 0.160005,0.19443 0.05333,0.60494 0.106669,-0.40707 0.160004,0.20027 0.05333,0.60733 0.106669,-0.40371 0.160004,0.20602 0.05334,0.60973 0.106669,-0.40043 0.160004,0.21169 0.05334,0.61212 0.10667,-0.39725 0.160004,0.21726 0.05334,0.61451 0.10667,-0.39417 0.160004,0.22274 0.05334,0.6169 0.10667,-0.39119 0.160005,0.2281 0.05333,0.6193 0.106669,-0.3883 0.160004,0.23339 0.05333,0.62168 0.106669,-0.38552 0.160004,0.23855 0.05334,0.62407 0.106669,-0.38285 0.160004,0.24362 0.05334,0.62646 0.10667,-0.38029 0.160004,0.24857 0.05333,0.62886 0.10667,-0.37783 0.160004,0.25342 0.05333,0.63125 0.10667,-0.37549 0.160005,0.25815 0.05333,0.63364 0.106669,-0.37326 0.160004,0.26277 0.05333,0.63603 0.106669,-0.37115 0.160004,0.26728 0.05333,0.63842 0.106669,-0.36916 0.160004,0.27165 0.05333,0.64081 0.106669,-0.36728 0.160004,0.27592 0.05333,0.6432 0.10667,-0.36553 0.160004,0.28006 0.05333,0.64559 0.10667,-0.36391 0.160005,0.28407 0.05333,0.64799 0.106669,-0.36241 0.160004,0.28797 0.05333,0.65038 0.106669,-0.36104 0.160004,0.29173 0.05333,0.65276 0.106669,-0.3598 0.160004,0.29536 0.05333,0.65515 0.106669,-0.35869 0.160004,0.29886 0.05333,0.65755 0.10667,-0.35772 0.160004,0.30223 0.05334,0.65994 0.10667,-0.35687 0.160004,0.30546 0.05334,0.66233 0.10667,-0.35616 0.160005,0.30856 0.05333,0.66472 0.106669,-0.35559 0.160004,0.31153 0.05333,0.66711 0.106669,-0.35516 0.160004,0.31434 0.05334,0.66951 0.106669,-0.35486 0.160004,0.31704 0.05334,0.67189 0.10667,-0.35472 0.160004,0.31957 0.05334,0.67429 0.10667,-0.3547 0.160004,0.32198 0.05334,0.67668 0.10667,-0.35484 0.160005,0.32423 0.05333,0.67907 0.106669,-0.35511 0.160004,0.32635 0.05333,0.68146 0.106669,-0.35553 0.160004,0.32832 0.05334,0.68385 0.106669,-0.3561 0.160004,0.33015 0.05334,0.68624 0.10667,-0.35682 0.160004,0.33182 0.05333,0.68863 0.10667,-0.35768 0.160004,0.33335 0.05333,0.69102 0.10667,-0.35869 0.160005,0.33473 0.05333,0.69342 0.106669,-0.35984 0.160004,0.33597 0.05333,0.6958 0.106669,-0.36115 0.160004,0.33705 0.05333,0.6982 0.106669,-0.36261 0.160004,0.33798 0.05333,0.70059 0.106669,-0.36421 0.160004,0.33877 0.05333,0.70298 0.10667,-0.36596 0.160004,0.33941 0.05333,0.70537 0.10667,-0.36788 0.160005,0.33989 0.05333,0.70776 0.106669,-0.36994 0.160004,0.34022 0.05333,0.71015 0.106669,-0.37215 0.160004,0.3404 0.05333,0.71254 0.106669,-0.37451 0.160004,0.34043"
       style="opacity:0.73600003;fill:none;fill-opacity:1;stroke:#f50000;stroke-width:0.5;stroke-miterlimit:4;stroke-dasharray:none;stroke-dashoffset:0;stroke-opacity:1"
       inkscape:connector-curvature="0"
       transform="translate(12.472387,-7.5335522)" />
    <rect
       style="opacity:0.73600003;fill:none;fill-opacity:1;stroke:#000000;stroke-width:0.5;stroke-miterlimit:4;stroke-dasharray:none;stroke-dashoffset:0;stroke-opacity:1"
       id="rect6387"
       width="47.841251"
       height="35.546848"
       x="55.101868"
       y="171.19965"
       ry="0" />
    <path
       style="fill:none;stroke:#000000;stroke-width:0.26458332;stroke-linecap:butt;stroke-linejoin:miter;stroke-miterlimit:4;stroke-dasharray:1.05833328, 1.05833328;stroke-dashoffset:0;stroke-opacity:1"
       d="m 75.013456,147.01178 27.929634,24.1879"
       id="path5689"
       inkscape:connector-curvature="0" />
    <path
       style="fill:none;stroke:#000000;stroke-width:0.26458332;stroke-linecap:butt;stroke-linejoin:miter;stroke-miterlimit:4;stroke-dasharray:1.05833328, 1.05833328;stroke-dashoffset:0;stroke-opacity:1"
       d="m 27.172212,182.55863 27.929655,24.1879"
       id="path5691"
       inkscape:connector-curvature="0" />
    <path
       style="fill:none;stroke:#000000;stroke-width:0.74736476;stroke-linecap:butt;stroke-linejoin:miter;stroke-miterlimit:4;stroke-dasharray:none;stroke-opacity:1"
       d="m 129.95808,184.9538 h 28.07749 l -6.66245,-4.46488 6.66245,4.46488 -6.66245,4.20224"
       id="path5738-0-6"
       inkscape:connector-curvature="0" />
    <text
       xml:space="preserve"
       style="font-style:normal;font-variant:normal;font-weight:normal;font-stretch:normal;font-size:10.58333302px;line-height:1.25;font-family:sans-serif;-inkscape-font-specification:sans-serif;letter-spacing:0px;word-spacing:0px;fill:#000000;fill-opacity:1;stroke:none;stroke-width:0.26458332"
       x="122.21272"
       y="162.37521"
       id="text5772"><tspan
         sodipodi:role="line"
         id="tspan5770"
         x="122.21272"
         y="162.37521"
         style="font-size:7.05555534px;stroke-width:0.26458332">destructive </tspan><tspan
         sodipodi:role="line"
         x="122.21272"
         y="175.60439"
         style="font-size:7.05555534px;stroke-width:0.26458332"
         id="tspan5774">interference*</tspan></text>
    <path
       id="path6395"
       clip-path="url(#clipPath8)"
       title="sin(x)"
       d="m 51.926865,186.4424 c 0.05334,0.35738 0.106669,-0.69393 0.160004,-0.33424 0.05333,0.35969 0.10667,-0.6957 0.160004,-0.33369 0.05333,0.36201 0.10667,-0.69733 0.160005,-0.33301 0.05333,0.36433 0.106669,-0.6988 0.160004,-0.33216 0.05333,0.36664 0.106669,-0.70015 0.160004,-0.33119 0.05333,0.36896 0.106669,-0.70134 0.160004,-0.33006 0.05333,0.37127 0.10667,-0.7024 0.160004,-0.32881 0.05333,0.37359 0.10667,-0.7033 0.160004,-0.3274 0.05333,0.37591 0.10667,-0.70407 0.160005,-0.32585 0.05333,0.37822 0.106669,-0.7047 0.160004,-0.32417 0.05333,0.38054 0.106669,-0.70519 0.160004,-0.32234 0.05333,0.38285 0.106669,-0.70555 0.160004,-0.32038 0.05333,0.38517 0.10667,-0.70576 0.160004,-0.31828 0.05333,0.38748 0.10667,-0.70584 0.160005,-0.31604 0.05333,0.3898 0.106669,-0.70578 0.160004,-0.31367 0.05333,0.39211 0.106669,-0.70559 0.160004,-0.31116 0.05333,0.39443 0.106669,-0.70526 0.160004,-0.30852 0.05334,0.39675 0.10667,-0.7048 0.160004,-0.30574 0.05334,0.39906 0.10667,-0.70421 0.160004,-0.30283 0.05334,0.40137 0.10667,-0.7035 0.160005,-0.2998 0.05333,0.40369 0.106669,-0.70264 0.160004,-0.29664 0.05334,0.40601 0.106669,-0.70166 0.160004,-0.29333 0.05334,0.40832 0.10667,-0.70057 0.160004,-0.28993 0.05334,0.41065 0.10667,-0.69933 0.160004,-0.28637 0.05334,0.41295 0.10667,-0.69798 0.160005,-0.28271 0.05333,0.41527 0.106669,-0.69651 0.160004,-0.27892 0.05334,0.41758 0.106669,-0.69492 0.160004,-0.27502 0.05334,0.41991 0.106669,-0.6932 0.160004,-0.27098 0.05334,0.42222 0.10667,-0.69138 0.160004,-0.26684 0.05333,0.42453 0.10667,-0.68944 0.160005,-0.26259 0.05333,0.42685 0.106669,-0.68738 0.160004,-0.25821 0.05333,0.42916 0.106669,-0.68522 0.160004,-0.25374 0.05333,0.43149 0.106669,-0.68294 0.160004,-0.24914 0.05333,0.4338 0.10667,-0.68055 0.160004,-0.24444 0.05333,0.43612 0.10667,-0.67807 0.160004,-0.23964 0.05333,0.43843 0.10667,-0.67548 0.160005,-0.23473 0.05333,0.44074 0.106669,-0.67279 0.160004,-0.22973 0.05333,0.44306 0.106669,-0.67 0.160004,-0.22462 0.05333,0.44538 0.106669,-0.66711 0.160004,-0.21942 0.05333,0.4477 0.10667,-0.66413 0.160004,-0.21412 0.05333,0.45001 0.10667,-0.66105 0.160005,-0.20873 0.05333,0.45233 0.106669,-0.65789 0.160004,-0.20325 0.05333,0.45464 0.106669,-0.65465 0.160004,-0.19769 0.05333,0.45696 0.106669,-0.65131 0.160004,-0.19203 0.05333,0.45927 0.10667,-0.6479 0.160004,-0.18631 0.05334,0.46159 0.10667,-0.64439 0.160004,-0.18049 0.05334,0.46391 0.10667,-0.64081 0.160005,-0.17459 0.05333,0.46622 0.106669,-0.63717 0.160004,-0.16863 0.05333,0.46853 0.106669,-0.63345 0.160004,-0.1626 0.05334,0.47086 0.106669,-0.62965 0.160004,-0.15648 0.05334,0.47317 0.10667,-0.62579 0.160004,-0.15031 0.05334,0.47549 0.10667,-0.62186 0.160005,-0.14406 0.05333,0.4778 0.106669,-0.61788 0.160004,-0.13777 0.05333,0.48012 0.106669,-0.61383 0.160004,-0.1314 0.05334,0.48243 0.106669,-0.60973 0.160004,-0.12498 0.05334,0.48474 0.10667,-0.60557 0.160004,-0.11851 0.05334,0.48706 0.10667,-0.60137 0.160004,-0.11199 0.05333,0.48938 0.10667,-0.59711 0.160005,-0.10542 0.05333,0.4917 0.106669,-0.59281 0.160004,-0.0988 0.05334,0.49401 0.106669,-0.58846 0.160004,-0.0921 0.05333,0.49633 0.106669,-0.58408 0.160004,-0.0854 0.05333,0.49864 0.10667,-0.57967 0.160004,-0.0787 0.05333,0.50096 0.10667,-0.57521 0.160005,-0.0719 0.05333,0.50327 0.106669,-0.57072 0.160004,-0.0651 0.05333,0.50559 0.106669,-0.56621 0.160004,-0.0583 0.05333,0.5079 0.106669,-0.56168 0.160004,-0.0515 0.05333,0.51022 0.10667,-0.55712 0.160004,-0.0446 0.05333,0.51253 0.10667,-0.55254 0.160005,-0.0377 0.05333,0.51485 0.106669,-0.54794 0.160004,-0.0308 0.05333,0.51716 0.106669,-0.54334 0.160004,-0.0239 0.05333,0.51949 0.106669,-0.53871 0.160004,-0.0169 0.05333,0.5218 0.10667,-0.53409 0.160004,-0.01 0.05333,0.52411 0.10667,-0.52946 0.160004,-0.003 0.05333,0.52643 0.10667,-0.52483 0.160005,0.004 0.05333,0.52874 0.106669,-0.5202 0.160004,0.0109 0.05333,0.53106 0.106669,-0.51557 0.160004,0.0178 0.05334,0.53338 0.106669,-0.51095 0.160004,0.0247 0.05334,0.53569 0.10667,-0.50635 0.160004,0.0317 0.05334,0.53801 0.10667,-0.50176 0.160005,0.0386 0.05333,0.54033 0.106669,-0.49718 0.160004,0.0455 0.05333,0.54264 0.106669,-0.49262 0.160004,0.0523 0.05334,0.54495 0.106669,-0.48809 0.160004,0.0592 0.05334,0.54727 0.10667,-0.48358 0.160004,0.066 0.05334,0.54958 0.10667,-0.4791 0.160004,0.0728 0.05334,0.5519 0.10667,-0.47465 0.160005,0.0796 0.05333,0.55422 0.106669,-0.47024 0.160004,0.0863 0.05334,0.55653 0.106669,-0.46586 0.160004,0.093 0.05334,0.55885 0.106669,-0.46152 0.160004,0.0996 0.05334,0.56117 0.10667,-0.45722 0.160004,0.10626 0.05334,0.56348 0.10667,-0.45298 0.160005,0.11282 0.05333,0.5658 0.106669,-0.44877 0.160004,0.11934 0.05333,0.56812 0.106669,-0.44462 0.160004,0.12581 0.05334,0.57043 0.106669,-0.44053 0.160004,0.13221 0.05334,0.57275 0.10667,-0.43649 0.160004,0.13858 0.05334,0.57506 0.10667,-0.43252 0.160004,0.14486 0.05334,0.57738 0.10667,-0.42859 0.160005,0.1511 0.05333,0.57969 0.106669,-0.42474 0.160004,0.15727 0.05334,0.58201 0.106669,-0.42096 0.160004,0.16336 0.05334,0.58433 0.106669,-0.41724 0.160004,0.1694 0.05334,0.58664 0.10667,-0.4136 0.160004,0.17535 0.05334,0.58896 0.10667,-0.41003 0.160005,0.18124 0.05333,0.59127 0.106669,-0.40655 0.160004,0.18704 0.05333,0.59359 0.106669,-0.40314 0.160004,0.19276 0.05334,0.5959 0.106669,-0.39982 0.160004,0.1984 0.05333,0.59822 0.10667,-0.39657 0.160004,0.20396 0.05333,0.60054 0.10667,-0.39343 0.160004,0.20943 0.05333,0.60285 0.10667,-0.39037 0.160005,0.2148 0.05333,0.60516 0.106669,-0.3874 0.160004,0.22008 0.05333,0.60749 0.106669,-0.38452 0.160004,0.22528 0.05333,0.6098 0.10667,-0.38174 0.160004,0.23037 0.05333,0.61212 0.10667,-0.37906 0.160004,0.23537 0.05333,0.61443 0.10667,-0.37649 0.160005,0.24026 0.05333,0.61674 0.106669,-0.37402 0.160004,0.24504 0.05333,0.61907 0.106669,-0.37164 0.160004,0.24974 0.05333,0.62137 0.106669,-0.36939 0.160004,0.25431 0.05333,0.62369 0.10667,-0.36723 0.160004,0.25878 0.05333,0.626 0.10667,-0.36519 0.160005,0.26313 0.05333,0.62832 0.106669,-0.36326 0.160004,0.26738 0.05333,0.63064 0.106669,-0.36145 0.160004,0.2715 0.05333,0.63296 0.106669,-0.35975 0.160004,0.27552 0.05333,0.63527 0.10667,-0.35817 0.160004,0.27941 0.05334,0.63759 0.10667,-0.35672 0.160004,0.28319 0.05334,0.6399 0.10667,-0.35538 0.160005,0.28683 0.05333,0.64222 0.106669,-0.35417 0.160004,0.29037 0.05333,0.64453 0.106669,-0.35308 0.160004,0.29377 0.05334,0.64685 0.106669,-0.35213 0.160004,0.29704 0.05334,0.64917 0.10667,-0.35129 0.160004,0.30019 0.05334,0.65149 0.10667,-0.35058 0.160005,0.30322 0.05333,0.6538 0.106669,-0.35001 0.160004,0.3061 0.05333,0.65611 0.106669,-0.34957 0.160004,0.30886 0.05334,0.65843 0.106669,-0.34926 0.160004,0.31149 0.05334,0.66074 0.10667,-0.34908 0.160004,0.31398 0.05334,0.66306 0.10667,-0.34905 0.160004,0.31633 0.05334,0.66538 0.10667,-0.34914 0.160005,0.31856 0.05333,0.66769 0.106669,-0.34937 0.160004,0.32064 0.05334,0.67 0.106669,-0.34974 0.160004,0.32258 0.05334,0.67232 0.106669,-0.35025 0.160004,0.32439 0.05334,0.67464 0.10667,-0.3509 0.160004,0.32606 0.05334,0.67696 0.10667,-0.35169 0.160005,0.32758 0.05333,0.67928 0.106669,-0.35261 0.160004,0.32898 0.05333,0.68158 0.106669,-0.35369 0.160004,0.33021 0.05334,0.68391 0.106669,-0.3549 0.160004,0.33132 0.05334,0.68622 0.10667,-0.35625 0.160004,0.33228 0.05334,0.68854 0.10667,-0.35775 0.160004,0.3331 0.05334,0.69085 0.10667,-0.35939 0.160005,0.33377 0.05333,0.69317 0.106669,-0.36117 0.160004,0.33431 0.05334,0.69548 0.106669,-0.36311 0.160004,0.33469 0.05334,0.6978 0.106669,-0.36518 0.160004,0.33493 0.05334,0.70012 0.10667,-0.36739 0.160004,0.33504 0.05334,0.70243 0.10667,-0.36976 0.160005,0.33498 0.05333,0.70475 0.106669,-0.37226 0.160004,0.3348 0.05334,0.70706 0.106669,-0.37491 0.160004,0.33447 0.05334,0.70938 0.106669,-0.3777 0.160004,0.33399 0.05334,0.71169 0.10667,-0.38064 0.160004,0.33337 0.05334,0.71401 0.10667,-0.38372 0.160005,0.33261 0.05333,0.71632 0.106669,-0.38694 0.160004,0.3317 0.05333,0.71864 0.106669,-0.39031 0.160004,0.33065 0.05334,0.72095 0.106669,-0.39381 0.160004,0.32946 0.05334,0.72327 0.10667,-0.39746 0.160004,0.32812 0.05334,0.72559 0.10667,-0.40125 0.160004,0.32666 0.05334,0.7279 0.10667,-0.40518 0.160005,0.32503 0.05333,0.73022 0.106669,-0.40925 0.160004,0.32329 0.05334,0.73253 0.106669,-0.41346 0.160004,0.32139 0.05334,0.73485 0.106669,-0.41781 0.160004,0.31936 0.05333,0.73717 0.10667,-0.42229 0.160004,0.31719 0.05333,0.73948 0.10667,-0.42691 0.160005,0.31488 0.05333,0.7418 0.106669,-0.43166 0.160004,0.31245 0.05333,0.74411 0.106669,-0.43656 0.160004,0.30987 0.05333,0.74643 0.106669,-0.44158 0.160004,0.30716 0.05333,0.74875 0.10667,-0.44674 0.160004,0.30432 0.05333,0.75106 0.10667,-0.45202 0.160004,0.30135 0.05333,0.75338 0.10667,-0.45744 0.160005,0.29825 0.05333,0.7557 0.106669,-0.46298 0.160004,0.29503 0.05333,0.75801 0.106669,-0.46866 0.160004,0.29166 0.05333,0.76033 0.106669,-0.47445 0.160004,0.28819 0.05333,0.76264 0.10667,-0.48038 0.160004,0.28458 0.05333,0.76495 0.10667,-0.48642 0.160005,0.28085 0.05333,0.76727 0.106669,-0.49258 0.160004,0.27701 0.05333,0.76958 0.106669,-0.49887 0.160004,0.27303 0.05333,0.77191 0.106669,-0.50526 0.160004,0.26896 0.05333,0.77421 0.10667,-0.51179 0.160004,0.26475 0.05334,0.77653 0.10667,-0.51841 0.160004,0.26044 0.05334,0.77885 0.10667,-0.52516 0.160005,0.25601 0.05333,0.78117 0.106669,-0.53201 0.160004,0.25148 0.05333,0.78348 0.106669,-0.53897 0.160004,0.24683 0.05334,0.7858 0.106669,-0.54603 0.160004,0.24208 0.05334,0.78812 0.10667,-0.5532 0.160004,0.23723 0.05334,0.79043 0.10667,-0.56047 0.160005,0.23227 0.05333,0.79275 0.106669,-0.56784 0.160004,0.22722 0.05333,0.79506 0.106669,-0.57532 0.160004,0.22206 0.05334,0.79737 0.106669,-0.58288 0.160004,0.21681 0.05334,0.79969 0.10667,-0.59054 0.160004,0.21147 0.05334,0.80201 0.10667,-0.59829 0.160005,0.20603 0.05333,0.80433 0.106669,-0.60612 0.160004,0.20052 0.05333,0.80664 0.106669,-0.61405 0.160004,0.1949 0.05334,0.80896 0.106669,-0.62206 0.160004,0.18922 0.05334,0.81127 0.10667,-0.63015 0.160004,0.18344 0.05334,0.81358 0.10667,-0.63832 0.160004,0.17758 0.05334,0.81591 0.10667,-0.64656 0.160005,0.17166 0.05333,0.81822 0.106669,-0.65488 0.160004,0.16566 0.05334,0.82053 0.106669,-0.66327 0.160004,0.15958 0.05334,0.82285 0.106669,-0.67173 0.160004,0.15344 0.05334,0.82516 0.10667,-0.68025 0.160004,0.14723 0.05334,0.82748 0.10667,-0.68884 0.160005,0.14096 0.05333,0.8298 0.106669,-0.69749 0.160004,0.13463 0.05333,0.83211 0.106669,-0.7062 0.160004,0.12823 0.05334,0.83443 0.106669,-0.71495 0.160004,0.12179 0.05334,0.83675 0.10667,-0.72376 0.160004,0.1153 0.05334,0.83906 0.10667,-0.73263 0.160004,0.10874 0.05334,0.84138 0.10667,-0.74153 0.160005,0.10216 0.05333,0.84369 0.106669,-0.7505 0.160004,0.0955 0.05334,0.84601 0.106669,-0.75949 0.160004,0.0888 0.05334,0.84832 0.106669,-0.76852 0.160004,0.0821 0.05334,0.85064 0.10667,-0.77759 0.160004,0.0754 0.05334,0.85296 0.10667,-0.78669 0.160005,0.0686 0.05333,0.85528 0.106669,-0.79582 0.160004,0.0618 0.05333,0.85759 0.106669,-0.80498 0.160004,0.0549 0.05334,0.8599 0.106669,-0.81416 0.160004,0.0481 0.05334,0.86222 0.10667,-0.82336 0.160004,0.0412 0.05334,0.86453 0.10667,-0.83258 0.160004,0.0343 0.05334,0.86685 0.10667,-0.84181 0.160005,0.0273 0.05333,0.86917 0.106669,-0.85105 0.160004,0.0204 0.05334,0.87148 0.106669,-0.86031 0.160004,0.0135 0.05334,0.8738 0.106669,-0.86957 0.160004,0.007 0.05333,0.87612 0.10667,-0.87883 0.160004,-4e-4 0.05333,0.87843 0.10667,-0.88809 0.160005,-0.007 0.05333,0.88075 0.106669,-0.89735 0.160004,-0.0143 0.05333,0.88306 0.106669,-0.90661 0.160004,-0.0212 0.05333,0.88537 0.106669,-0.91585 0.160004,-0.0282 0.05333,0.88769 0.10667,-0.92508 0.160004,-0.0351 0.05333,0.89 0.10667,-0.9343 0.160004,-0.042 0.05333,0.89232 0.10667,-0.9435 0.160005,-0.0489 0.05333,0.89464 0.106669,-0.95267 0.160004,-0.0557 0.05333,0.89696 0.106669,-0.96183 0.160004,-0.0626 0.05333,0.89927 0.106669,-0.97095 0.160004,-0.0694 0.05333,0.90159 0.10667,-0.98005 0.160004,-0.0761 0.05333,0.9039 0.10667,-0.98912 0.160005,-0.0829 0.05333,0.90622 0.106669,-0.99814 0.160004,-0.0896 0.05333,0.90853 0.106669,-1.00714 0.160004,-0.0963 0.05333,0.91085 0.106669,-1.01608 0.160004,-0.10292 0.05333,0.91317 0.10667,-1.02499 0.160004,-0.1095 0.05334,0.91548 0.10667,-1.03385 0.160005,-0.11605 0.05333,0.91779 0.106669,-1.04266 0.160004,-0.12255 0.05333,0.92012 0.106669,-1.05141 0.160004,-0.12898 0.05334,0.92243 0.106669,-1.06011 0.160004,-0.13536 0.05334,0.92474 0.10667,-1.06875 0.160004,-0.14169 0.05334,0.92706 0.10667,-1.07733 0.160004,-0.14795 0.05334,0.92937 0.10667,-1.08585 0.160005,-0.15416 0.05333,0.93169 0.106669,-1.0943 0.160004,-0.16029 0.05334,0.93401 0.106669,-1.10268 0.160004,-0.16635 0.05334,0.93632 0.106669,-1.11099 0.160004,-0.17235 0.05334,0.93864 0.10667,-1.11923 0.160004,-0.17827 0.05334,0.94095 0.10667,-1.12739 0.160005,-0.18412 0.05333,0.94327 0.106669,-1.13546 0.160004,-0.18987 0.05333,0.94558 0.106669,-1.14347 0.160004,-0.19556 0.05334,0.9479 0.106669,-1.15138 0.160004,-0.20116 0.05334,0.95022 0.10667,-1.15921 0.160004,-0.20667 0.05334,0.95253 0.10667,-1.16695 0.160004,-0.2121 0.05334,0.95486 0.10667,-1.17459 0.160005,-0.21742 0.05333,0.95717 0.106669,-1.18215 0.160004,-0.22266 0.05334,0.95948 0.106669,-1.18961 0.160004,-0.22781 0.05334,0.9618 0.106669,-1.19697 0.160004,-0.23285 0.05334,0.96411 0.10667,-1.20423 0.160004,-0.2378 0.05334,0.96643 0.10667,-1.21138 0.160005,-0.24264 0.05333,0.96875 0.106669,-1.21843 0.160004,-0.24737 0.05333,0.97106 0.106669,-1.22539 0.160004,-0.25201 0.05334,0.97338 0.106669,-1.23223 0.160004,-0.25653 0.05334,0.97569 0.10667,-1.23896 0.160004,-0.26095 0.05334,0.97801 0.10667,-1.24557 0.160004,-0.26524 0.05334,0.98032 0.10667,-1.25208 0.160005,-0.26944 0.05333,0.98264 0.106669,-1.25845 0.160004,-0.2735 0.05334,0.98496 0.106669,-1.26473 0.160004,-0.27746 0.05334,0.98727 0.106669,-1.27087 0.160004,-0.28129 0.05334,0.98959 0.10667,-1.2769 0.160004,-0.285 0.05334,0.9919 0.10667,-1.28282 0.160005,-0.2886 0.05333,0.99422 0.106669,-1.28859 0.160004,-0.29206 0.05333,0.99654 0.106669,-1.29425 0.160004,-0.2954 0.05334,0.99885 0.106669,-1.29978 0.160004,-0.29862 0.05334,1.00117 0.10667,-1.30518 0.160004,-0.3017 0.05334,1.00348 0.10667,-1.31045 0.160005,-0.30466 0.05333,1.0058 0.106669,-1.31559 0.160004,-0.30748 0.05333,1.00811 0.106669,-1.3206 0.160004,-0.31018 0.05334,1.01043 0.106669,-1.32548 0.160004,-0.31273 0.05334,1.01274 0.10667,-1.33022 0.160004,-0.31516 0.05333,1.01506 0.10667,-1.33483 0.160004,-0.31745 0.05333,1.01738 0.10667,-1.33929 0.160005,-0.3196 0.05333,1.01969 0.106669,-1.34363 0.160004,-0.32162 0.05334,1.02201 0.106669,-1.34782 0.160004,-0.32349 0.05333,1.02432 0.106669,-1.35187 0.160004,-0.32523 0.05333,1.02663 0.10667,-1.35579 0.160004,-0.32684 0.05333,1.02896 0.10667,-1.35955 0.160005,-0.32828 0.05333,1.03127 0.106669,-1.3632 0.160004,-0.32961 0.05333,1.03359 0.106669,-1.36668 0.160004,-0.33078 0.05333,1.0359 0.106669,-1.37003 0.160004,-0.33181 0.05333,1.03822 0.10667,-1.37324 0.160004,-0.3327 0.05333,1.04053 0.10667,-1.3763 0.160004,-0.33345 0.05333,1.04285 0.10667,-1.37922 0.160005,-0.33406 0.05333,1.04517 0.106669,-1.38199 0.160004,-0.33451 0.05333,1.04748 0.106669,-1.38462 0.160004,-0.33483"
       style="opacity:0.73600003;fill:none;fill-opacity:1;stroke:#0011ff;stroke-width:0.5;stroke-miterlimit:4;stroke-dasharray:none;stroke-dashoffset:0;stroke-opacity:1"
       inkscape:connector-curvature="0"
       transform="translate(3.1750001,1.5875)" />
    <rect
       style="opacity:0.73600003;fill:none;fill-opacity:1;stroke:#000000;stroke-width:0.5;stroke-miterlimit:4;stroke-dasharray:none;stroke-dashoffset:0;stroke-opacity:1"
       id="rect6387-5"
       width="47.841255"
       height="35.546848"
       x="192.05493"
       y="163.07445"
       ry="0" />
    <ellipse
       style="opacity:1;fill:#e90000;fill-opacity:1;stroke:#000000;stroke-width:0.20489725;stroke-miterlimit:4;stroke-dasharray:none;stroke-dashoffset:0;stroke-opacity:1"
       id="path5268-3-0"
       cx="210.39034"
       cy="260.49951"
       rx="9.7127895"
       ry="13.721767" />
    <ellipse
       style="opacity:0.73600003;fill:#0002e9;fill-opacity:1;stroke:#000000;stroke-width:0.19683529;stroke-miterlimit:4;stroke-dasharray:none;stroke-dashoffset:0;stroke-opacity:1"
       id="path5268-0-5-3"
       cx="248.47275"
       cy="260.17307"
       rx="8.9608679"
       ry="13.7258" />
    <ellipse
       style="opacity:0.73600003;fill:#000000;fill-opacity:1;stroke:none;stroke-width:0.47090185;stroke-miterlimit:4;stroke-dasharray:none;stroke-dashoffset:0;stroke-opacity:1"
       id="path5798-5-5"
       cx="216.4353"
       cy="260.93683"
       rx="0.66817379"
       ry="0.70021987" />
    <ellipse
       style="opacity:0.73600003;fill:#000000;fill-opacity:1;stroke:none;stroke-width:0.47090185;stroke-miterlimit:4;stroke-dasharray:none;stroke-dashoffset:0;stroke-opacity:1"
       id="path5798-0-4"
       cx="242.62766"
       cy="260.68771"
       rx="0.66817379"
       ry="0.70021987" />
    <path
       style="fill:none;stroke:#000000;stroke-width:0.26458332px;stroke-linecap:butt;stroke-linejoin:miter;stroke-opacity:1"
       d="m 192.95684,181.71724 h 45.92411"
       id="path853"
       inkscape:connector-curvature="0" />
  </g>
</svg>
