<?xml version="1.0" encoding="UTF-8" standalone="no"?>
<!-- Created with Inkscape (http://www.inkscape.org/) -->

<svg
   xmlns:dc="http://purl.org/dc/elements/1.1/"
   xmlns:cc="http://creativecommons.org/ns#"
   xmlns:rdf="http://www.w3.org/1999/02/22-rdf-syntax-ns#"
   xmlns:svg="http://www.w3.org/2000/svg"
   xmlns="http://www.w3.org/2000/svg"
   xmlns:sodipodi="http://sodipodi.sourceforge.net/DTD/sodipodi-0.dtd"
   xmlns:inkscape="http://www.inkscape.org/namespaces/inkscape"
   width="1000"
   height="400"
   viewBox="0 0 264.58333 105.83334"
   version="1.1"
   id="svg8"
   inkscape:version="0.92.4 (5da689c313, 2019-01-14)"
   sodipodi:docname="Fig9_15_molecularReactivity.svg">
  <defs
     id="defs2">
    <pattern
       y="0"
       x="0"
       height="6"
       width="6"
       patternUnits="userSpaceOnUse"
       id="EMFhbasepattern" />
    <pattern
       y="0"
       x="0"
       height="6"
       width="6"
       patternUnits="userSpaceOnUse"
       id="EMFhbasepattern-9" />
    <pattern
       y="0"
       x="0"
       height="6"
       width="6"
       patternUnits="userSpaceOnUse"
       id="EMFhbasepattern-7" />
  </defs>
  <sodipodi:namedview
     id="base"
     pagecolor="#ffffff"
     bordercolor="#666666"
     borderopacity="1.0"
     inkscape:pageopacity="0.0"
     inkscape:pageshadow="2"
     inkscape:zoom="0.98994949"
     inkscape:cx="283.31462"
     inkscape:cy="180.81942"
     inkscape:document-units="mm"
     inkscape:current-layer="layer1"
     showgrid="false"
     units="px"
     inkscape:window-width="2560"
     inkscape:window-height="1017"
     inkscape:window-x="-8"
     inkscape:window-y="-8"
     inkscape:window-maximized="1" />
  <metadata
     id="metadata5">
    <rdf:RDF>
      <cc:Work
         rdf:about="">
        <dc:format>image/svg+xml</dc:format>
        <dc:type
           rdf:resource="http://purl.org/dc/dcmitype/StillImage" />
        <dc:title />
      </cc:Work>
    </rdf:RDF>
  </metadata>
  <g
     inkscape:label="Layer 1"
     inkscape:groupmode="layer"
     id="layer1"
     transform="translate(0,-191.16665)">
    <text
       id="text904"
       y="272.96329"
       x="75.984077"
       style="font-style:normal;font-variant:normal;font-weight:400;font-size:9.25111485px;line-height:125%;font-family:Arial;text-align:start;letter-spacing:0px;word-spacing:0px;text-anchor:start;fill:#000000;fill-opacity:1;stroke:none;stroke-width:0.41461575"
       xml:space="preserve"
       transform="scale(1.0241166,0.97645133)"><tspan
         id="tspan902"
         y="272.96329"
         x="75.984077"
         sodipodi:role="line"
         style="stroke-width:0.41461575"><tspan
           id="tspan896"
           style="font-style:normal;font-variant:normal;font-weight:400;font-size:9.25111485px;font-family:Arial;fill:#000000;stroke-width:0.41461575"
           dy="0"
           dx="0">H</tspan><tspan
           id="tspan898"
           style="font-style:normal;font-variant:normal;font-weight:400;font-size:6.81524706px;font-family:Arial;fill:#000000;stroke-width:0.41461575"
           dy="1.9493436"
           dx="0">3</tspan><tspan
           id="tspan900"
           style="font-style:normal;font-variant:normal;font-weight:700;font-size:9.25111485px;font-family:Arial;fill:#ff0000;stroke-width:0.41461575"
           dy="-2.4366794"
           dx="0">C</tspan></tspan></text>
    <text
       id="text910"
       y="258.83054"
       x="111.07225"
       style="font-style:normal;font-variant:normal;font-weight:700;font-size:9.25111485px;line-height:125%;font-family:Arial;text-align:start;letter-spacing:0px;word-spacing:0px;text-anchor:start;fill:#000000;fill-opacity:1;stroke:none;stroke-width:0.41461575"
       xml:space="preserve"
       transform="scale(1.0241166,0.97645133)"><tspan
         id="tspan908"
         y="258.83054"
         x="111.07225"
         sodipodi:role="line"
         style="stroke-width:0.41461575"><tspan
           id="tspan906"
           style="font-style:normal;font-variant:normal;font-weight:700;font-size:9.25111485px;font-family:Arial;fill:#ff0000;stroke-width:0.41461575"
           dy="0"
           dx="0">C</tspan></tspan></text>
    <path
       id="path912"
       d="m 96.813105,260.25998 15.658915,-8.59521"
       style="fill:none;stroke:#000000;stroke-width:0.94421321px;stroke-linecap:round;stroke-linejoin:miter;stroke-miterlimit:2;stroke-dasharray:none;stroke-opacity:1"
       inkscape:connector-curvature="0" />
    <text
       id="text918"
       y="272.47595"
       x="134.95171"
       style="font-style:normal;font-variant:normal;font-weight:700;font-size:9.25111485px;line-height:125%;font-family:Arial;text-align:start;letter-spacing:0px;word-spacing:0px;text-anchor:start;fill:#000000;fill-opacity:1;stroke:none;stroke-width:0.41461575"
       xml:space="preserve"
       transform="scale(1.0241166,0.97645133)"><tspan
         id="tspan916"
         y="272.47595"
         x="134.95171"
         sodipodi:role="line"
         style="stroke-width:0.41461575"><tspan
           id="tspan914"
           style="font-style:normal;font-variant:normal;font-weight:700;font-size:9.25111485px;font-family:Arial;fill:#ff0000;stroke-width:0.41461575"
           dy="0"
           dx="0">C</tspan></tspan></text>
    <path
       id="path920"
       d="m 121.58039,251.72424 15.72129,8.65471"
       style="fill:none;stroke:#000000;stroke-width:0.94421321px;stroke-linecap:round;stroke-linejoin:miter;stroke-miterlimit:2;stroke-dasharray:none;stroke-opacity:1"
       inkscape:connector-curvature="0" />
    <text
       id="text926"
       y="231.05238"
       x="110.58492"
       style="font-style:normal;font-variant:normal;font-weight:700;font-size:9.25111485px;line-height:125%;font-family:Arial;text-align:start;letter-spacing:0px;word-spacing:0px;text-anchor:start;fill:#000000;fill-opacity:1;stroke:none;stroke-width:0.41461575"
       xml:space="preserve"
       transform="scale(1.0241166,0.97645133)"><tspan
         id="tspan924"
         y="231.05238"
         x="110.58492"
         sodipodi:role="line"
         style="stroke-width:0.41461575"><tspan
           id="tspan922"
           style="font-style:normal;font-variant:normal;font-weight:700;font-size:9.25111485px;font-family:Arial;fill:#ff0000;stroke-width:0.41461575"
           dy="0"
           dx="0">O</tspan></tspan></text>
    <path
       id="path928"
       d="M 115.24819,244.25919 V 227.39592"
       style="fill:none;stroke:#000000;stroke-width:0.94421321px;stroke-linecap:round;stroke-linejoin:miter;stroke-miterlimit:2;stroke-dasharray:none;stroke-opacity:1"
       inkscape:connector-curvature="0" />
    <path
       id="path930"
       d="M 118.64824,244.25919 V 227.39592"
       style="fill:none;stroke:#000000;stroke-width:0.94421321px;stroke-linecap:round;stroke-linejoin:miter;stroke-miterlimit:2;stroke-dasharray:none;stroke-opacity:1"
       inkscape:connector-curvature="0" />
    <text
       id="text936"
       y="258.83054"
       x="158.83119"
       style="font-style:normal;font-variant:normal;font-weight:700;font-size:9.25111485px;line-height:125%;font-family:Arial;text-align:start;letter-spacing:0px;word-spacing:0px;text-anchor:start;fill:#000000;fill-opacity:1;stroke:none;stroke-width:0.41461575"
       xml:space="preserve"
       transform="scale(1.0241166,0.97645133)"><tspan
         id="tspan934"
         y="258.83054"
         x="158.83119"
         sodipodi:role="line"
         style="stroke-width:0.41461575"><tspan
           id="tspan932"
           style="font-style:normal;font-variant:normal;font-weight:700;font-size:9.25111485px;font-family:Arial;fill:#ff0000;stroke-width:0.41461575"
           dy="0"
           dx="0">C</tspan></tspan></text>
    <path
       id="path938"
       d="m 146.06693,260.28972 15.65891,-8.62495"
       style="fill:none;stroke:#000000;stroke-width:0.94421321px;stroke-linecap:round;stroke-linejoin:miter;stroke-miterlimit:2;stroke-dasharray:none;stroke-opacity:1"
       inkscape:connector-curvature="0" />
    <path
       id="path940"
       d="m 144.35131,257.46431 15.65891,-8.62497"
       style="fill:none;stroke:#000000;stroke-width:0.94421321px;stroke-linecap:round;stroke-linejoin:miter;stroke-miterlimit:2;stroke-dasharray:none;stroke-opacity:1"
       inkscape:connector-curvature="0" />
    <text
       id="text950"
       y="272.47595"
       x="183.19795"
       style="font-style:normal;font-variant:normal;font-weight:700;font-size:9.25111485px;line-height:125%;font-family:Arial;text-align:start;letter-spacing:0px;word-spacing:0px;text-anchor:start;fill:#000000;fill-opacity:1;stroke:none;stroke-width:0.41461575"
       xml:space="preserve"
       transform="scale(1.0241166,0.97645133)"><tspan
         id="tspan948"
         y="272.47595"
         x="183.19795"
         sodipodi:role="line"
         style="stroke-width:0.41461575"><tspan
           id="tspan942"
           style="font-style:normal;font-variant:normal;font-weight:700;font-size:9.25111485px;font-family:Arial;fill:#ff0000;stroke-width:0.41461575"
           dy="0"
           dx="0">C</tspan><tspan
           id="tspan944"
           style="font-style:normal;font-variant:normal;font-weight:400;font-size:9.25111485px;font-family:Arial;fill:#000000;stroke-width:0.41461575"
           dy="0"
           dx="0">H</tspan><tspan
           id="tspan946"
           style="font-style:normal;font-variant:normal;font-weight:400;font-size:6.81524706px;font-family:Arial;fill:#000000;stroke-width:0.41461575"
           dy="1.9493436"
           dx="0">3</tspan></tspan></text>
    <path
       id="path952"
       d="m 170.8342,251.72424 15.7525,8.65471"
       style="fill:none;stroke:#000000;stroke-width:0.94421321px;stroke-linecap:round;stroke-linejoin:miter;stroke-miterlimit:2;stroke-dasharray:none;stroke-opacity:1"
       inkscape:connector-curvature="0" />
    <text
       id="text958"
       y="300.25412"
       x="134.95171"
       style="font-style:normal;font-variant:normal;font-weight:700;font-size:9.25111485px;line-height:125%;font-family:Arial;text-align:start;letter-spacing:0px;word-spacing:0px;text-anchor:start;fill:#000000;fill-opacity:1;stroke:none;stroke-width:0.41461575"
       xml:space="preserve"
       transform="scale(1.0241166,0.97645133)"><tspan
         id="tspan956"
         y="300.25412"
         x="134.95171"
         sodipodi:role="line"
         style="stroke-width:0.41461575"><tspan
           id="tspan954"
           style="font-style:normal;font-variant:normal;font-weight:700;font-size:9.25111485px;font-family:Arial;fill:#ff0000;stroke-width:0.41461575"
           dy="0"
           dx="0">H</tspan></tspan></text>
    <path
       id="path960"
       d="m 141.57512,268.08193 v 17.01199"
       style="fill:none;stroke:#000000;stroke-width:0.94421321px;stroke-linecap:round;stroke-linejoin:miter;stroke-miterlimit:2;stroke-dasharray:none;stroke-opacity:1"
       inkscape:connector-curvature="0" />
    <text
       id="text970"
       y="231.05238"
       x="158.83119"
       style="font-style:normal;font-variant:normal;font-weight:700;font-size:9.25111485px;line-height:125%;font-family:Arial;text-align:start;letter-spacing:0px;word-spacing:0px;text-anchor:start;fill:#000000;fill-opacity:1;stroke:none;stroke-width:0.41461575"
       xml:space="preserve"
       transform="scale(1.0241166,0.97645133)"><tspan
         id="tspan968"
         y="231.05238"
         x="158.83119"
         sodipodi:role="line"
         style="stroke-width:0.41461575"><tspan
           id="tspan962"
           style="font-style:normal;font-variant:normal;font-weight:700;font-size:9.25111485px;font-family:Arial;fill:#ff0000;stroke-width:0.41461575"
           dy="0"
           dx="0">C</tspan><tspan
           id="tspan964"
           style="font-style:normal;font-variant:normal;font-weight:400;font-size:9.25111485px;font-family:Arial;fill:#000000;stroke-width:0.41461575"
           dy="0"
           dx="0">H</tspan><tspan
           id="tspan966"
           style="font-style:normal;font-variant:normal;font-weight:400;font-size:6.81524706px;font-family:Arial;fill:#000000;stroke-width:0.41461575"
           dy="1.9493436"
           dx="0">3</tspan></tspan></text>
    <path
       id="path972"
       d="M 166.21764,244.25919 V 227.54462"
       style="fill:none;stroke:#000000;stroke-width:0.94421321px;stroke-linecap:round;stroke-linejoin:miter;stroke-miterlimit:2;stroke-dasharray:none;stroke-opacity:1"
       inkscape:connector-curvature="0" />
    <text
       id="text980"
       y="247.62183"
       x="39.921204"
       style="font-style:normal;font-variant:normal;font-weight:400;font-size:11.22053909px;line-height:125%;font-family:'Times New Roman';text-align:start;letter-spacing:0px;word-spacing:0px;text-anchor:start;fill:#000000;fill-opacity:1;stroke:none;stroke-width:0.41461575"
       xml:space="preserve"
       transform="scale(1.0241166,0.97645133)"><tspan
         id="tspan978"
         y="247.62183"
         x="39.921204"
         sodipodi:role="line"
         style="stroke-width:0.41461575"><tspan
           id="tspan974"
           style="font-style:normal;font-variant:normal;font-weight:400;font-size:11.22053909px;font-family:'Times New Roman';fill:#0000ff;stroke-width:0.41461575"
           dy="0"
           dx="0">sp</tspan><tspan
           id="tspan976"
           style="font-style:normal;font-variant:normal;font-weight:400;font-size:8.29231548px;font-family:'Times New Roman';fill:#0000ff;stroke-width:0.41461575"
           dy="-4.3860226"
           dx="0">3</tspan></tspan></text>
    <text
       id="text988"
       y="209.12227"
       x="135.43904"
       style="font-style:normal;font-variant:normal;font-weight:400;font-size:11.22053909px;line-height:125%;font-family:'Times New Roman';text-align:start;letter-spacing:0px;word-spacing:0px;text-anchor:start;fill:#000000;fill-opacity:1;stroke:none;stroke-width:0.41461575"
       xml:space="preserve"
       transform="scale(1.0241166,0.97645133)"><tspan
         id="tspan986"
         y="209.12227"
         x="135.43904"
         sodipodi:role="line"
         style="stroke-width:0.41461575"><tspan
           id="tspan982"
           style="font-style:normal;font-variant:normal;font-weight:400;font-size:11.22053909px;font-family:'Times New Roman';fill:#0000ff;stroke-width:0.41461575"
           dy="0"
           dx="0">sp</tspan><tspan
           id="tspan984"
           style="font-style:normal;font-variant:normal;font-weight:400;font-size:8.29231548px;font-family:'Times New Roman';fill:#0000ff;stroke-width:0.41461575"
           dy="-4.3860226"
           dx="0">2</tspan></tspan></text>
    <path
       id="path990"
       d="m 127.94377,210.59212 7.11201,-5.53187 0.65505,0.68405 -7.11201,5.53187 z"
       style="fill:#0000ff;fill-opacity:1;fill-rule:evenodd;stroke:none;stroke-width:0.41461575"
       inkscape:connector-curvature="0" />
    <path
       id="path992"
       d="m 121.89232,215.85632 c 0,0 5.8331,-7.46505 5.8331,-7.46505 0,0 -0.0624,1.69526 0.59266,2.46852 0.68625,0.77327 2.43306,1.07069 2.43306,1.07069 0,0 -8.85882,3.92584 -8.85882,3.92584 0,0 0,0 0,0"
       style="fill:none;stroke:#0000ff;stroke-width:0.09137548px;stroke-linecap:round;stroke-linejoin:miter;stroke-miterlimit:2;stroke-dasharray:none;stroke-opacity:1"
       inkscape:connector-curvature="0" />
    <path
       id="path994"
       d="m 121.89232,215.85632 c 0,0 5.8331,-7.46505 5.8331,-7.46505 0,0 -0.0624,1.69526 0.59266,2.46852 0.68625,0.77327 2.43306,1.07069 2.43306,1.07069 0,0 -8.85882,3.92584 -8.85882,3.92584 0,0 0,0 0,0 z"
       style="fill:#0000ff;fill-opacity:1;fill-rule:nonzero;stroke:none;stroke-width:0.41461575"
       inkscape:connector-curvature="0" />
    <path
       id="path996"
       d="m 126.4465,234.95019 16.00204,-26.43996 0.81101,0.44613 -16.00203,26.43995 z"
       style="fill:#0000ff;fill-opacity:1;fill-rule:evenodd;stroke:none;stroke-width:0.41461575"
       inkscape:connector-curvature="0" />
    <path
       id="path998"
       d="m 122.73453,241.96913 c 0,0 2.68259,-8.98186 2.68259,-8.98186 0,0 0.56149,1.60603 1.46607,2.11162 0.90461,0.50561 2.68261,0.17846 2.68261,0.17846 0,0 -6.83127,6.69178 -6.83127,6.69178 0,0 0,0 0,0"
       style="fill:none;stroke:#0000ff;stroke-width:0.09137548px;stroke-linecap:round;stroke-linejoin:miter;stroke-miterlimit:2;stroke-dasharray:none;stroke-opacity:1"
       inkscape:connector-curvature="0" />
    <path
       id="path1000"
       d="m 122.73453,241.96913 c 0,0 2.68259,-8.98186 2.68259,-8.98186 0,0 0.56149,1.60603 1.46607,2.11162 0.90461,0.50561 2.68261,0.17846 2.68261,0.17846 0,0 -6.83127,6.69178 -6.83127,6.69178 0,0 0,0 0,0 z"
       style="fill:#0000ff;fill-opacity:1;fill-rule:nonzero;stroke:none;stroke-width:0.41461575"
       inkscape:connector-curvature="0" />
    <path
       id="path1002"
       d="m 142.13661,245.15144 3.24406,-34.08346 0.967,0.0892 -3.27528,34.05371 z"
       style="fill:#0000ff;fill-opacity:1;fill-rule:evenodd;stroke:none;stroke-width:0.41461575"
       inkscape:connector-curvature="0" />
    <path
       id="path1004"
       d="m 141.85587,252.97338 c 0,0 -1.49727,-9.21978 -1.49727,-9.21978 0,0 1.21652,1.24912 2.2459,1.36809 1.06056,0.0892 2.49545,-0.92197 2.49545,-0.92197 0,0 -3.24408,8.77366 -3.24408,8.77366 0,0 0,0 0,0"
       style="fill:none;stroke:#0000ff;stroke-width:0.09137548px;stroke-linecap:round;stroke-linejoin:miter;stroke-miterlimit:2;stroke-dasharray:none;stroke-opacity:1"
       inkscape:connector-curvature="0" />
    <path
       id="path1006"
       d="m 141.85587,252.97338 c 0,0 -1.49727,-9.21978 -1.49727,-9.21978 0,0 1.21652,1.24912 2.2459,1.36809 1.06056,0.0892 2.49545,-0.92197 2.49545,-0.92197 0,0 -3.24408,8.77366 -3.24408,8.77366 0,0 0,0 0,0 z"
       style="fill:#0000ff;fill-opacity:1;fill-rule:nonzero;stroke:none;stroke-width:0.41461575"
       inkscape:connector-curvature="0" />
    <path
       id="path1008"
       d="m 157.67074,233.37391 -8.76524,-24.00118 0.87341,-0.32715 8.79643,24.03091 z"
       style="fill:#0000ff;fill-opacity:1;fill-rule:evenodd;stroke:none;stroke-width:0.41461575"
       inkscape:connector-curvature="0" />
    <path
       id="path1010"
       d="m 160.82124,240.60103 c 0,0 -5.3652,-7.76246 -5.3652,-7.76246 0,0 1.65323,0.62456 2.65141,0.29741 0.96698,-0.32716 1.84039,-1.81422 1.84039,-1.81422 0,0 0.8734,9.27927 0.8734,9.27927 0,0 0,0 0,0"
       style="fill:none;stroke:#0000ff;stroke-width:0.09137548px;stroke-linecap:round;stroke-linejoin:miter;stroke-miterlimit:2;stroke-dasharray:none;stroke-opacity:1"
       inkscape:connector-curvature="0" />
    <path
       id="path1012"
       d="m 160.82124,240.60103 c 0,0 -5.3652,-7.76246 -5.3652,-7.76246 0,0 1.65323,0.62456 2.65141,0.29741 0.96698,-0.32716 1.84039,-1.81422 1.84039,-1.81422 0,0 0.8734,9.27927 0.8734,9.27927 0,0 0,0 0,0 z"
       style="fill:#0000ff;fill-opacity:1;fill-rule:nonzero;stroke:none;stroke-width:0.41461575"
       inkscape:connector-curvature="0" />
    <text
       id="text1020"
       y="252.49519"
       x="207.07739"
       style="font-style:normal;font-variant:normal;font-weight:400;font-size:11.22053909px;line-height:125%;font-family:'Times New Roman';text-align:start;letter-spacing:0px;word-spacing:0px;text-anchor:start;fill:#000000;fill-opacity:1;stroke:none;stroke-width:0.41461575"
       xml:space="preserve"
       transform="scale(1.0241166,0.97645133)"><tspan
         id="tspan1018"
         y="252.49519"
         x="207.07739"
         sodipodi:role="line"
         style="stroke-width:0.41461575"><tspan
           id="tspan1014"
           style="font-style:normal;font-variant:normal;font-weight:400;font-size:11.22053909px;font-family:'Times New Roman';fill:#0000ff;stroke-width:0.41461575"
           dy="0"
           dx="0">sp</tspan><tspan
           id="tspan1016"
           style="font-style:normal;font-variant:normal;font-weight:400;font-size:8.29231548px;font-family:'Times New Roman';fill:#0000ff;stroke-width:0.41461575"
           dy="-4.3860226"
           dx="0">3</tspan></tspan></text>
    <path
       id="path1022"
       d="m 180.2857,230.57823 28.07374,8.17884 -0.24954,0.86249 -28.07375,-8.17883 z"
       style="fill:#0000ff;fill-opacity:1;fill-rule:evenodd;stroke:none;stroke-width:0.41461575"
       inkscape:connector-curvature="0" />
    <path
       id="path1024"
       d="m 172.30027,228.70453 c 0,0 9.79462,0.47586 9.79462,0.47586 0,0 -1.52846,0.89223 -1.84039,1.84396 -0.31192,0.95172 0.40551,2.49826 0.40551,2.49826 0,0 -8.35974,-4.81808 -8.35974,-4.81808 0,0 0,0 0,0"
       style="fill:none;stroke:#0000ff;stroke-width:0.09137548px;stroke-linecap:round;stroke-linejoin:miter;stroke-miterlimit:2;stroke-dasharray:none;stroke-opacity:1"
       inkscape:connector-curvature="0" />
    <path
       id="path1026"
       d="m 172.30027,228.70453 c 0,0 9.79462,0.47586 9.79462,0.47586 0,0 -1.52846,0.89223 -1.84039,1.84396 -0.31192,0.95172 0.40551,2.49826 0.40551,2.49826 0,0 -8.35974,-4.81808 -8.35974,-4.81808 0,0 0,0 0,0 z"
       style="fill:#0000ff;fill-opacity:1;fill-rule:nonzero;stroke:none;stroke-width:0.41461575"
       inkscape:connector-curvature="0" />
    <path
       id="path1028"
       d="m 199.43822,251.57554 8.01661,-6.06721 0.56147,0.68405 -8.01661,6.06722 z"
       style="fill:#0000ff;fill-opacity:1;fill-rule:evenodd;stroke:none;stroke-width:0.41461575"
       inkscape:connector-curvature="0" />
    <path
       id="path1030"
       d="m 193.262,256.78026 c 0,0 5.95788,-7.37583 5.95788,-7.37583 0,0 -0.0936,1.69525 0.56147,2.46853 0.65505,0.77327 2.40186,1.10042 2.40186,1.10042 0,0 -8.92121,3.80688 -8.92121,3.80688 0,0 0,0 0,0"
       style="fill:none;stroke:#0000ff;stroke-width:0.09137548px;stroke-linecap:round;stroke-linejoin:miter;stroke-miterlimit:2;stroke-dasharray:none;stroke-opacity:1"
       inkscape:connector-curvature="0" />
    <path
       id="path1032"
       d="m 193.262,256.78026 c 0,0 5.95788,-7.37583 5.95788,-7.37583 0,0 -0.0936,1.69525 0.56147,2.46853 0.65505,0.77327 2.40186,1.10042 2.40186,1.10042 0,0 -8.92121,3.80688 -8.92121,3.80688 0,0 0,0 0,0 z"
       style="fill:#0000ff;fill-opacity:1;fill-rule:nonzero;stroke:none;stroke-width:0.41461575"
       inkscape:connector-curvature="0" />
    <path
       id="path1034"
       d="m 79.37619,252.22985 -22.08467,-12.1939 0.467892,-0.74353 22.115869,12.16415 z"
       style="fill:#0000ff;fill-opacity:1;fill-rule:evenodd;stroke:none;stroke-width:0.41461575"
       inkscape:connector-curvature="0" />
    <path
       id="path1036"
       d="m 86.737752,255.73931 c 0,0 -9.389105,-2.52799 -9.389105,-2.52799 0,0 1.684412,-0.56509 2.2147,-1.42758 0.530289,-0.8625 0.155991,-2.52801 0.155991,-2.52801 0,0 7.01843,6.48358 7.01843,6.48358 0,0 0,0 0,0"
       style="fill:none;stroke:#0000ff;stroke-width:0.09137548px;stroke-linecap:round;stroke-linejoin:miter;stroke-miterlimit:2;stroke-dasharray:none;stroke-opacity:1"
       inkscape:connector-curvature="0" />
    <path
       id="path1038"
       d="m 86.737752,255.73931 c 0,0 -9.389105,-2.52799 -9.389105,-2.52799 0,0 1.684412,-0.56509 2.2147,-1.42758 0.530289,-0.8625 0.155991,-2.52801 0.155991,-2.52801 0,0 7.01843,6.48358 7.01843,6.48358 0,0 0,0 0,0 z"
       style="fill:#0000ff;fill-opacity:1;fill-rule:nonzero;stroke:none;stroke-width:0.41461575"
       inkscape:connector-curvature="0" />
  </g>
</svg>
